<?xml version="1.0" encoding="UTF-8" standalone="no"?>
<!-- Created with Inkscape (http://www.inkscape.org/) -->

<svg
   xmlns:dc="http://purl.org/dc/elements/1.1/"
   xmlns:cc="http://creativecommons.org/ns#"
   xmlns:rdf="http://www.w3.org/1999/02/22-rdf-syntax-ns#"
   xmlns:svg="http://www.w3.org/2000/svg"
   xmlns="http://www.w3.org/2000/svg"
   xmlns:sodipodi="http://sodipodi.sourceforge.net/DTD/sodipodi-0.dtd"
   xmlns:inkscape="http://www.inkscape.org/namespaces/inkscape"
   width="1000"
   height="1000"
   viewBox="0 0 264.58333 264.58334"
   version="1.1"
   id="svg8"
   inkscape:version="0.92.5 (0.92.5+68)"
   sodipodi:docname="drawing.svg">
  <defs
     id="defs2" />
  <sodipodi:namedview
     id="base"
     pagecolor="#ffffff"
     bordercolor="#666666"
     borderopacity="1.0"
     inkscape:pageopacity="0.0"
     inkscape:pageshadow="2"
     inkscape:zoom="0.49497475"
     inkscape:cx="391.64924"
     inkscape:cy="531.37983"
     inkscape:document-units="px"
     inkscape:current-layer="layer1"
     showgrid="false"
     units="px"
     inkscape:object-paths="true"
     inkscape:snap-intersection-paths="true"
     inkscape:snap-midpoints="true"
     inkscape:snap-smooth-nodes="true"
     inkscape:snap-nodes="false"
     inkscape:window-width="1366"
     inkscape:window-height="717"
     inkscape:window-x="0"
     inkscape:window-y="27"
     inkscape:window-maximized="1" />
  <metadata
     id="metadata5">
    <rdf:RDF>
      <cc:Work
         rdf:about="">
        <dc:format>image/svg+xml</dc:format>
        <dc:type
           rdf:resource="http://purl.org/dc/dcmitype/StillImage" />
        <dc:title></dc:title>
      </cc:Work>
    </rdf:RDF>
  </metadata>
  <g
     inkscape:label="Layer 1"
     inkscape:groupmode="layer"
     id="layer1"
     transform="translate(0,-32.41665)">
    <rect
       style="opacity:1;fill:#852747;fill-opacity:1;fill-rule:evenodd;stroke:none;stroke-width:12;stroke-linecap:round;stroke-linejoin:round;stroke-miterlimit:4;stroke-dasharray:none;stroke-opacity:1"
       id="rect4569"
       width="242.68073"
       height="223.97186"
       x="11.22532"
       y="46.301167" />
    <g
       id="g4573"
       transform="matrix(0.85357494,0,0,0.9018319,24.060405,22.000876)">
      <path
         inkscape:connector-curvature="0"
         id="path834"
         d="m 131.70529,82.10509 c -1.85397,0.0041 -3.68365,0.06317 -5.39192,0.174149 -2.52889,0.164528 -4.62408,0.425593 -6.20996,0.78445 -0.79295,0.179427 -1.45773,0.373433 -2.05362,0.666107 -0.53576,0.263136 -1.18165,0.701085 -1.3069,1.397849 a 1.6659811,1.2676986 0 0 0 -0.032,0.241329 v 7.276042 c -1.68195,0.104124 -3.34141,0.224343 -4.96869,0.363283 a 6.0006002,6.0006002 0 0 0 -5.1e-4,5.19e-4 c -9.10865,0.778785 -16.656067,2.01432 -22.368146,3.712951 -2.856039,0.849315 -5.249611,1.767408 -7.395932,3.152777 -1.929678,1.245534 -4.257117,3.319584 -4.708239,6.617684 a 6.0006002,6.0006002 0 0 0 -0.114721,1.14153 v 101.98603 a 6.0006002,6.0006002 0 0 0 0.0801,0.9312 c 0.0089,0.072 0.02175,0.14181 0.03256,0.21291 a 6.0006002,6.0006002 0 0 0 0.01705,0.0863 c 0.357565,2.18284 1.599766,3.94105 2.799828,5.06481 1.419336,1.3291 2.938286,2.16879 4.643128,2.93263 a 6.0006002,6.0006002 0 0 0 0.0052,0.002 c 6.839677,3.05647 16.783912,4.60521 28.673192,5.52318 11.88929,0.91797 25.44134,0.96028 38.1403,-0.0899 9.24569,-0.76484 16.92206,-1.99984 22.72782,-3.7021 2.90288,-0.85113 5.33408,-1.77254 7.50755,-3.15639 1.9791,-1.2601 4.36951,-3.35731 4.79712,-6.7567 a 6.0006002,6.0006002 0 0 0 0.0941,-1.04799 v -101.96226 -0.0134 a 6.0006002,6.0006002 0 0 0 -0.18397,-1.44384 c -0.39023,-2.00938 -1.49249,-3.66899 -2.60449,-4.74286 -1.37756,-1.33034 -2.85277,-2.168977 -4.4974,-2.928506 a 6.0006002,6.0006002 0 0 0 -0.0641,-0.02946 l -0.45371,-0.203089 a 6.0006002,6.0006002 0 0 0 -0.0677,-0.02946 c -7.29629,-3.158501 -18.50419,-4.957136 -31.68437,-5.690608 v -7.202144 -0.0031 a 1.6659811,1.2676986 0 0 0 -0.0512,-0.304892 c -0.10834,-0.424503 -0.41422,-0.775137 -0.72296,-1.002006 -0.38246,-0.281049 -0.7924,-0.458108 -1.24901,-0.618567 a 1.6659811,1.2676986 0 0 0 -0.0176,-0.0067 L 144.95,83.395958 a 1.6659811,1.2676986 0 0 0 -0.0186,-0.0062 c -2.80397,-0.923634 -7.68802,-1.296974 -13.22606,-1.284676 z"
         style="color:#000000;font-style:normal;font-variant:normal;font-weight:normal;font-stretch:normal;font-size:medium;line-height:normal;font-family:sans-serif;font-variant-ligatures:normal;font-variant-position:normal;font-variant-caps:normal;font-variant-numeric:normal;font-variant-alternates:normal;font-feature-settings:normal;text-indent:0;text-align:start;text-decoration:none;text-decoration-line:none;text-decoration-style:solid;text-decoration-color:#000000;letter-spacing:normal;word-spacing:normal;text-transform:none;writing-mode:lr-tb;direction:ltr;text-orientation:mixed;dominant-baseline:auto;baseline-shift:baseline;text-anchor:start;white-space:normal;shape-padding:0;clip-rule:nonzero;display:inline;overflow:visible;visibility:visible;opacity:1;isolation:auto;mix-blend-mode:normal;color-interpolation:sRGB;color-interpolation-filters:linearRGB;solid-color:#000000;solid-opacity:1;vector-effect:none;fill:#ffffff;fill-opacity:1;fill-rule:evenodd;stroke:none;stroke-width:12;stroke-linecap:round;stroke-linejoin:round;stroke-miterlimit:4;stroke-dasharray:none;stroke-dashoffset:0;stroke-opacity:1;color-rendering:auto;image-rendering:auto;shape-rendering:auto;text-rendering:auto;enable-background:accumulate" />
      <path
         inkscape:connector-curvature="0"
         id="path815"
         d="m 116.71085,98.65705 a 48.758929,9.4494042 0 0 0 -4.45812,0.329697 48.758929,9.4494042 0 0 0 -25.072376,12.406993 48.758929,9.4494042 0 0 0 63.871036,4.93148 48.758929,9.4494042 0 0 0 25.81961,-12.34911 l -0.45372,-0.20309 a 48.758929,9.4494042 0 0 0 -29.30053,-5.106667 v 8.248077 a 1.665981,1.2676986 0 0 1 -0.0264,0.22169 c -0.11872,0.71816 -0.78223,1.16109 -1.3317,1.4273 -0.60343,0.29235 -1.27868,0.48683 -2.08462,0.66663 -1.61189,0.35963 -3.74277,0.62079 -6.3097,0.78238 -3.52568,0.22188 -7.28813,0.21305 -10.58902,0.0191 -3.30089,-0.19393 -6.06181,-0.52113 -7.96075,-1.16685 a 1.665981,1.2676986 0 0 1 -0.001,-5.2e-4 c -0.47332,-0.16137 -0.89528,-0.33881 -1.28933,-0.6196 -0.3332,-0.23741 -0.67791,-0.60907 -0.77721,-1.07022 a 1.665981,1.2676986 0 0 1 -0.005,-0.0181 c -0.003,-0.015 -0.007,-0.0298 -0.009,-0.045 a 1.665981,1.2676986 0 0 1 -0.0222,-0.19689 z m -33.561256,41.33081 v 11.90573 h 0.0186 c -5.29e-4,1.29066 1.363096,2.56766 4.00699,3.75223 4.108241,1.83587 10.871329,3.28939 19.036056,4.26899 v 7.44864 c -8.164727,-0.9796 -14.927815,-2.43312 -19.036056,-4.26899 -2.643894,-1.18458 -4.007519,-2.46157 -4.00699,-3.75223 h -0.0186 v 11.66131 h 0.0186 c -5.29e-4,1.29065 1.363096,2.56764 4.00699,3.75222 4.108241,1.83587 10.871329,3.2894 19.036056,4.269 v 7.44864 c -8.164727,-0.9796 -14.927815,-2.43313 -19.036056,-4.269 -2.643894,-1.18458 -4.007519,-2.46157 -4.00699,-3.75222 h -0.0186 v 11.66079 h 0.0186 c -5.29e-4,1.29067 1.363096,2.56764 4.00699,3.75222 4.108241,1.83587 10.871329,3.28939 19.036056,4.26899 v 7.44864 c -8.164727,-0.97959 -14.927815,-2.43312 -19.036056,-4.26899 -2.643894,-1.18459 -4.007519,-2.46158 -4.00699,-3.75222 h -0.0186 v 11.90625 h 0.0186 c -5.29e-4,1.29065 1.363096,2.56764 4.00699,3.75222 10.669889,4.7681 39.205606,6.97134 63.871036,4.93148 17.95044,-1.48493 29.60224,-4.90126 29.6168,-8.6837 h 0.004 v -69.28518 c -0.0867,3.76961 -11.72612,7.16861 -29.61576,8.64857 -24.66544,2.03986 -53.201155,-0.16338 -63.871039,-4.93148 -2.745015,-1.23437 -4.099628,-2.56802 -3.973398,-3.91191 z m 97.481906,0.0103 c 0.0138,0.048 0.0257,0.0961 0.0357,0.14417 v -0.14417 z"
         style="opacity:1;fill:#00f62f;fill-opacity:1;fill-rule:evenodd;stroke:none;stroke-width:6.08541679;stroke-linecap:round;stroke-linejoin:round;stroke-miterlimit:4;stroke-dasharray:none;stroke-opacity:1" />
    </g>
  </g>
</svg>
