<?xml version="1.0" encoding="UTF-8" standalone="no"?>
<!-- Created with Inkscape (http://www.inkscape.org/) -->

<svg
   xmlns:dc="http://purl.org/dc/elements/1.1/"
   xmlns:cc="http://creativecommons.org/ns#"
   xmlns:rdf="http://www.w3.org/1999/02/22-rdf-syntax-ns#"
   xmlns:svg="http://www.w3.org/2000/svg"
   xmlns="http://www.w3.org/2000/svg"
   xmlns:sodipodi="http://sodipodi.sourceforge.net/DTD/sodipodi-0.dtd"
   xmlns:inkscape="http://www.inkscape.org/namespaces/inkscape"
   id="svg8"
   version="1.1"
   viewBox="0 0 210 297"
   height="1122.5197"
   width="793.70081"
   inkscape:version="0.92.5 (0.92.5+68)"
   sodipodi:docname="drawing - inkscape file .svg">
  <defs
     id="defs2" />
  <sodipodi:namedview
     id="base"
     pagecolor="#ffffff"
     bordercolor="#666666"
     borderopacity="1.0"
     inkscape:pageopacity="0.0"
     inkscape:pageshadow="2"
     inkscape:zoom="0.23733652"
     inkscape:cx="211.89833"
     inkscape:cy="755.43513"
     inkscape:document-units="px"
     inkscape:current-layer="layer1"
     showgrid="false"
     units="px"
     showborder="false"
     showguides="true"
     inkscape:guide-bbox="true"
     inkscape:object-paths="true"
     inkscape:snap-intersection-paths="false"
     inkscape:snap-smooth-nodes="true"
     inkscape:window-width="1319"
     inkscape:window-height="704"
     inkscape:window-x="47"
     inkscape:window-y="27"
     inkscape:window-maximized="1"
     inkscape:object-nodes="false"
     inkscape:snap-nodes="false" />
  <metadata
     id="metadata5">
    <rdf:RDF>
      <cc:Work
         rdf:about="">
        <dc:format>image/svg+xml</dc:format>
        <dc:type
           rdf:resource="http://purl.org/dc/dcmitype/StillImage" />
        <dc:title></dc:title>
      </cc:Work>
    </rdf:RDF>
  </metadata>
  <g
     inkscape:label="Layer 1"
     inkscape:groupmode="layer"
     id="layer1">
    <path
       style="color:#000000;font-style:normal;font-variant:normal;font-weight:normal;font-stretch:normal;font-size:medium;line-height:normal;font-family:sans-serif;font-variant-ligatures:normal;font-variant-position:normal;font-variant-caps:normal;font-variant-numeric:normal;font-variant-alternates:normal;font-feature-settings:normal;text-indent:0;text-align:start;text-decoration:none;text-decoration-line:none;text-decoration-style:solid;text-decoration-color:#000000;letter-spacing:normal;word-spacing:normal;text-transform:none;writing-mode:lr-tb;direction:ltr;text-orientation:mixed;dominant-baseline:auto;baseline-shift:baseline;text-anchor:start;white-space:normal;shape-padding:0;clip-rule:nonzero;display:inline;overflow:visible;visibility:visible;opacity:1;isolation:auto;mix-blend-mode:normal;color-interpolation:sRGB;color-interpolation-filters:linearRGB;solid-color:#000000;solid-opacity:1;vector-effect:none;fill:#ff0000;fill-opacity:1;fill-rule:nonzero;stroke:none;stroke-width:30;stroke-linecap:round;stroke-linejoin:round;stroke-miterlimit:4;stroke-dasharray:none;stroke-dashoffset:0;stroke-opacity:1;color-rendering:auto;image-rendering:auto;shape-rendering:auto;text-rendering:auto;enable-background:accumulate"
       d="M -149.23633 478.96289 C -172.61528 478.78019 -195.29592 482.61198 -218.38672 486.60547 C -261.4191 494.04774 -305.64299 502.25233 -356.2207 490.58398 C -359.21141 489.89452 -362.88775 490.28515 -366.13281 491.63867 C -369.38937 492.99696 -371.83712 495.16921 -372.71484 497.49219 L -477.50781 775 C -477.95883 776.19467 -478.22248 777.36198 -478.32422 778.48242 L -478.33203 778.48047 L -478.33203 778.60352 C -478.38246 779.23344 -478.38407 779.84725 -478.32812 780.44141 L -478.25586 823.41406 C -478.40906 824.50703 -478.40633 825.55769 -478.25 826.54688 L -478.25 826.5957 L -478.24414 826.5957 C -477.71528 829.83397 -475.57188 832.40101 -472.08789 833.55859 C -396.29022 858.74102 -323.86276 840.53321 -263.69336 826.24414 C -231.59659 818.62189 -202.65808 812.188 -175.40039 812.48242 C -152.09435 812.73452 -129.38262 817.57096 -104.12109 831.5918 C -99.588402 834.10688 -93.910856 834.13614 -89.277344 831.66992 C -84.665375 829.21501 -81.83125 824.68109 -81.830078 819.81445 C -81.828906 824.68109 -78.992828 829.21501 -74.380859 831.66992 C -69.747348 834.13625 -64.069821 834.107 -59.537109 831.5918 C -34.275585 817.57096 -11.563853 812.73433 11.742188 812.48242 C 38.999855 812.188 67.938372 818.62189 100.03516 826.24414 C 160.20455 840.53321 232.63012 858.74102 308.42773 833.55859 C 311.201 832.63716 313.12423 830.82282 314.0625 828.48828 L 314.06836 828.48828 L 314.06836 828.47266 C 314.90463 826.38018 314.94125 823.86929 314.08594 821.20703 L 314.17578 782.70312 L 314.16406 782.70312 C 314.96951 780.47755 314.91108 777.81168 313.84961 775 L 209.05469 497.49219 C 208.17697 495.16921 205.73116 492.99696 202.47461 491.63867 C 199.22954 490.28515 195.5532 489.89452 192.5625 490.58398 C 141.98479 502.25233 97.760892 494.04774 54.728516 486.60547 C 31.637719 482.61198 8.9570726 478.78019 -14.421875 478.96289 C -34.405598 479.11899 -55.136082 482.37329 -76.564453 490.875 C -79.822217 492.16779 -81.8297 494.53889 -81.830078 497.11914 C -81.830456 494.53889 -83.835986 492.16779 -87.09375 490.875 C -108.52212 482.37329 -129.25261 479.11899 -149.23633 478.96289 z M -150.75781 493.14844 C -135.21893 493.2721 -120.00329 495.4692 -103.4668 501.46875 L -110.49023 752.84961 C -131.72525 744.62324 -152.47884 741.22331 -172.73242 741.00977 C -204.25028 740.67755 -235.10547 747.66006 -266.64062 754.96094 C -322.93151 767.99309 -381.17725 782.31525 -444.70117 764.91797 L -354.58203 507.19922 C -302.58802 516.38177 -255.40537 507.65253 -215.33398 500.58984 C -191.98403 496.47435 -170.84377 492.98856 -150.75781 493.14844 z M -12.900391 493.14844 C 7.1855685 492.98856 28.325823 496.47435 51.675781 500.58984 C 91.747164 507.65253 138.92981 516.38177 190.92383 507.19922 L 281.04297 764.91797 C 217.51905 782.31525 159.27331 767.99309 102.98242 754.96094 C 71.447255 747.66006 40.592061 740.67755 9.0742188 741.00977 C -11.179362 741.22331 -31.932958 744.62324 -53.167969 752.84961 L -60.191406 501.46875 C -43.654916 495.4692 -28.439275 493.2721 -12.900391 493.14844 z M -151.71484 506.61328 C -175.95288 506.41693 -199.48891 510.53897 -223.46094 514.83398 C -259.5959 521.30816 -296.55861 528.31602 -337.45312 524.0625 L -342.58789 540.07031 C -297.28031 544.2499 -256.11015 536.41336 -220.39062 529.88672 C -196.1331 525.45443 -174.18225 521.70108 -153.34375 521.87305 C -144.58621 521.94535 -135.93891 522.68265 -127.14062 524.36133 L -126.24609 508.60742 C -134.83692 507.30602 -143.33042 506.68131 -151.71484 506.61328 z M -11.943359 506.61328 C -20.327788 506.68131 -28.821282 507.30602 -37.412109 508.60742 L -36.517578 524.36133 C -27.719292 522.68265 -19.071996 521.94535 -10.314453 521.87305 C 10.524048 521.70108 32.474885 525.45443 56.732422 529.88672 C 92.451942 536.41336 133.62211 544.2499 178.92969 540.07031 L 173.79492 524.0625 C 132.9004 528.31602 95.937701 521.30816 59.802734 514.83398 C 35.830704 510.53897 12.294674 506.41693 -11.943359 506.61328 z M -156.55859 560.64258 C -182.475 560.41804 -207.68996 565.13242 -233.39062 570.04883 C -272.16835 577.46679 -311.88753 585.50753 -355.59766 580.62695 L -361.49414 599.01172 C -312.98746 603.82117 -268.68817 594.80676 -230.30469 587.30859 C -204.26352 582.22146 -180.71606 577.91794 -158.4043 578.11523 C -149.02736 578.19816 -139.77375 579.0435 -130.35938 580.96875 L -129.33398 562.92383 C -138.51536 561.43537 -147.59333 560.72006 -156.55859 560.64258 z M -7.0996094 560.64258 C -16.064875 560.72006 -25.142839 561.43537 -34.324219 562.92383 L -33.298828 580.96875 C -23.884441 579.0435 -14.630839 578.19816 -5.2539062 578.11523 C 17.057854 577.91794 40.605314 582.22146 66.646484 587.30859 C 105.02997 594.80676 149.32925 603.82117 197.83594 599.01172 L 191.93945 580.62695 C 148.22933 585.50753 108.51015 577.46679 69.732422 570.04883 C 44.031748 565.13242 18.816785 560.41804 -7.0996094 560.64258 z M -162.125 622.7207 C -189.96957 622.46147 -217.11878 627.90672 -244.81641 633.58984 C -286.65336 642.1741 -329.57209 651.49133 -376.51367 645.83398 L -383.35938 667.17188 C -331.168 672.76511 -283.22034 662.28594 -241.74414 653.58203 C -213.63644 647.68344 -188.24555 642.69517 -164.23633 642.92383 C -154.14578 643.01987 -144.1916 644.00002 -134.06836 646.23047 L -132.88086 625.35352 C -142.74006 623.63462 -152.49246 622.81028 -162.125 622.7207 z M -1.5332031 622.7207 C -11.165745 622.81028 -20.918144 623.63462 -30.777344 625.35352 L -29.589844 646.23047 C -19.466606 644.00002 -9.5124197 643.01987 0.578125 642.92383 C 24.587332 642.69517 49.978234 647.68344 78.085938 653.58203 C 119.56213 662.28594 167.5098 672.76511 219.70117 667.17188 L 212.85547 645.83398 C 165.91389 651.49133 122.99515 642.1741 81.158203 633.58984 C 53.460579 627.90672 26.311355 622.46147 -1.5332031 622.7207 z M -168.58789 694.79102 C -198.67059 694.48839 -228.07482 700.84797 -258.10547 707.49219 C -303.52469 717.54104 -350.20448 728.46557 -400.89258 721.83008 L -408.93164 746.89258 C -352.45051 753.47814 -300.2037 741.14386 -255.09375 730.91797 C -224.56367 723.99709 -197.01751 718.15233 -171.03125 718.41992 C -160.10951 718.53248 -149.34009 719.68051 -138.39258 722.29492 L -137.00391 697.86523 C -147.64887 695.85789 -158.18081 694.89571 -168.58789 694.79102 z M 4.9296875 694.79102 C -5.4773926 694.89571 -16.009333 695.85789 -26.654297 697.86523 L -25.265625 722.29492 C -14.31811 719.68051 -3.5486916 718.53248 7.3730469 718.41992 C 33.359287 718.15233 60.905468 723.99709 91.435547 730.91797 C 136.54549 741.14386 188.7923 753.47814 245.27344 746.89258 L 237.23438 721.83008 C 186.54627 728.46557 139.86649 717.54104 94.447266 707.49219 C 64.416614 700.84797 35.012368 694.48839 4.9296875 694.79102 z M -478.13086 781.64844 C -478.11872 781.70199 -478.10682 781.75546 -478.09375 781.80859 C -478.1068 781.75542 -478.11873 781.70203 -478.13086 781.64844 z M 313.79102 783.57422 C 313.78366 783.58913 313.77697 783.60428 313.76953 783.61914 C 313.77697 783.60431 313.78366 783.5891 313.79102 783.57422 z M -477.19922 784.05664 C -477.18411 784.08276 -477.16578 784.10686 -477.15039 784.13281 C -477.16576 784.10683 -477.18413 784.08279 -477.19922 784.05664 z M 313.32617 784.39648 C 313.31033 784.42112 313.2954 784.44623 313.2793 784.4707 C 313.29543 784.44627 313.3103 784.42108 313.32617 784.39648 z M -476.54688 785.00977 C -476.49976 785.06993 -476.45317 785.13049 -476.4043 785.18945 C -476.4532 785.13033 -476.49974 785.07009 -476.54688 785.00977 z M 312.7793 785.14453 C 312.74793 785.18306 312.7196 785.2237 312.6875 785.26172 C 312.71968 785.22377 312.74785 785.18299 312.7793 785.14453 z M 312.12695 785.85547 C 312.08792 785.8935 312.0516 785.93331 312.01172 785.9707 C 312.0517 785.93338 312.08782 785.89343 312.12695 785.85547 z M 311.40234 786.48438 C 311.3473 786.52724 311.29658 786.57345 311.24023 786.61523 C 311.29668 786.57355 311.3472 786.52714 311.40234 786.48438 z M -474.6582 786.78516 C -474.58184 786.83782 -474.50045 786.88675 -474.42188 786.9375 C -474.50064 786.88656 -474.58167 786.83802 -474.6582 786.78516 z M 310.58984 787.04883 C 310.52045 787.09167 310.45582 787.13832 310.38477 787.17969 C 310.45579 787.13847 310.52046 787.09152 310.58984 787.04883 z M -473.58008 787.42188 C -473.48231 787.47189 -473.38571 787.52295 -473.28516 787.57031 C -473.38585 787.52287 -473.48219 787.47198 -473.58008 787.42188 z M -99.603516 787.71875 C -98.974207 787.83882 -98.336699 787.92062 -97.697266 787.96289 C -98.336699 787.92062 -98.974207 787.83882 -99.603516 787.71875 z "
       transform="scale(0.26458333)"
       id="rect815" />
    <path
       id="path915"
       d="m -272.02933,126.33063 c -6.18568,-0.0483 -12.1866,0.96549 -18.29604,2.0221 -11.38565,1.9691 -23.08656,4.1399 -36.46857,1.05265 -0.7913,-0.18242 -1.76399,-0.0791 -2.62258,0.27905 -0.86164,0.35938 -1.50927,0.93412 -1.7415,1.54874 l -27.72648,73.42395 c -0.11933,0.31609 -0.18909,0.62494 -0.216,0.92139 l -0.002,-5.2e-4 v 0.0326 c -0.0133,0.16666 -0.0138,0.32907 0.001,0.48627 l 0.0191,11.36985 c -0.0405,0.28918 -0.0398,0.56717 0.002,0.82889 v 0.0129 h 0.002 c 0.13993,0.85679 0.70704,1.53599 1.62884,1.84226 20.0548,6.66285 39.21791,1.84537 55.13773,-1.93528 8.49227,-2.01672 16.14891,-3.71902 23.36085,-3.64112 6.16638,0.0667 12.17553,1.34634 18.85931,5.05602 1.19927,0.66545 2.70146,0.67319 3.92741,0.0207 1.22025,-0.64953 1.97011,-1.84913 1.97042,-3.13676 3.1e-4,1.28763 0.75069,2.48723 1.97094,3.13676 1.22595,0.65255 2.72813,0.64481 3.92741,-0.0207 6.68378,-3.70968 12.69292,-4.98937 18.85931,-5.05602 7.21193,-0.0779 14.86858,1.6244 23.36085,3.64112 15.91982,3.78065 35.08242,8.59813 55.1372,1.93528 0.73376,-0.24379 1.24262,-0.72384 1.49087,-1.34152 h 0.002 v -0.004 c 0.22126,-0.55364 0.23095,-1.21798 0.005,-1.92236 l 0.0238,-10.1875 h -0.003 c 0.21311,-0.58885 0.19765,-1.29419 -0.0832,-2.03811 l -27.72801,-73.4241 c -0.23223,-0.61462 -0.87935,-1.18936 -1.74098,-1.54874 -0.85859,-0.35812 -1.83129,-0.46147 -2.62258,-0.27905 -13.38202,3.08725 -25.08292,0.91645 -36.46857,-1.05265 -6.10944,-1.05661 -12.11036,-2.07044 -18.29604,-2.0221 -5.28736,0.0413 -10.7723,0.90233 -16.44189,3.15175 -0.86195,0.34205 -1.3931,0.9694 -1.3932,1.65209 -1e-4,-0.68269 -0.53073,-1.31004 -1.39268,-1.65209 -5.66959,-2.24942 -11.15453,-3.11045 -16.44189,-3.15175 z m -0.40256,3.75326 c 4.11133,0.0327 8.13713,0.61403 12.51241,2.20141 l -1.85828,66.51119 c -5.61843,-2.17656 -11.10948,-3.07612 -16.46824,-3.13262 -8.3391,-0.0879 -16.50287,1.75955 -24.84655,3.69124 -14.89363,3.44809 -30.30449,7.2375 -47.11186,2.63447 l 23.84403,-68.18809 c 13.75675,2.42955 26.24049,0.11994 36.84271,-1.74873 6.17801,-1.08889 11.77137,-2.01117 17.08578,-1.96887 z m 36.47478,0 c 5.31441,-0.0423 10.90776,0.87998 17.08577,1.96887 10.60222,1.86867 23.08597,4.17828 36.84272,1.74873 l 23.84402,68.18809 c -16.80737,4.60303 -32.21822,0.81362 -47.11185,-2.63447 -8.34368,-1.93169 -16.50745,-3.77914 -24.84655,-3.69124 -5.35876,0.0565 -10.84981,0.95606 -16.46824,3.13262 l -1.85829,-66.51119 c 4.37528,-1.58738 8.40109,-2.16869 12.51242,-2.20141 z m -36.72799,3.56257 c -6.41298,-0.0519 -12.64023,1.03867 -18.98283,2.17506 -9.5607,1.71296 -19.34042,3.56712 -30.16043,2.44171 l -1.35857,4.2354 c 11.98763,1.10585 22.88057,-0.96756 32.33136,-2.6944 6.41814,-1.17271 12.22596,-2.16579 17.73948,-2.12029 2.3171,0.0191 4.60504,0.21421 6.93292,0.65836 l 0.23667,-4.16822 c -2.27299,-0.34433 -4.52023,-0.50962 -6.7386,-0.52762 z m 36.9812,0 c -2.21838,0.018 -4.46562,0.18329 -6.73861,0.52762 l 0.23668,4.16822 c 2.32788,-0.44415 4.61581,-0.63923 6.93291,-0.65836 5.51352,-0.0455 11.32135,0.94758 17.73949,2.12029 9.45079,1.72684 20.34373,3.80025 32.33136,2.6944 l -1.35858,-4.2354 c -10.82001,1.12541 -20.59972,-0.72875 -30.16043,-2.44171 -6.3426,-1.13639 -12.56984,-2.22701 -18.98282,-2.17506 z m -38.26278,14.29525 c -6.85705,-0.0594 -13.52851,1.18794 -20.32847,2.48874 -10.25994,1.96267 -20.76898,4.09012 -32.33395,2.7988 l -1.56011,4.8643 c 12.83406,1.2725 24.55491,-1.11256 34.71054,-3.09645 6.89006,-1.34597 13.12033,-2.48461 19.02365,-2.43241 2.48098,0.0219 4.92933,0.2456 7.42022,0.75499 l 0.2713,-4.77439 c -2.42924,-0.39382 -4.83112,-0.58308 -7.20318,-0.60358 z m 39.54436,0 c -2.37206,0.0205 -4.77394,0.20976 -7.20318,0.60358 l 0.2713,4.77439 c 2.49089,-0.50939 4.93924,-0.73305 7.42022,-0.75499 5.90332,-0.0522 12.13358,1.08644 19.02364,2.43241 10.15563,1.98389 21.87648,4.36895 34.71055,3.09645 l -1.56012,-4.8643 c -11.56497,1.29132 -22.074,-0.83613 -32.33394,-2.7988 -6.79997,-1.3008 -13.47143,-2.54815 -20.32847,-2.48874 z m -41.01714,16.42484 c -7.36721,-0.0686 -14.55044,1.37213 -21.87877,2.87579 -11.06936,2.27125 -22.42494,4.73644 -34.8449,3.2396 l -1.81126,5.64565 c 13.80897,1.47988 26.49512,-1.29274 37.46903,-3.59565 7.43683,-1.56067 14.15484,-2.88048 20.50728,-2.81998 2.66979,0.0254 5.3035,0.28474 7.98194,0.87488 l 0.31419,-5.52369 c -2.60858,-0.45479 -5.1889,-0.6729 -7.73751,-0.6966 z m 42.48991,0 c -2.54861,0.0237 -5.12893,0.24181 -7.73751,0.6966 l 0.31419,5.52369 c 2.67844,-0.59014 5.31216,-0.84947 7.98195,-0.87488 6.35243,-0.0605 13.07044,1.25931 20.50727,2.81998 10.97391,2.30291 23.66007,5.07553 37.46903,3.59565 l -1.81126,-5.64565 c -12.41996,1.49684 -23.77554,-0.96835 -34.8449,-3.2396 -7.32833,-1.50366 -14.51156,-2.94438 -21.87877,-2.87579 z m -44.19988,19.0686 c -7.95938,-0.0801 -15.73925,1.60257 -23.68486,3.36052 -12.01717,2.65876 -24.36786,5.54921 -37.77909,3.79357 l -2.12701,6.63112 c 14.94397,1.74243 28.76761,-1.52101 40.70295,-4.22662 8.07775,-1.83115 15.36601,-3.37757 22.24154,-3.30677 2.88971,0.0298 5.73912,0.33353 8.63564,1.02526 l 0.36742,-6.46369 c -2.81648,-0.53111 -5.60305,-0.78569 -8.35659,-0.81339 z m 45.90986,0 c -2.75354,0.0277 -5.54012,0.28228 -8.3566,0.81339 l 0.36742,6.46369 c 2.89653,-0.69173 5.74594,-0.99548 8.63565,-1.02526 6.87553,-0.0708 14.16379,1.47562 22.24154,3.30677 11.93533,2.70561 25.75897,5.96905 40.70294,4.22662 l -2.127,-6.63112 c -13.41123,1.75564 -25.76192,-1.13481 -37.77909,-3.79357 -7.94561,-1.75795 -15.72549,-3.44059 -23.68486,-3.36052 z m -127.80978,22.98103 c 0.003,0.0142 0.006,0.0283 0.01,0.0424 -0.003,-0.0141 -0.007,-0.0282 -0.01,-0.0424 z m 209.52934,0.50953 c -0.002,0.004 -0.004,0.008 -0.006,0.0119 0.002,-0.004 0.004,-0.008 0.006,-0.0119 z m -209.28284,0.12764 c 0.004,0.007 0.009,0.0133 0.0129,0.0202 -0.004,-0.007 -0.009,-0.0132 -0.0129,-0.0202 z m 209.15985,0.0899 c -0.004,0.007 -0.008,0.0132 -0.0124,0.0196 0.004,-0.006 0.008,-0.0131 0.0124,-0.0196 z m -208.98725,0.16226 c 0.0125,0.0159 0.0248,0.0319 0.0377,0.0475 -0.0129,-0.0156 -0.0252,-0.0316 -0.0377,-0.0475 z m 208.84255,0.0357 c -0.008,0.0102 -0.0158,0.0209 -0.0243,0.031 0.008,-0.0101 0.016,-0.0208 0.0243,-0.031 z m -0.1726,0.1881 c -0.0103,0.0101 -0.0199,0.0206 -0.0305,0.0305 0.0106,-0.01 0.0201,-0.0204 0.0305,-0.0305 z m -0.19172,0.1664 c -0.0146,0.0113 -0.028,0.0236 -0.0429,0.0346 0.0149,-0.011 0.0283,-0.0233 0.0429,-0.0346 z m -207.97852,0.0796 c 0.0202,0.0139 0.0417,0.0269 0.0625,0.0403 -0.0208,-0.0135 -0.0423,-0.0263 -0.0625,-0.0403 z m 207.76355,0.0698 c -0.0184,0.0113 -0.0355,0.0237 -0.0543,0.0346 0.0188,-0.0109 0.0359,-0.0233 0.0543,-0.0346 z m -207.47829,0.0987 c 0.0259,0.0132 0.0514,0.0267 0.078,0.0393 -0.0266,-0.0126 -0.0521,-0.026 -0.078,-0.0393 z m 98.94796,0.0785 c 0.16651,0.0318 0.33518,0.0534 0.50437,0.0646 -0.16919,-0.0112 -0.33786,-0.0328 -0.50437,-0.0646 z"
       style="color:#000000;font-style:normal;font-variant:normal;font-weight:normal;font-stretch:normal;font-size:medium;line-height:normal;font-family:sans-serif;font-variant-ligatures:normal;font-variant-position:normal;font-variant-caps:normal;font-variant-numeric:normal;font-variant-alternates:normal;font-feature-settings:normal;text-indent:0;text-align:start;text-decoration:none;text-decoration-line:none;text-decoration-style:solid;text-decoration-color:#000000;letter-spacing:normal;word-spacing:normal;text-transform:none;writing-mode:lr-tb;direction:ltr;text-orientation:mixed;dominant-baseline:auto;baseline-shift:baseline;text-anchor:start;white-space:normal;shape-padding:0;clip-rule:nonzero;display:inline;overflow:visible;visibility:visible;opacity:1;isolation:auto;mix-blend-mode:normal;color-interpolation:sRGB;color-interpolation-filters:linearRGB;solid-color:#000000;solid-opacity:1;vector-effect:none;fill:#0000ff;fill-opacity:1;fill-rule:nonzero;stroke:none;stroke-width:7.9375;stroke-linecap:round;stroke-linejoin:round;stroke-miterlimit:4;stroke-dasharray:none;stroke-dashoffset:0;stroke-opacity:1;color-rendering:auto;image-rendering:auto;shape-rendering:auto;text-rendering:auto;enable-background:accumulate"
       inkscape:connector-curvature="0"
       inkscape:transform-center-y="5.5179906" />
    <path
       inkscape:transform-center-y="5.5179906"
       inkscape:connector-curvature="0"
       style="color:#000000;font-style:normal;font-variant:normal;font-weight:normal;font-stretch:normal;font-size:medium;line-height:normal;font-family:sans-serif;font-variant-ligatures:normal;font-variant-position:normal;font-variant-caps:normal;font-variant-numeric:normal;font-variant-alternates:normal;font-feature-settings:normal;text-indent:0;text-align:start;text-decoration:none;text-decoration-line:none;text-decoration-style:solid;text-decoration-color:#000000;letter-spacing:normal;word-spacing:normal;text-transform:none;writing-mode:lr-tb;direction:ltr;text-orientation:mixed;dominant-baseline:auto;baseline-shift:baseline;text-anchor:start;white-space:normal;shape-padding:0;clip-rule:nonzero;display:inline;overflow:visible;visibility:visible;opacity:1;isolation:auto;mix-blend-mode:normal;color-interpolation:sRGB;color-interpolation-filters:linearRGB;solid-color:#000000;solid-opacity:1;vector-effect:none;fill:#ff00ff;fill-opacity:1;fill-rule:nonzero;stroke:none;stroke-width:7.9375;stroke-linecap:round;stroke-linejoin:round;stroke-miterlimit:4;stroke-dasharray:none;stroke-dashoffset:0;stroke-opacity:1;color-rendering:auto;image-rendering:auto;shape-rendering:auto;text-rendering:auto;enable-background:accumulate"
       d="m 182.02246,126.33063 c -6.18568,-0.0483 -12.1866,0.96549 -18.29604,2.0221 -11.38565,1.9691 -23.08656,4.1399 -36.46857,1.05265 -0.7913,-0.18242 -1.76399,-0.0791 -2.62258,0.27905 -0.86164,0.35938 -1.50927,0.93412 -1.7415,1.54874 l -27.72648,73.42395 c -0.11933,0.31609 -0.18909,0.62494 -0.216,0.92139 l -0.002,-5.2e-4 v 0.0326 c -0.0133,0.16666 -0.0138,0.32907 10e-4,0.48627 l 0.0191,11.36985 c -0.0405,0.28918 -0.0398,0.56717 0.002,0.82889 v 0.0129 h 0.002 c 0.13993,0.85679 0.70704,1.53599 1.62884,1.84226 20.0548,6.66285 39.21791,1.84537 55.13773,-1.93528 8.49227,-2.01672 16.14891,-3.71902 23.36085,-3.64112 6.16638,0.0667 12.17553,1.34634 18.85931,5.05602 1.19927,0.66545 2.70146,0.67319 3.92741,0.0207 1.22025,-0.64953 1.97011,-1.84913 1.97042,-3.13676 3.1e-4,1.28763 0.75069,2.48723 1.97094,3.13676 1.22595,0.65255 2.72813,0.64481 3.92741,-0.0207 6.68378,-3.70968 12.69292,-4.98937 18.85931,-5.05602 7.21193,-0.0779 14.86858,1.6244 23.36085,3.64112 15.91982,3.78065 35.08242,8.59813 55.1372,1.93528 0.73376,-0.24379 1.24262,-0.72384 1.49087,-1.34152 h 0.002 v -0.004 c 0.22126,-0.55364 0.23095,-1.21798 0.005,-1.92236 l 0.0238,-10.1875 h -0.003 c 0.21311,-0.58885 0.19765,-1.29419 -0.0832,-2.03811 l -27.72801,-73.4241 c -0.23223,-0.61462 -0.87935,-1.18936 -1.74098,-1.54874 -0.85859,-0.35812 -1.83129,-0.46147 -2.62258,-0.27905 -13.38202,3.08725 -25.08292,0.91645 -36.46857,-1.05265 -6.10944,-1.05661 -12.11036,-2.07044 -18.29604,-2.0221 -5.28736,0.0413 -10.7723,0.90233 -16.44189,3.15175 -0.86195,0.34205 -1.3931,0.9694 -1.3932,1.65209 -10e-5,-0.68269 -0.53073,-1.31004 -1.39268,-1.65209 -5.66959,-2.24942 -11.15453,-3.11045 -16.44189,-3.15175 z m -0.40256,3.75326 c 4.11133,0.0327 8.13713,0.61403 12.51241,2.20141 l -1.85828,66.51119 c -5.61843,-2.17656 -11.10948,-3.07612 -16.46824,-3.13262 -8.3391,-0.0879 -16.50287,1.75955 -24.84655,3.69124 -14.89363,3.44809 -30.30449,7.2375 -47.11186,2.63447 l 23.84403,-68.18809 c 13.75675,2.42955 26.24049,0.11994 36.84271,-1.74873 6.17801,-1.08889 11.77137,-2.01117 17.08578,-1.96887 z m 36.47478,0 c 5.31441,-0.0423 10.90776,0.87998 17.08577,1.96887 10.60222,1.86867 23.08597,4.17828 36.84272,1.74873 l 23.84402,68.18809 c -16.80737,4.60303 -32.21822,0.81362 -47.11185,-2.63447 -8.34368,-1.93169 -16.50745,-3.77914 -24.84655,-3.69124 -5.35876,0.0565 -10.84981,0.95606 -16.46824,3.13262 l -1.85829,-66.51119 c 4.37528,-1.58738 8.40109,-2.16869 12.51242,-2.20141 z m -36.72799,3.56257 c -6.41298,-0.0519 -12.64023,1.03867 -18.98283,2.17506 -9.5607,1.71296 -19.34042,3.56712 -30.16043,2.44171 l -1.35857,4.2354 c 11.98763,1.10585 22.88057,-0.96756 32.33136,-2.6944 6.41814,-1.17271 12.22596,-2.16579 17.73948,-2.12029 2.3171,0.0191 4.60504,0.21421 6.93292,0.65836 l 0.23667,-4.16822 c -2.27299,-0.34433 -4.52023,-0.50962 -6.7386,-0.52762 z m 36.9812,0 c -2.21838,0.018 -4.46562,0.18329 -6.73861,0.52762 l 0.23668,4.16822 c 2.32788,-0.44415 4.61581,-0.63923 6.93291,-0.65836 5.51352,-0.0455 11.32135,0.94758 17.73949,2.12029 9.45079,1.72684 20.34373,3.80025 32.33136,2.6944 l -1.35858,-4.2354 c -10.82001,1.12541 -20.59972,-0.72875 -30.16043,-2.44171 -6.3426,-1.13639 -12.56984,-2.22701 -18.98282,-2.17506 z m -38.26278,14.29525 c -6.85705,-0.0594 -13.52851,1.18794 -20.32847,2.48874 -10.25994,1.96267 -20.76898,4.09012 -32.33395,2.7988 l -1.56011,4.8643 c 12.83406,1.2725 24.55491,-1.11256 34.71054,-3.09645 6.89006,-1.34597 13.12033,-2.48461 19.02365,-2.43241 2.48098,0.0219 4.92933,0.2456 7.42022,0.75499 l 0.2713,-4.77439 c -2.42924,-0.39382 -4.83112,-0.58308 -7.20318,-0.60358 z m 39.54436,0 c -2.37206,0.0205 -4.77394,0.20976 -7.20318,0.60358 l 0.2713,4.77439 c 2.49089,-0.50939 4.93924,-0.73305 7.42022,-0.75499 5.90332,-0.0522 12.13358,1.08644 19.02364,2.43241 10.15563,1.98389 21.87648,4.36895 34.71055,3.09645 l -1.56012,-4.8643 c -11.56497,1.29132 -22.074,-0.83613 -32.33394,-2.7988 -6.79997,-1.3008 -13.47143,-2.54815 -20.32847,-2.48874 z m -41.01714,16.42484 c -7.36721,-0.0686 -14.55044,1.37213 -21.87877,2.87579 -11.06936,2.27125 -22.42494,4.73644 -34.8449,3.2396 l -1.81126,5.64565 c 13.80897,1.47988 26.49512,-1.29274 37.46903,-3.59565 7.43683,-1.56067 14.15484,-2.88048 20.50728,-2.81998 2.66979,0.0254 5.3035,0.28474 7.98194,0.87488 l 0.31419,-5.52369 c -2.60858,-0.45479 -5.1889,-0.6729 -7.73751,-0.6966 z m 42.48991,0 c -2.54861,0.0237 -5.12893,0.24181 -7.73751,0.6966 l 0.31419,5.52369 c 2.67844,-0.59014 5.31216,-0.84947 7.98195,-0.87488 6.35243,-0.0605 13.07044,1.25931 20.50727,2.81998 10.97391,2.30291 23.66007,5.07553 37.46903,3.59565 l -1.81126,-5.64565 c -12.41996,1.49684 -23.77554,-0.96835 -34.8449,-3.2396 -7.32833,-1.50366 -14.51156,-2.94438 -21.87877,-2.87579 z m -44.19988,19.0686 c -7.95938,-0.0801 -15.73925,1.60257 -23.68486,3.36052 -12.01717,2.65876 -24.36786,5.54921 -37.77909,3.79357 l -2.12701,6.63112 c 14.94397,1.74243 28.76761,-1.52101 40.70295,-4.22662 8.07775,-1.83115 15.36601,-3.37757 22.24154,-3.30677 2.88971,0.0298 5.73912,0.33353 8.63564,1.02526 l 0.36742,-6.46369 c -2.81648,-0.53111 -5.60305,-0.78569 -8.35659,-0.81339 z m 45.90986,0 c -2.75354,0.0277 -5.54012,0.28228 -8.3566,0.81339 l 0.36742,6.46369 c 2.89653,-0.69173 5.74594,-0.99548 8.63565,-1.02526 6.87553,-0.0708 14.16379,1.47562 22.24154,3.30677 11.93533,2.70561 25.75897,5.96905 40.70294,4.22662 l -2.127,-6.63112 c -13.41123,1.75564 -25.76192,-1.13481 -37.77909,-3.79357 -7.94561,-1.75795 -15.72549,-3.44059 -23.68486,-3.36052 z M 95.00244,206.41618 c 0.003,0.0142 0.006,0.0283 0.01,0.0424 -0.003,-0.0141 -0.007,-0.0282 -0.01,-0.0424 z m 209.52934,0.50953 c -0.002,0.004 -0.004,0.008 -0.006,0.0119 0.002,-0.004 0.004,-0.008 0.006,-0.0119 z m -209.28284,0.12764 c 0.004,0.007 0.009,0.0133 0.0129,0.0202 -0.004,-0.007 -0.009,-0.0132 -0.0129,-0.0202 z m 209.15985,0.0899 c -0.004,0.007 -0.008,0.0132 -0.0124,0.0196 0.004,-0.006 0.008,-0.0131 0.0124,-0.0196 z m -208.98725,0.16226 c 0.0125,0.0159 0.0248,0.0319 0.0377,0.0475 -0.0129,-0.0156 -0.0252,-0.0316 -0.0377,-0.0475 z m 208.84255,0.0357 c -0.008,0.0102 -0.0158,0.0209 -0.0243,0.031 0.008,-0.0101 0.016,-0.0208 0.0243,-0.031 z m -0.1726,0.1881 c -0.0103,0.0101 -0.0199,0.0206 -0.0305,0.0305 0.0106,-0.01 0.0201,-0.0204 0.0305,-0.0305 z m -0.19172,0.1664 c -0.0146,0.0113 -0.028,0.0236 -0.0429,0.0346 0.0149,-0.011 0.0283,-0.0233 0.0429,-0.0346 z m -207.97852,0.0796 c 0.0202,0.0139 0.0417,0.0269 0.0625,0.0403 -0.0208,-0.0135 -0.0423,-0.0263 -0.0625,-0.0403 z m 207.76355,0.0698 c -0.0184,0.0113 -0.0355,0.0237 -0.0543,0.0346 0.0188,-0.0109 0.0359,-0.0233 0.0543,-0.0346 z m -207.47829,0.0987 c 0.0259,0.0132 0.0514,0.0267 0.078,0.0393 -0.0266,-0.0126 -0.0521,-0.026 -0.078,-0.0393 z m 98.94796,0.0785 c 0.16651,0.0318 0.33518,0.0534 0.50437,0.0646 -0.16919,-0.0112 -0.33786,-0.0328 -0.50437,-0.0646 z"
       id="path917" />
    <path
       id="path919"
       d="m 182.02246,4.9348389 c -6.18568,-0.0483 -12.1866,0.96549 -18.29604,2.0221 -11.38565,1.9691 -23.08656,4.1399001 -36.46857,1.05265 -0.7913,-0.18242 -1.76399,-0.0791 -2.62258,0.27905 -0.86164,0.35938 -1.50927,0.93412 -1.7415,1.54874 L 95.16729,83.261329 c -0.11933,0.31609 -0.18909,0.62494 -0.216,0.92139 l -0.002,-5.2e-4 v 0.0326 c -0.0133,0.16666 -0.0138,0.32907 10e-4,0.48627 l 0.0191,11.36985 c -0.0405,0.28918 -0.0398,0.56717 0.002,0.82889 v 0.0129 h 0.002 c 0.13993,0.85679 0.70704,1.53599 1.62884,1.84226 20.0548,6.662851 39.21791,1.845371 55.13773,-1.93528 8.49227,-2.01672 16.14891,-3.71902 23.36085,-3.64112 6.16638,0.0667 12.17553,1.34634 18.85931,5.05602 1.19927,0.66545 2.70146,0.67319 3.92741,0.0207 1.22025,-0.64953 1.97011,-1.84913 1.97042,-3.13676 3.1e-4,1.28763 0.75069,2.48723 1.97094,3.13676 1.22595,0.65255 2.72813,0.64481 3.92741,-0.0207 6.68378,-3.70968 12.69292,-4.98937 18.85931,-5.05602 7.21193,-0.0779 14.86858,1.6244 23.36085,3.64112 15.91982,3.780651 35.08242,8.598131 55.1372,1.93528 0.73376,-0.24379 1.24262,-0.72384 1.49087,-1.34152 h 0.002 v -0.004 c 0.22126,-0.55364 0.23095,-1.21798 0.005,-1.92236 l 0.0238,-10.1875 h -0.003 c 0.21311,-0.58885 0.19765,-1.29419 -0.0832,-2.03811 L 276.82112,9.8373789 c -0.23223,-0.61462 -0.87935,-1.18936 -1.74098,-1.54874 -0.85859,-0.35812 -1.83129,-0.46147 -2.62258,-0.27905 -13.38202,3.0872501 -25.08292,0.91645 -36.46857,-1.05265 -6.10944,-1.05661 -12.11036,-2.07044 -18.29604,-2.0221 -5.28736,0.0413 -10.7723,0.90233 -16.44189,3.15175 -0.86195,0.34205 -1.3931,0.9694 -1.3932,1.65209 -10e-5,-0.68269 -0.53073,-1.31004 -1.39268,-1.65209 -5.66959,-2.24942 -11.15453,-3.11045 -16.44189,-3.15175 z m -0.40256,3.75326 c 4.11133,0.0327 8.13713,0.61403 12.51241,2.2014101 l -1.85828,66.51119 c -5.61843,-2.17656 -11.10948,-3.07612 -16.46824,-3.13262 -8.3391,-0.0879 -16.50287,1.75955 -24.84655,3.69124 -14.89363,3.44809 -30.30449,7.2375 -47.11186,2.63447 l 23.84403,-68.18809 c 13.75675,2.42955 26.24049,0.11994 36.84271,-1.74873 6.17801,-1.0888901 11.77137,-2.0111701 17.08578,-1.9688701 z m 36.47478,0 c 5.31441,-0.0423 10.90776,0.87998 17.08577,1.9688701 10.60222,1.86867 23.08597,4.17828 36.84272,1.74873 l 23.84402,68.18809 c -16.80737,4.60303 -32.21822,0.81362 -47.11185,-2.63447 -8.34368,-1.93169 -16.50745,-3.77914 -24.84655,-3.69124 -5.35876,0.0565 -10.84981,0.95606 -16.46824,3.13262 l -1.85829,-66.51119 c 4.37528,-1.5873801 8.40109,-2.1686901 12.51242,-2.2014101 z m -36.72799,3.5625701 c -6.41298,-0.0519 -12.64023,1.03867 -18.98283,2.17506 -9.5607,1.71296 -19.34042,3.56712 -30.16043,2.44171 l -1.35857,4.2354 c 11.98763,1.10585 22.88057,-0.96756 32.33136,-2.6944 6.41814,-1.17271 12.22596,-2.16579 17.73948,-2.12029 2.3171,0.0191 4.60504,0.21421 6.93292,0.65836 l 0.23667,-4.16822 c -2.27299,-0.34433 -4.52023,-0.50962 -6.7386,-0.52762 z m 36.9812,0 c -2.21838,0.018 -4.46562,0.18329 -6.73861,0.52762 l 0.23668,4.16822 c 2.32788,-0.44415 4.61581,-0.63923 6.93291,-0.65836 5.51352,-0.0455 11.32135,0.94758 17.73949,2.12029 9.45079,1.72684 20.34373,3.80025 32.33136,2.6944 l -1.35858,-4.2354 c -10.82001,1.12541 -20.59972,-0.72875 -30.16043,-2.44171 -6.3426,-1.13639 -12.56984,-2.22701 -18.98282,-2.17506 z m -38.26278,14.29525 c -6.85705,-0.0594 -13.52851,1.18794 -20.32847,2.48874 -10.25994,1.96267 -20.76898,4.09012 -32.33395,2.7988 l -1.56011,4.8643 c 12.83406,1.2725 24.55491,-1.11256 34.71054,-3.09645 6.89006,-1.34597 13.12033,-2.48461 19.02365,-2.43241 2.48098,0.0219 4.92933,0.2456 7.42022,0.75499 l 0.2713,-4.77439 c -2.42924,-0.39382 -4.83112,-0.58308 -7.20318,-0.60358 z m 39.54436,0 c -2.37206,0.0205 -4.77394,0.20976 -7.20318,0.60358 l 0.2713,4.77439 c 2.49089,-0.50939 4.93924,-0.73305 7.42022,-0.75499 5.90332,-0.0522 12.13358,1.08644 19.02364,2.43241 10.15563,1.98389 21.87648,4.36895 34.71055,3.09645 l -1.56012,-4.8643 c -11.56497,1.29132 -22.074,-0.83613 -32.33394,-2.7988 -6.79997,-1.3008 -13.47143,-2.54815 -20.32847,-2.48874 z m -41.01714,16.42484 c -7.36721,-0.0686 -14.55044,1.37213 -21.87877,2.87579 -11.06936,2.27125 -22.42494,4.73644 -34.8449,3.2396 l -1.81126,5.64565 c 13.80897,1.47988 26.49512,-1.29274 37.46903,-3.59565 7.43683,-1.56067 14.15484,-2.88048 20.50728,-2.81998 2.66979,0.0254 5.3035,0.28474 7.98194,0.87488 l 0.31419,-5.52369 c -2.60858,-0.45479 -5.1889,-0.6729 -7.73751,-0.6966 z m 42.48991,0 c -2.54861,0.0237 -5.12893,0.24181 -7.73751,0.6966 l 0.31419,5.52369 c 2.67844,-0.59014 5.31216,-0.84947 7.98195,-0.87488 6.35243,-0.0605 13.07044,1.25931 20.50727,2.81998 10.97391,2.30291 23.66007,5.07553 37.46903,3.59565 l -1.81126,-5.64565 c -12.41996,1.49684 -23.77554,-0.96835 -34.8449,-3.2396 -7.32833,-1.50366 -14.51156,-2.94438 -21.87877,-2.87579 z m -44.19988,19.0686 c -7.95938,-0.0801 -15.73925,1.60257 -23.68486,3.36052 -12.01717,2.65876 -24.36786,5.54921 -37.77909,3.79357 l -2.12701,6.63112 c 14.94397,1.74243 28.76761,-1.52101 40.70295,-4.22662 8.07775,-1.83115 15.36601,-3.37757 22.24154,-3.30677 2.88971,0.0298 5.73912,0.33353 8.63564,1.02526 l 0.36742,-6.46369 c -2.81648,-0.53111 -5.60305,-0.78569 -8.35659,-0.81339 z m 45.90986,0 c -2.75354,0.0277 -5.54012,0.28228 -8.3566,0.81339 l 0.36742,6.46369 c 2.89653,-0.69173 5.74594,-0.99548 8.63565,-1.02526 6.87553,-0.0708 14.16379,1.47562 22.24154,3.30677 11.93533,2.70561 25.75897,5.96905 40.70294,4.22662 l -2.127,-6.63112 c -13.41123,1.75564 -25.76192,-1.13481 -37.77909,-3.79357 -7.94561,-1.75795 -15.72549,-3.44059 -23.68486,-3.36052 z M 95.00244,85.020389 c 0.003,0.0142 0.006,0.0283 0.01,0.0424 -0.003,-0.0141 -0.007,-0.0282 -0.01,-0.0424 z m 209.52934,0.50953 c -0.002,0.004 -0.004,0.008 -0.006,0.0119 0.002,-0.004 0.004,-0.008 0.006,-0.0119 z m -209.28284,0.12764 c 0.004,0.007 0.009,0.0133 0.0129,0.0202 -0.004,-0.007 -0.009,-0.0132 -0.0129,-0.0202 z m 209.15985,0.0899 c -0.004,0.007 -0.008,0.0132 -0.0124,0.0196 0.004,-0.006 0.008,-0.0131 0.0124,-0.0196 z m -208.98725,0.16226 c 0.0125,0.0159 0.0248,0.0319 0.0377,0.0475 -0.0129,-0.0156 -0.0252,-0.0316 -0.0377,-0.0475 z m 208.84255,0.0357 c -0.008,0.0102 -0.0158,0.0209 -0.0243,0.031 0.008,-0.0101 0.016,-0.0208 0.0243,-0.031 z m -0.1726,0.1881 c -0.0103,0.0101 -0.0199,0.0206 -0.0305,0.0305 0.0106,-0.01 0.0201,-0.0204 0.0305,-0.0305 z m -0.19172,0.1664 c -0.0146,0.0113 -0.028,0.0236 -0.0429,0.0346 0.0149,-0.011 0.0283,-0.0233 0.0429,-0.0346 z m -207.97852,0.0796 c 0.0202,0.0139 0.0417,0.0269 0.0625,0.0403 -0.0208,-0.0135 -0.0423,-0.0263 -0.0625,-0.0403 z m 207.76355,0.0698 c -0.0184,0.0113 -0.0355,0.0237 -0.0543,0.0346 0.0188,-0.0109 0.0359,-0.0233 0.0543,-0.0346 z m -207.47829,0.0987 c 0.0259,0.0132 0.0514,0.0267 0.078,0.0393 -0.0266,-0.0126 -0.0521,-0.026 -0.078,-0.0393 z m 98.94796,0.0785 c 0.16651,0.0318 0.33518,0.0534 0.50437,0.0646 -0.16919,-0.0112 -0.33786,-0.0328 -0.50437,-0.0646 z"
       style="color:#000000;font-style:normal;font-variant:normal;font-weight:normal;font-stretch:normal;font-size:medium;line-height:normal;font-family:sans-serif;font-variant-ligatures:normal;font-variant-position:normal;font-variant-caps:normal;font-variant-numeric:normal;font-variant-alternates:normal;font-feature-settings:normal;text-indent:0;text-align:start;text-decoration:none;text-decoration-line:none;text-decoration-style:solid;text-decoration-color:#000000;letter-spacing:normal;word-spacing:normal;text-transform:none;writing-mode:lr-tb;direction:ltr;text-orientation:mixed;dominant-baseline:auto;baseline-shift:baseline;text-anchor:start;white-space:normal;shape-padding:0;clip-rule:nonzero;display:inline;overflow:visible;visibility:visible;opacity:1;isolation:auto;mix-blend-mode:normal;color-interpolation:sRGB;color-interpolation-filters:linearRGB;solid-color:#000000;solid-opacity:1;vector-effect:none;fill:#808000;fill-opacity:1;fill-rule:nonzero;stroke:none;stroke-width:7.9375;stroke-linecap:round;stroke-linejoin:round;stroke-miterlimit:4;stroke-dasharray:none;stroke-dashoffset:0;stroke-opacity:1;color-rendering:auto;image-rendering:auto;shape-rendering:auto;text-rendering:auto;enable-background:accumulate"
       inkscape:connector-curvature="0"
       inkscape:transform-center-y="5.5179906" />
    <path
       inkscape:transform-center-y="5.5179906"
       inkscape:connector-curvature="0"
       style="color:#000000;font-style:normal;font-variant:normal;font-weight:normal;font-stretch:normal;font-size:medium;line-height:normal;font-family:sans-serif;font-variant-ligatures:normal;font-variant-position:normal;font-variant-caps:normal;font-variant-numeric:normal;font-variant-alternates:normal;font-feature-settings:normal;text-indent:0;text-align:start;text-decoration:none;text-decoration-line:none;text-decoration-style:solid;text-decoration-color:#000000;letter-spacing:normal;word-spacing:normal;text-transform:none;writing-mode:lr-tb;direction:ltr;text-orientation:mixed;dominant-baseline:auto;baseline-shift:baseline;text-anchor:start;white-space:normal;shape-padding:0;clip-rule:nonzero;display:inline;overflow:visible;visibility:visible;opacity:1;isolation:auto;mix-blend-mode:normal;color-interpolation:sRGB;color-interpolation-filters:linearRGB;solid-color:#000000;solid-opacity:1;vector-effect:none;fill:#008000;fill-opacity:1;fill-rule:nonzero;stroke:none;stroke-width:7.9375;stroke-linecap:round;stroke-linejoin:round;stroke-miterlimit:4;stroke-dasharray:none;stroke-dashoffset:0;stroke-opacity:1;color-rendering:auto;image-rendering:auto;shape-rendering:auto;text-rendering:auto;enable-background:accumulate"
       d="m -56.039416,4.9348389 c -6.18568,-0.0483 -12.1866,0.96549 -18.29604,2.0221 -11.38565,1.9691 -23.08656,4.1399001 -36.468574,1.05265 -0.7913,-0.18242 -1.76399,-0.0791 -2.62258,0.27905 -0.86164,0.35938 -1.50927,0.93412 -1.7415,1.54874 l -27.72648,73.4239501 c -0.11933,0.31609 -0.18909,0.62494 -0.216,0.92139 l -0.002,-5.2e-4 v 0.0326 c -0.0133,0.16666 -0.0138,0.32907 0.001,0.48627 l 0.0191,11.36985 c -0.0405,0.28918 -0.0398,0.56717 0.002,0.82889 v 0.0129 h 0.002 c 0.13993,0.85679 0.70704,1.53599 1.62884,1.84226 20.0548,6.662851 39.21791,1.845371 55.137734,-1.93528 8.49227,-2.01672 16.14891,-3.71902 23.36085,-3.64112 6.16638,0.0667 12.17553,1.34634 18.85931,5.05602 1.19927,0.66545 2.70146,0.67319 3.92741,0.0207 1.22025,-0.64953 1.97011,-1.84913 1.97042,-3.13676 3.1e-4,1.28763 0.75069,2.48723 1.97094,3.13676 1.22595,0.65255 2.72813,0.64481 3.92741,-0.0207 6.68378,-3.70968 12.69292,-4.98937 18.85931,-5.05602 7.21193,-0.0779 14.86858,1.6244 23.36085,3.64112 15.91982,3.780651 35.08242,8.598131 55.1372,1.93528 0.73376,-0.24379 1.24262,-0.72384 1.49087,-1.34152 h 0.002 v -0.004 c 0.22126,-0.55364 0.23095,-1.21798 0.005,-1.92236 l 0.0238,-10.1875 h -0.003 c 0.21311,-0.58885 0.19765,-1.29419 -0.0832,-2.03811 L 38.759244,9.8373789 c -0.23223,-0.61462 -0.87935,-1.18936 -1.74098,-1.54874 -0.85859,-0.35812 -1.83129,-0.46147 -2.62258,-0.27905 -13.38202,3.0872501 -25.08292,0.91645 -36.46857,-1.05265 -6.10944,-1.05661 -12.11036,-2.07044 -18.29604,-2.0221 -5.28736,0.0413 -10.7723,0.90233 -16.44189,3.15175 -0.86195,0.34205 -1.3931,0.9694 -1.3932,1.65209 -10e-5,-0.68269 -0.53073,-1.31004 -1.39268,-1.65209 -5.66959,-2.24942 -11.15453,-3.11045 -16.44189,-3.15175 z m -0.40256,3.75326 c 4.11133,0.0327 8.13713,0.61403 12.51241,2.2014101 l -1.85828,66.51119 c -5.61843,-2.17656 -11.10948,-3.07612 -16.46824,-3.13262 -8.3391,-0.0879 -16.50287,1.75955 -24.84655,3.69124 -14.893634,3.44809 -30.304494,7.2375 -47.111864,2.63447 l 23.84403,-68.18809 c 13.756754,2.42955 26.240494,0.11994 36.842714,-1.74873 6.17801,-1.0888901 11.77137,-2.0111701 17.08578,-1.9688701 z m 36.47478,0 c 5.31441,-0.0423 10.90776,0.87998 17.08577,1.9688701 10.60222,1.86867 23.08597,4.17828 36.84272,1.74873 l 23.84402,68.18809 c -16.80737,4.60303 -32.21822,0.81362 -47.11185,-2.63447 -8.34368,-1.93169 -16.50745,-3.77914 -24.84655,-3.69124 -5.35876,0.0565 -10.84981,0.95606 -16.46824,3.13262 l -1.85829,-66.51119 c 4.37528,-1.5873801 8.40109,-2.1686901 12.51242,-2.2014101 z m -36.72799,3.5625701 c -6.41298,-0.0519 -12.64023,1.03867 -18.98283,2.17506 -9.5607,1.71296 -19.34042,3.56712 -30.160434,2.44171 l -1.35857,4.2354 c 11.987634,1.10585 22.880574,-0.96756 32.331364,-2.6944 6.41814,-1.17271 12.22596,-2.16579 17.73948,-2.12029 2.3171,0.0191 4.60504,0.21421 6.93292,0.65836 l 0.23667,-4.16822 c -2.27299,-0.34433 -4.52023,-0.50962 -6.7386,-0.52762 z m 36.9812,0 c -2.21838,0.018 -4.46562,0.18329 -6.73861,0.52762 l 0.23668,4.16822 c 2.32788,-0.44415 4.61581,-0.63923 6.93291,-0.65836 5.51352,-0.0455 11.32135,0.94758 17.73949,2.12029 9.45079,1.72684 20.34373,3.80025 32.33136,2.6944 l -1.35858,-4.2354 C 18.609254,17.992849 8.829544,16.138689 -0.73116604,14.425729 -7.073766,13.289339 -13.301006,12.198719 -19.713986,12.250669 Z m -38.26278,14.29525 c -6.85705,-0.0594 -13.52851,1.18794 -20.32847,2.48874 -10.25994,1.96267 -20.76898,4.09012 -32.333954,2.7988 l -1.56011,4.8643 c 12.834064,1.2725 24.554914,-1.11256 34.710544,-3.09645 6.89006,-1.34597 13.12033,-2.48461 19.02365,-2.43241 2.48098,0.0219 4.92933,0.2456 7.42022,0.75499 l 0.2713,-4.77439 c -2.42924,-0.39382 -4.83112,-0.58308 -7.20318,-0.60358 z m 39.54436,0 c -2.37206,0.0205 -4.77394,0.20976 -7.20318,0.60358 l 0.2713,4.77439 c 2.49089,-0.50939 4.93924,-0.73305 7.42022,-0.75499 5.90332,-0.0522 12.13358,1.08644 19.02364,2.43241 10.15563,1.98389 21.87648,4.36895 34.71055,3.09645 l -1.56012,-4.8643 c -11.56497,1.29132 -22.074,-0.83613 -32.33394,-2.7988 -6.79997,-1.3008 -13.47143,-2.54815 -20.32847,-2.48874 z m -41.01714,16.42484 c -7.36721,-0.0686 -14.55044,1.37213 -21.87877,2.87579 -11.06936,2.27125 -22.424944,4.73644 -34.844904,3.2396 l -1.81126,5.64565 c 13.80897,1.47988 26.495124,-1.29274 37.469034,-3.59565 7.43683,-1.56067 14.15484,-2.88048 20.50728,-2.81998 2.66979,0.0254 5.3035,0.28474 7.98194,0.87488 l 0.31419,-5.52369 c -2.60858,-0.45479 -5.1889,-0.6729 -7.73751,-0.6966 z m 42.48991,0 c -2.54861,0.0237 -5.12893,0.24181 -7.73751,0.6966 l 0.31419,5.52369 c 2.67844,-0.59014 5.31216,-0.84947 7.98195,-0.87488 6.35243,-0.0605 13.07044,1.25931 20.50727,2.81998 10.97391,2.30291 23.66007,5.07553 37.46903,3.59565 l -1.81126,-5.64565 c -12.41996,1.49684 -23.77554,-0.96835 -34.8449,-3.2396 -7.32833,-1.50366 -14.51156,-2.94438 -21.87877,-2.87579 z m -44.19988,19.0686 c -7.95938,-0.0801 -15.73925,1.60257 -23.68486,3.36052 -12.01717,2.65876 -24.367864,5.54921 -37.779094,3.79357 l -2.12701,6.63112 c 14.94397,1.74243 28.767614,-1.52101 40.702954,-4.22662 8.07775,-1.83115 15.36601,-3.37757 22.24154,-3.30677 2.88971,0.0298 5.73912,0.33353 8.63564,1.02526 l 0.36742,-6.46369 c -2.81648,-0.53111 -5.60305,-0.78569 -8.35659,-0.81339 z m 45.90986,0 c -2.75354,0.0277 -5.54012,0.28228 -8.3566,0.81339 l 0.36742,6.46369 c 2.89653,-0.69173 5.74594,-0.99548 8.63565,-1.02526 6.87553,-0.0708 14.16378996,1.47562 22.24154,3.30677 11.93533,2.70561 25.75897,5.96905 40.70294,4.22662 l -2.127,-6.63112 c -13.41123,1.75564 -25.76192,-1.13481 -37.77909,-3.79357 -7.94561004,-1.75795 -15.72549,-3.44059 -23.68486,-3.36052 z m -127.809784,22.98103 c 0.003,0.0142 0.006,0.0283 0.01,0.0424 -0.003,-0.0141 -0.007,-0.0282 -0.01,-0.0424 z m 209.529344,0.50953 c -0.002,0.004 -0.004,0.008 -0.006,0.0119 0.002,-0.004 0.004,-0.008 0.006,-0.0119 z m -209.282844,0.12764 c 0.004,0.007 0.009,0.0133 0.0129,0.0202 -0.004,-0.007 -0.009,-0.0132 -0.0129,-0.0202 z m 209.159854,0.0899 c -0.004,0.007 -0.008,0.0132 -0.0124,0.0196 0.004,-0.006 0.008,-0.0131 0.0124,-0.0196 z m -208.987254,0.16226 c 0.0125,0.0159 0.0248,0.0319 0.0377,0.0475 -0.0129,-0.0156 -0.0252,-0.0316 -0.0377,-0.0475 z m 208.842554,0.0357 c -0.008,0.0102 -0.0158,0.0209 -0.0243,0.031 0.008,-0.0101 0.016,-0.0208 0.0243,-0.031 z m -0.1726,0.1881 c -0.0103,0.0101 -0.0199,0.0206 -0.0305,0.0305 0.0106,-0.01 0.0201,-0.0204 0.0305,-0.0305 z m -0.19172,0.1664 c -0.0146,0.0113 -0.028,0.0236 -0.0429,0.0346 0.0149,-0.011 0.0283,-0.0233 0.0429,-0.0346 z m -207.978524,0.0796 c 0.0202,0.0139 0.0417,0.0269 0.0625,0.0403 -0.0208,-0.0135 -0.0423,-0.0263 -0.0625,-0.0403 z m 207.763554,0.0698 c -0.0184,0.0113 -0.0355,0.0237 -0.0543,0.0346 0.0188,-0.0109 0.0359,-0.0233 0.0543,-0.0346 z m -207.478294,0.0987 c 0.0259,0.0132 0.0514,0.0267 0.078,0.0393 -0.0266,-0.0126 -0.0521,-0.026 -0.078,-0.0393 z m 98.947964,0.0785 c 0.16651,0.0318 0.33518,0.0534 0.50437,0.0646 -0.16919,-0.0112 -0.33786,-0.0328 -0.50437,-0.0646 z"
       id="path921" />
    <path
       id="path923"
       d="m -286.21845,4.9348389 c -6.18568,-0.0483 -12.1866,0.96549 -18.29604,2.0221 -11.38565,1.9691 -23.08656,4.1399001 -36.46857,1.05265 -0.7913,-0.18242 -1.76399,-0.0791 -2.62258,0.27905 -0.86164,0.35938 -1.50927,0.93412 -1.7415,1.54874 l -27.72648,73.4239501 c -0.11933,0.31609 -0.18909,0.62494 -0.216,0.92139 l -0.002,-5.2e-4 v 0.0326 c -0.0133,0.16666 -0.0138,0.32907 0.001,0.48627 l 0.0191,11.36985 c -0.0405,0.28918 -0.0398,0.56717 0.002,0.82889 v 0.0129 h 0.002 c 0.13993,0.85679 0.70704,1.53599 1.62884,1.84226 20.0548,6.662851 39.21791,1.845371 55.13773,-1.93528 8.49227,-2.01672 16.14891,-3.71902 23.36085,-3.64112 6.16638,0.0667 12.17553,1.34634 18.85931,5.05602 1.19927,0.66545 2.70146,0.67319 3.92741,0.0207 1.22025,-0.64953 1.97011,-1.84913 1.97042,-3.13676 3.1e-4,1.28763 0.75069,2.48723 1.97094,3.13676 1.22595,0.65255 2.72813,0.64481 3.92741,-0.0207 6.68378,-3.70968 12.69292,-4.98937 18.85931,-5.05602 7.21193,-0.0779 14.86858,1.6244 23.36085,3.64112 15.91982,3.780651 35.08242,8.598131 55.1372,1.93528 0.73376,-0.24379 1.24262,-0.72384 1.49087,-1.34152 h 0.002 v -0.004 c 0.22126,-0.55364 0.23095,-1.21798 0.005,-1.92236 l 0.0238,-10.1875 h -0.003 c 0.21311,-0.58885 0.19765,-1.29419 -0.0832,-2.03811 L -191.41979,9.8373789 c -0.23223,-0.61462 -0.87935,-1.18936 -1.74098,-1.54874 -0.85859,-0.35812 -1.83129,-0.46147 -2.62258,-0.27905 -13.38202,3.0872501 -25.08292,0.91645 -36.46857,-1.05265 -6.10944,-1.05661 -12.11036,-2.07044 -18.29604,-2.0221 -5.28736,0.0413 -10.7723,0.90233 -16.44189,3.15175 -0.86195,0.34205 -1.3931,0.9694 -1.3932,1.65209 -10e-5,-0.68269 -0.53073,-1.31004 -1.39268,-1.65209 -5.66959,-2.24942 -11.15453,-3.11045 -16.44189,-3.15175 z m -0.40256,3.75326 c 4.11133,0.0327 8.13713,0.61403 12.51241,2.2014101 l -1.85828,66.51119 c -5.61843,-2.17656 -11.10948,-3.07612 -16.46824,-3.13262 -8.3391,-0.0879 -16.50287,1.75955 -24.84655,3.69124 -14.89363,3.44809 -30.30449,7.2375 -47.11186,2.63447 l 23.84403,-68.18809 c 13.75675,2.42955 26.24049,0.11994 36.84271,-1.74873 6.17801,-1.0888901 11.77137,-2.0111701 17.08578,-1.9688701 z m 36.47478,0 c 5.31441,-0.0423 10.90776,0.87998 17.08577,1.9688701 10.60222,1.86867 23.08597,4.17828 36.84272,1.74873 l 23.84402,68.18809 c -16.80737,4.60303 -32.21822,0.81362 -47.11185,-2.63447 -8.34368,-1.93169 -16.50745,-3.77914 -24.84655,-3.69124 -5.35876,0.0565 -10.84981,0.95606 -16.46824,3.13262 l -1.85829,-66.51119 c 4.37528,-1.5873801 8.40109,-2.1686901 12.51242,-2.2014101 z m -36.72799,3.5625701 c -6.41298,-0.0519 -12.64023,1.03867 -18.98283,2.17506 -9.5607,1.71296 -19.34042,3.56712 -30.16043,2.44171 l -1.35857,4.2354 c 11.98763,1.10585 22.88057,-0.96756 32.33136,-2.6944 6.41814,-1.17271 12.22596,-2.16579 17.73948,-2.12029 2.3171,0.0191 4.60504,0.21421 6.93292,0.65836 l 0.23667,-4.16822 c -2.27299,-0.34433 -4.52023,-0.50962 -6.7386,-0.52762 z m 36.9812,0 c -2.21838,0.018 -4.46562,0.18329 -6.73861,0.52762 l 0.23668,4.16822 c 2.32788,-0.44415 4.61581,-0.63923 6.93291,-0.65836 5.51352,-0.0455 11.32135,0.94758 17.73949,2.12029 9.45079,1.72684 20.34373,3.80025 32.33136,2.6944 l -1.35858,-4.2354 c -10.82001,1.12541 -20.59972,-0.72875 -30.16043,-2.44171 -6.3426,-1.13639 -12.56984,-2.22701 -18.98282,-2.17506 z m -38.26278,14.29525 c -6.85705,-0.0594 -13.52851,1.18794 -20.32847,2.48874 -10.25994,1.96267 -20.76898,4.09012 -32.33395,2.7988 l -1.56011,4.8643 c 12.83406,1.2725 24.55491,-1.11256 34.71054,-3.09645 6.89006,-1.34597 13.12033,-2.48461 19.02365,-2.43241 2.48098,0.0219 4.92933,0.2456 7.42022,0.75499 l 0.2713,-4.77439 c -2.42924,-0.39382 -4.83112,-0.58308 -7.20318,-0.60358 z m 39.54436,0 c -2.37206,0.0205 -4.77394,0.20976 -7.20318,0.60358 l 0.2713,4.77439 c 2.49089,-0.50939 4.93924,-0.73305 7.42022,-0.75499 5.90332,-0.0522 12.13358,1.08644 19.02364,2.43241 10.15563,1.98389 21.87648,4.36895 34.71055,3.09645 l -1.56012,-4.8643 c -11.56497,1.29132 -22.074,-0.83613 -32.33394,-2.7988 -6.79997,-1.3008 -13.47143,-2.54815 -20.32847,-2.48874 z m -41.01714,16.42484 c -7.36721,-0.0686 -14.55044,1.37213 -21.87877,2.87579 -11.06936,2.27125 -22.42494,4.73644 -34.8449,3.2396 l -1.81126,5.64565 c 13.80897,1.47988 26.49512,-1.29274 37.46903,-3.59565 7.43683,-1.56067 14.15484,-2.88048 20.50728,-2.81998 2.66979,0.0254 5.3035,0.28474 7.98194,0.87488 l 0.31419,-5.52369 c -2.60858,-0.45479 -5.1889,-0.6729 -7.73751,-0.6966 z m 42.48991,0 c -2.54861,0.0237 -5.12893,0.24181 -7.73751,0.6966 l 0.31419,5.52369 c 2.67844,-0.59014 5.31216,-0.84947 7.98195,-0.87488 6.35243,-0.0605 13.07044,1.25931 20.50727,2.81998 10.97391,2.30291 23.66007,5.07553 37.46903,3.59565 l -1.81126,-5.64565 c -12.41996,1.49684 -23.77554,-0.96835 -34.8449,-3.2396 -7.32833,-1.50366 -14.51156,-2.94438 -21.87877,-2.87579 z m -44.19988,19.0686 c -7.95938,-0.0801 -15.73925,1.60257 -23.68486,3.36052 -12.01717,2.65876 -24.36786,5.54921 -37.77909,3.79357 l -2.12701,6.63112 c 14.94397,1.74243 28.76761,-1.52101 40.70295,-4.22662 8.07775,-1.83115 15.36601,-3.37757 22.24154,-3.30677 2.88971,0.0298 5.73912,0.33353 8.63564,1.02526 l 0.36742,-6.46369 c -2.81648,-0.53111 -5.60305,-0.78569 -8.35659,-0.81339 z m 45.90986,0 c -2.75354,0.0277 -5.54012,0.28228 -8.3566,0.81339 l 0.36742,6.46369 c 2.89653,-0.69173 5.74594,-0.99548 8.63565,-1.02526 6.87553,-0.0708 14.16379,1.47562 22.24154,3.30677 11.93533,2.70561 25.75897,5.96905 40.70294,4.22662 l -2.127,-6.63112 c -13.41123,1.75564 -25.76192,-1.13481 -37.77909,-3.79357 -7.94561,-1.75795 -15.72549,-3.44059 -23.68486,-3.36052 z m -127.80978,22.98103 c 0.003,0.0142 0.006,0.0283 0.01,0.0424 -0.003,-0.0141 -0.007,-0.0282 -0.01,-0.0424 z m 209.52934,0.50953 c -0.002,0.004 -0.004,0.008 -0.006,0.0119 0.002,-0.004 0.004,-0.008 0.006,-0.0119 z m -209.28284,0.12764 c 0.004,0.007 0.009,0.0133 0.0129,0.0202 -0.004,-0.007 -0.009,-0.0132 -0.0129,-0.0202 z m 209.15985,0.0899 c -0.004,0.007 -0.008,0.0132 -0.0124,0.0196 0.004,-0.006 0.008,-0.0131 0.0124,-0.0196 z m -208.98725,0.16226 c 0.0125,0.0159 0.0248,0.0319 0.0377,0.0475 -0.0129,-0.0156 -0.0252,-0.0316 -0.0377,-0.0475 z m 208.84255,0.0357 c -0.008,0.0102 -0.0158,0.0209 -0.0243,0.031 0.008,-0.0101 0.016,-0.0208 0.0243,-0.031 z m -0.1726,0.1881 c -0.0103,0.0101 -0.0199,0.0206 -0.0305,0.0305 0.0106,-0.01 0.0201,-0.0204 0.0305,-0.0305 z m -0.19172,0.1664 c -0.0146,0.0113 -0.028,0.0236 -0.0429,0.0346 0.0149,-0.011 0.0283,-0.0233 0.0429,-0.0346 z m -207.97852,0.0796 c 0.0202,0.0139 0.0417,0.0269 0.0625,0.0403 -0.0208,-0.0135 -0.0423,-0.0263 -0.0625,-0.0403 z m 207.76355,0.0698 c -0.0184,0.0113 -0.0355,0.0237 -0.0543,0.0346 0.0188,-0.0109 0.0359,-0.0233 0.0543,-0.0346 z m -207.47829,0.0987 c 0.0259,0.0132 0.0514,0.0267 0.078,0.0393 -0.0266,-0.0126 -0.0521,-0.026 -0.078,-0.0393 z m 98.94796,0.0785 c 0.16651,0.0318 0.33518,0.0534 0.50437,0.0646 -0.16919,-0.0112 -0.33786,-0.0328 -0.50437,-0.0646 z"
       style="color:#000000;font-style:normal;font-variant:normal;font-weight:normal;font-stretch:normal;font-size:medium;line-height:normal;font-family:sans-serif;font-variant-ligatures:normal;font-variant-position:normal;font-variant-caps:normal;font-variant-numeric:normal;font-variant-alternates:normal;font-feature-settings:normal;text-indent:0;text-align:start;text-decoration:none;text-decoration-line:none;text-decoration-style:solid;text-decoration-color:#000000;letter-spacing:normal;word-spacing:normal;text-transform:none;writing-mode:lr-tb;direction:ltr;text-orientation:mixed;dominant-baseline:auto;baseline-shift:baseline;text-anchor:start;white-space:normal;shape-padding:0;clip-rule:nonzero;display:inline;overflow:visible;visibility:visible;opacity:1;isolation:auto;mix-blend-mode:normal;color-interpolation:sRGB;color-interpolation-filters:linearRGB;solid-color:#000000;solid-opacity:1;vector-effect:none;fill:#550000;fill-opacity:1;fill-rule:nonzero;stroke:none;stroke-width:7.9375;stroke-linecap:round;stroke-linejoin:round;stroke-miterlimit:4;stroke-dasharray:none;stroke-dashoffset:0;stroke-opacity:1;color-rendering:auto;image-rendering:auto;shape-rendering:auto;text-rendering:auto;enable-background:accumulate"
       inkscape:connector-curvature="0"
       inkscape:transform-center-y="5.5179906" />
  </g>
</svg>
