<?xml version="1.0" encoding="UTF-8" standalone="no"?>
<svg
   xmlns:dc="http://purl.org/dc/elements/1.1/"
   xmlns:cc="http://creativecommons.org/ns#"
   xmlns:rdf="http://www.w3.org/1999/02/22-rdf-syntax-ns#"
   xmlns:svg="http://www.w3.org/2000/svg"
   xmlns="http://www.w3.org/2000/svg"
   width="2562.8201"
   height="827.44781"
   viewBox="0 0 678.07946 218.92891"
   version="1.1"
   id="svg8">
  <defs
     id="defs2" />
  <metadata
     id="metadata5">
    <rdf:RDF>
      <cc:Work
         rdf:about="">
        <dc:format>image/svg+xml</dc:format>
        <dc:type
           rdf:resource="http://purl.org/dc/dcmitype/StillImage" />
        <dc:title></dc:title>
      </cc:Work>
    </rdf:RDF>
  </metadata>
  <g
     transform="translate(373.30166,-4.9331767)"
     id="layer1">
    <path
       id="rect815"
       transform="scale(0.26458333)"
       d="m -149.23633,478.96289 c -23.37895,-0.1827 -46.05959,3.64909 -69.15039,7.64258 -43.03238,7.44227 -87.25627,15.64686 -137.83398,3.97851 -2.99071,-0.68946 -6.66705,-0.29883 -9.91211,1.05469 -3.25656,1.35829 -5.70431,3.53054 -6.58203,5.85352 L -477.50781,775 c -0.45102,1.19467 -0.71467,2.36198 -0.81641,3.48242 l -0.008,-0.002 v 0.12305 c -0.0504,0.62992 -0.052,1.24373 0.004,1.83789 l 0.0723,42.97265 c -0.1532,1.09297 -0.15047,2.14363 0.006,3.13282 v 0.0488 h 0.006 c 0.52886,3.23827 2.67226,5.80531 6.15625,6.96289 75.79767,25.18243 148.22513,6.97462 208.39453,-7.31445 32.09677,-7.62225 61.03528,-14.05614 88.29297,-13.76172 23.30604,0.2521 46.01777,5.08854 71.2793,19.10938 4.532688,2.51508 10.210234,2.54434 14.843746,0.0781 4.611969,-2.45491 7.446094,-6.98883 7.447266,-11.85547 0.0012,4.86664 2.83725,9.40056 7.449219,11.85547 4.633511,2.46633 10.311038,2.43708 14.84375,-0.0781 25.261524,-14.02084 47.973256,-18.85747 71.279297,-19.10938 27.257667,-0.29442 56.196184,6.13947 88.292972,13.76172 60.16939,14.28907 132.59496,32.49688 208.39257,7.31445 2.77327,-0.92143 4.6965,-2.73577 5.63477,-5.07031 h 0.006 v -0.0156 c 0.83627,-2.09248 0.87289,-4.60337 0.0176,-7.26563 l 0.0898,-38.50391 h -0.0117 c 0.80545,-2.22557 0.74702,-4.89144 -0.31445,-7.70312 L 209.05469,497.49219 c -0.87772,-2.32298 -3.32353,-4.49523 -6.58008,-5.85352 -3.24507,-1.35352 -6.92141,-1.74415 -9.91211,-1.05469 -50.57771,11.66835 -94.801608,3.46376 -137.833984,-3.97851 -23.090797,-3.99349 -45.7714434,-7.82528 -69.150391,-7.64258 -19.983723,0.1561 -40.714207,3.4104 -62.142578,11.91211 -3.257764,1.29279 -5.265247,3.66389 -5.265625,6.24414 -3.78e-4,-2.58025 -2.005908,-4.95135 -5.263672,-6.24414 -21.42837,-8.50171 -42.15886,-11.75601 -62.14258,-11.91211 z m -1.52148,14.18555 c 15.53888,0.12366 30.75452,2.32076 47.29101,8.32031 l -7.02343,251.38086 c -21.23502,-8.22637 -41.98861,-11.6263 -62.24219,-11.83984 -31.51786,-0.33222 -62.37305,6.65029 -93.9082,13.95117 -56.29089,13.03215 -114.53663,27.35431 -178.06055,9.95703 l 90.11914,-257.71875 c 51.99401,9.18255 99.17666,0.45331 139.24805,-6.60938 23.34995,-4.11549 44.49021,-7.60128 64.57617,-7.4414 z m 137.857419,0 c 20.0859595,-0.15988 41.226214,3.32591 64.576172,7.4414 40.071383,7.06269 87.254029,15.79193 139.248049,6.60938 l 90.11914,257.71875 c -63.52392,17.39728 -121.76966,3.07512 -178.06055,-9.95703 -31.535165,-7.30088 -62.390359,-14.28339 -93.9082012,-13.95117 -20.2535808,0.21354 -41.0071768,3.61347 -62.2421878,11.83984 l -7.023437,-251.38086 c 16.53649,-5.99955 31.752131,-8.19665 47.291015,-8.32031 z m -138.814449,13.46484 c -24.23804,-0.19635 -47.77407,3.92569 -71.7461,8.2207 -36.13496,6.47418 -73.09767,13.48204 -113.99218,9.22852 l -5.13477,16.00781 c 45.30758,4.17959 86.47774,-3.65695 122.19727,-10.18359 24.25752,-4.43229 46.20837,-8.18564 67.04687,-8.01367 8.75754,0.0723 17.40484,0.8096 26.20313,2.48828 l 0.89453,-15.75391 c -8.59083,-1.3014 -17.08433,-1.92611 -25.46875,-1.99414 z m 139.771481,0 c -8.384429,0.068 -16.877923,0.69274 -25.46875,1.99414 l 0.894531,15.75391 c 8.798286,-1.67868 17.445582,-2.41598 26.203125,-2.48828 20.838501,-0.17197 42.789338,3.58138 67.046875,8.01367 35.71952,6.52664 76.889688,14.36318 122.197268,10.18359 l -5.13477,-16.00781 c -40.89452,4.25352 -77.857219,-2.75434 -113.992186,-9.22852 -23.97203,-4.29501 -47.50806,-8.41705 -71.746093,-8.2207 z m -144.615231,54.0293 c -25.91641,-0.22454 -51.13137,4.48984 -76.83203,9.40625 -38.77773,7.41796 -78.49691,15.4587 -122.20704,10.57812 l -5.89648,18.38477 c 48.50668,4.80945 92.80597,-4.20496 131.18945,-11.70313 26.04117,-5.08713 49.58863,-9.39065 71.90039,-9.19336 9.37694,0.0829 18.63055,0.92827 28.04492,2.85352 l 1.0254,-18.04492 c -9.18138,-1.48846 -18.25935,-2.20377 -27.22461,-2.28125 z m 149.4589806,0 c -8.9652656,0.0775 -18.0432296,0.79279 -27.2246096,2.28125 l 1.025391,18.04492 c 9.414387,-1.92525 18.667989,-2.77059 28.0449218,-2.85352 22.3117602,-0.19729 45.8592202,4.10623 71.9003902,9.19336 38.383486,7.49817 82.682766,16.51258 131.189456,11.70313 l -5.89649,-18.38477 c -43.71012,4.88058 -83.4293,-3.16016 -122.207028,-10.57812 -25.700674,-4.91641 -50.915637,-9.63079 -76.8320314,-9.40625 z M -162.125,622.7207 c -27.84457,-0.25923 -54.99378,5.18602 -82.69141,10.86914 -41.83695,8.58426 -84.75568,17.90149 -131.69726,12.24414 l -6.84571,21.3379 c 52.19138,5.59323 100.13904,-4.88594 141.61524,-13.58985 28.1077,-5.89859 53.49859,-10.88686 77.50781,-10.6582 10.09055,0.096 20.04473,1.07619 30.16797,3.30664 l 1.1875,-20.87695 c -9.8592,-1.7189 -19.6116,-2.54324 -29.24414,-2.63282 z m 160.5917969,0 c -9.6325419,0.0896 -19.3849409,0.91392 -29.2441409,2.63282 l 1.1875,20.87695 c 10.123238,-2.23045 20.0774243,-3.2106 30.167969,-3.30664 24.009207,-0.22866 49.400109,4.75961 77.507813,10.6582 41.476192,8.70391 89.423862,19.18308 141.615232,13.58985 l -6.8457,-21.3379 C 165.91389,651.49133 122.99515,642.1741 81.158203,633.58984 53.460579,627.90672 26.311355,622.46147 -1.5332031,622.7207 Z M -168.58789,694.79102 c -30.0827,-0.30263 -59.48693,6.05695 -89.51758,12.70117 -45.41922,10.04885 -92.09901,20.97338 -142.78711,14.33789 l -8.03906,25.0625 c 56.48113,6.58556 108.72794,-5.74872 153.83789,-15.97461 30.53008,-6.92088 58.07624,-12.76564 84.0625,-12.49805 10.92174,0.11256 21.69116,1.26059 32.63867,3.875 l 1.38867,-24.42969 c -10.64496,-2.00734 -21.1769,-2.96952 -31.58398,-3.07421 z m 173.5175775,0 c -10.4070801,0.10469 -20.9390205,1.06687 -31.5839845,3.07421 l 1.388672,24.42969 c 10.947515,-2.61441 21.7169334,-3.76244 32.6386719,-3.875 25.9862401,-0.26759 53.5324211,5.57717 84.0625001,12.49805 45.109943,10.22589 97.356753,22.56017 153.837893,15.97461 l -8.03906,-25.0625 C 186.54627,728.46557 139.86649,717.54104 94.447266,707.49219 64.416614,700.84797 35.012368,694.48839 4.9296875,694.79102 Z M -478.13086,781.64844 c 0.0121,0.0535 0.024,0.10702 0.0371,0.16015 -0.0131,-0.0532 -0.025,-0.10656 -0.0371,-0.16015 z m 791.92188,1.92578 c -0.007,0.0149 -0.014,0.0301 -0.0215,0.0449 0.007,-0.0148 0.0141,-0.03 0.0215,-0.0449 z m -790.99024,0.48242 c 0.0151,0.0261 0.0334,0.0502 0.0488,0.0762 -0.0154,-0.026 -0.0337,-0.05 -0.0488,-0.0762 z m 790.52539,0.33984 c -0.0158,0.0246 -0.0308,0.0498 -0.0469,0.0742 0.0161,-0.0244 0.031,-0.0496 0.0469,-0.0742 z m -789.87305,0.61329 c 0.0471,0.0602 0.0937,0.12072 0.14258,0.17968 -0.0489,-0.0591 -0.0954,-0.11936 -0.14258,-0.17968 z m 789.32618,0.13476 c -0.0314,0.0385 -0.0597,0.0792 -0.0918,0.11719 0.0322,-0.038 0.0604,-0.0787 0.0918,-0.11719 z m -0.65235,0.71094 c -0.039,0.038 -0.0754,0.0778 -0.11523,0.11523 0.04,-0.0373 0.0761,-0.0773 0.11523,-0.11523 z m -0.72461,0.62891 c -0.055,0.0429 -0.10576,0.0891 -0.16211,0.13085 0.0564,-0.0417 0.10697,-0.0881 0.16211,-0.13085 z m -786.06054,0.30078 c 0.0764,0.0527 0.15775,0.10159 0.23632,0.15234 -0.0788,-0.0509 -0.15979,-0.0995 -0.23632,-0.15234 z m 785.24804,0.26367 c -0.0694,0.0428 -0.13402,0.0895 -0.20507,0.13086 0.071,-0.0412 0.13569,-0.0882 0.20507,-0.13086 z m -784.16992,0.37305 c 0.0978,0.05 0.19437,0.10107 0.29492,0.14843 -0.10069,-0.0474 -0.19703,-0.0983 -0.29492,-0.14843 z m 373.976564,0.29687 c 0.629309,0.12007 1.266817,0.20187 1.90625,0.24414 -0.639433,-0.0423 -1.276941,-0.12407 -1.90625,-0.24414 z"
       style="color:#000000;font-style:normal;font-variant:normal;font-weight:normal;font-stretch:normal;font-size:medium;line-height:normal;font-family:sans-serif;font-variant-ligatures:normal;font-variant-position:normal;font-variant-caps:normal;font-variant-numeric:normal;font-variant-alternates:normal;font-feature-settings:normal;text-indent:0;text-align:start;text-decoration:none;text-decoration-line:none;text-decoration-style:solid;text-decoration-color:#000000;letter-spacing:normal;word-spacing:normal;text-transform:none;writing-mode:lr-tb;direction:ltr;text-orientation:mixed;dominant-baseline:auto;baseline-shift:baseline;text-anchor:start;white-space:normal;shape-padding:0;clip-rule:nonzero;display:inline;overflow:visible;visibility:visible;opacity:1;isolation:auto;mix-blend-mode:normal;color-interpolation:sRGB;color-interpolation-filters:linearRGB;solid-color:#000000;solid-opacity:1;vector-effect:none;fill:#ff0000;fill-opacity:1;fill-rule:nonzero;stroke:none;stroke-width:30;stroke-linecap:round;stroke-linejoin:round;stroke-miterlimit:4;stroke-dasharray:none;stroke-dashoffset:0;stroke-opacity:1;color-rendering:auto;image-rendering:auto;shape-rendering:auto;text-rendering:auto;enable-background:accumulate" />
    <path
       style="color:#000000;font-style:normal;font-variant:normal;font-weight:normal;font-stretch:normal;font-size:medium;line-height:normal;font-family:sans-serif;font-variant-ligatures:normal;font-variant-position:normal;font-variant-caps:normal;font-variant-numeric:normal;font-variant-alternates:normal;font-feature-settings:normal;text-indent:0;text-align:start;text-decoration:none;text-decoration-line:none;text-decoration-style:solid;text-decoration-color:#000000;letter-spacing:normal;word-spacing:normal;text-transform:none;writing-mode:lr-tb;direction:ltr;text-orientation:mixed;dominant-baseline:auto;baseline-shift:baseline;text-anchor:start;white-space:normal;shape-padding:0;clip-rule:nonzero;display:inline;overflow:visible;visibility:visible;opacity:1;isolation:auto;mix-blend-mode:normal;color-interpolation:sRGB;color-interpolation-filters:linearRGB;solid-color:#000000;solid-opacity:1;vector-effect:none;fill:#0000ff;fill-opacity:1;fill-rule:nonzero;stroke:none;stroke-width:7.9375;stroke-linecap:round;stroke-linejoin:round;stroke-miterlimit:4;stroke-dasharray:none;stroke-dashoffset:0;stroke-opacity:1;color-rendering:auto;image-rendering:auto;shape-rendering:auto;text-rendering:auto;enable-background:accumulate"
       d="m -272.02933,126.33063 c -6.18568,-0.0483 -12.1866,0.96549 -18.29604,2.0221 -11.38565,1.9691 -23.08656,4.1399 -36.46857,1.05265 -0.7913,-0.18242 -1.76399,-0.0791 -2.62258,0.27905 -0.86164,0.35938 -1.50927,0.93412 -1.7415,1.54874 l -27.72648,73.42395 c -0.11933,0.31609 -0.18909,0.62494 -0.216,0.92139 l -0.002,-5.2e-4 v 0.0326 c -0.0133,0.16666 -0.0138,0.32907 0.001,0.48627 l 0.0191,11.36985 c -0.0405,0.28918 -0.0398,0.56717 0.002,0.82889 v 0.0129 h 0.002 c 0.13993,0.85679 0.70704,1.53599 1.62884,1.84226 20.0548,6.66285 39.21791,1.84537 55.13773,-1.93528 8.49227,-2.01672 16.14891,-3.71902 23.36085,-3.64112 6.16638,0.0667 12.17553,1.34634 18.85931,5.05602 1.19927,0.66545 2.70146,0.67319 3.92741,0.0207 1.22025,-0.64953 1.97011,-1.84913 1.97042,-3.13676 3.1e-4,1.28763 0.75069,2.48723 1.97094,3.13676 1.22595,0.65255 2.72813,0.64481 3.92741,-0.0207 6.68378,-3.70968 12.69292,-4.98937 18.85931,-5.05602 7.21193,-0.0779 14.86858,1.6244 23.36085,3.64112 15.91982,3.78065 35.08242,8.59813 55.1372,1.93528 0.73376,-0.24379 1.24262,-0.72384 1.49087,-1.34152 h 0.002 v -0.004 c 0.22126,-0.55364 0.23095,-1.21798 0.005,-1.92236 l 0.0238,-10.1875 h -0.003 c 0.21311,-0.58885 0.19765,-1.29419 -0.0832,-2.03811 l -27.72801,-73.4241 c -0.23223,-0.61462 -0.87935,-1.18936 -1.74098,-1.54874 -0.85859,-0.35812 -1.83129,-0.46147 -2.62258,-0.27905 -13.38202,3.08725 -25.08292,0.91645 -36.46857,-1.05265 -6.10944,-1.05661 -12.11036,-2.07044 -18.29604,-2.0221 -5.28736,0.0413 -10.7723,0.90233 -16.44189,3.15175 -0.86195,0.34205 -1.3931,0.9694 -1.3932,1.65209 -1e-4,-0.68269 -0.53073,-1.31004 -1.39268,-1.65209 -5.66959,-2.24942 -11.15453,-3.11045 -16.44189,-3.15175 z m -0.40256,3.75326 c 4.11133,0.0327 8.13713,0.61403 12.51241,2.20141 l -1.85828,66.51119 c -5.61843,-2.17656 -11.10948,-3.07612 -16.46824,-3.13262 -8.3391,-0.0879 -16.50287,1.75955 -24.84655,3.69124 -14.89363,3.44809 -30.30449,7.2375 -47.11186,2.63447 l 23.84403,-68.18809 c 13.75675,2.42955 26.24049,0.11994 36.84271,-1.74873 6.17801,-1.08889 11.77137,-2.01117 17.08578,-1.96887 z m 36.47478,0 c 5.31441,-0.0423 10.90776,0.87998 17.08577,1.96887 10.60222,1.86867 23.08597,4.17828 36.84272,1.74873 l 23.84402,68.18809 c -16.80737,4.60303 -32.21822,0.81362 -47.11185,-2.63447 -8.34368,-1.93169 -16.50745,-3.77914 -24.84655,-3.69124 -5.35876,0.0565 -10.84981,0.95606 -16.46824,3.13262 l -1.85829,-66.51119 c 4.37528,-1.58738 8.40109,-2.16869 12.51242,-2.20141 z m -36.72799,3.56257 c -6.41298,-0.0519 -12.64023,1.03867 -18.98283,2.17506 -9.5607,1.71296 -19.34042,3.56712 -30.16043,2.44171 l -1.35857,4.2354 c 11.98763,1.10585 22.88057,-0.96756 32.33136,-2.6944 6.41814,-1.17271 12.22596,-2.16579 17.73948,-2.12029 2.3171,0.0191 4.60504,0.21421 6.93292,0.65836 l 0.23667,-4.16822 c -2.27299,-0.34433 -4.52023,-0.50962 -6.7386,-0.52762 z m 36.9812,0 c -2.21838,0.018 -4.46562,0.18329 -6.73861,0.52762 l 0.23668,4.16822 c 2.32788,-0.44415 4.61581,-0.63923 6.93291,-0.65836 5.51352,-0.0455 11.32135,0.94758 17.73949,2.12029 9.45079,1.72684 20.34373,3.80025 32.33136,2.6944 l -1.35858,-4.2354 c -10.82001,1.12541 -20.59972,-0.72875 -30.16043,-2.44171 -6.3426,-1.13639 -12.56984,-2.22701 -18.98282,-2.17506 z m -38.26278,14.29525 c -6.85705,-0.0594 -13.52851,1.18794 -20.32847,2.48874 -10.25994,1.96267 -20.76898,4.09012 -32.33395,2.7988 l -1.56011,4.8643 c 12.83406,1.2725 24.55491,-1.11256 34.71054,-3.09645 6.89006,-1.34597 13.12033,-2.48461 19.02365,-2.43241 2.48098,0.0219 4.92933,0.2456 7.42022,0.75499 l 0.2713,-4.77439 c -2.42924,-0.39382 -4.83112,-0.58308 -7.20318,-0.60358 z m 39.54436,0 c -2.37206,0.0205 -4.77394,0.20976 -7.20318,0.60358 l 0.2713,4.77439 c 2.49089,-0.50939 4.93924,-0.73305 7.42022,-0.75499 5.90332,-0.0522 12.13358,1.08644 19.02364,2.43241 10.15563,1.98389 21.87648,4.36895 34.71055,3.09645 l -1.56012,-4.8643 c -11.56497,1.29132 -22.074,-0.83613 -32.33394,-2.7988 -6.79997,-1.3008 -13.47143,-2.54815 -20.32847,-2.48874 z m -41.01714,16.42484 c -7.36721,-0.0686 -14.55044,1.37213 -21.87877,2.87579 -11.06936,2.27125 -22.42494,4.73644 -34.8449,3.2396 l -1.81126,5.64565 c 13.80897,1.47988 26.49512,-1.29274 37.46903,-3.59565 7.43683,-1.56067 14.15484,-2.88048 20.50728,-2.81998 2.66979,0.0254 5.3035,0.28474 7.98194,0.87488 l 0.31419,-5.52369 c -2.60858,-0.45479 -5.1889,-0.6729 -7.73751,-0.6966 z m 42.48991,0 c -2.54861,0.0237 -5.12893,0.24181 -7.73751,0.6966 l 0.31419,5.52369 c 2.67844,-0.59014 5.31216,-0.84947 7.98195,-0.87488 6.35243,-0.0605 13.07044,1.25931 20.50727,2.81998 10.97391,2.30291 23.66007,5.07553 37.46903,3.59565 l -1.81126,-5.64565 c -12.41996,1.49684 -23.77554,-0.96835 -34.8449,-3.2396 -7.32833,-1.50366 -14.51156,-2.94438 -21.87877,-2.87579 z m -44.19988,19.0686 c -7.95938,-0.0801 -15.73925,1.60257 -23.68486,3.36052 -12.01717,2.65876 -24.36786,5.54921 -37.77909,3.79357 l -2.12701,6.63112 c 14.94397,1.74243 28.76761,-1.52101 40.70295,-4.22662 8.07775,-1.83115 15.36601,-3.37757 22.24154,-3.30677 2.88971,0.0298 5.73912,0.33353 8.63564,1.02526 l 0.36742,-6.46369 c -2.81648,-0.53111 -5.60305,-0.78569 -8.35659,-0.81339 z m 45.90986,0 c -2.75354,0.0277 -5.54012,0.28228 -8.3566,0.81339 l 0.36742,6.46369 c 2.89653,-0.69173 5.74594,-0.99548 8.63565,-1.02526 6.87553,-0.0708 14.16379,1.47562 22.24154,3.30677 11.93533,2.70561 25.75897,5.96905 40.70294,4.22662 l -2.127,-6.63112 c -13.41123,1.75564 -25.76192,-1.13481 -37.77909,-3.79357 -7.94561,-1.75795 -15.72549,-3.44059 -23.68486,-3.36052 z m -127.80978,22.98103 c 0.003,0.0142 0.006,0.0283 0.01,0.0424 -0.003,-0.0141 -0.007,-0.0282 -0.01,-0.0424 z m 209.52934,0.50953 c -0.002,0.004 -0.004,0.008 -0.006,0.0119 0.002,-0.004 0.004,-0.008 0.006,-0.0119 z m -209.28284,0.12764 c 0.004,0.007 0.009,0.0133 0.0129,0.0202 -0.004,-0.007 -0.009,-0.0132 -0.0129,-0.0202 z m 209.15985,0.0899 c -0.004,0.007 -0.008,0.0132 -0.0124,0.0196 0.004,-0.006 0.008,-0.0131 0.0124,-0.0196 z m -208.98725,0.16226 c 0.0125,0.0159 0.0248,0.0319 0.0377,0.0475 -0.0129,-0.0156 -0.0252,-0.0316 -0.0377,-0.0475 z m 208.84255,0.0357 c -0.008,0.0102 -0.0158,0.0209 -0.0243,0.031 0.008,-0.0101 0.016,-0.0208 0.0243,-0.031 z m -0.1726,0.1881 c -0.0103,0.0101 -0.0199,0.0206 -0.0305,0.0305 0.0106,-0.01 0.0201,-0.0204 0.0305,-0.0305 z m -0.19172,0.1664 c -0.0146,0.0113 -0.028,0.0236 -0.0429,0.0346 0.0149,-0.011 0.0283,-0.0233 0.0429,-0.0346 z m -207.97852,0.0796 c 0.0202,0.0139 0.0417,0.0269 0.0625,0.0403 -0.0208,-0.0135 -0.0423,-0.0263 -0.0625,-0.0403 z m 207.76355,0.0698 c -0.0184,0.0113 -0.0355,0.0237 -0.0543,0.0346 0.0188,-0.0109 0.0359,-0.0233 0.0543,-0.0346 z m -207.47829,0.0987 c 0.0259,0.0132 0.0514,0.0267 0.078,0.0393 -0.0266,-0.0126 -0.0521,-0.026 -0.078,-0.0393 z m 98.94796,0.0785 c 0.16651,0.0318 0.33518,0.0534 0.50437,0.0646 -0.16919,-0.0112 -0.33786,-0.0328 -0.50437,-0.0646 z"
       id="path915" />
    <path
       id="path917"
       d="m 182.02246,126.33063 c -6.18568,-0.0483 -12.1866,0.96549 -18.29604,2.0221 -11.38565,1.9691 -23.08656,4.1399 -36.46857,1.05265 -0.7913,-0.18242 -1.76399,-0.0791 -2.62258,0.27905 -0.86164,0.35938 -1.50927,0.93412 -1.7415,1.54874 l -27.72648,73.42395 c -0.11933,0.31609 -0.18909,0.62494 -0.216,0.92139 l -0.002,-5.2e-4 v 0.0326 c -0.0133,0.16666 -0.0138,0.32907 10e-4,0.48627 l 0.0191,11.36985 c -0.0405,0.28918 -0.0398,0.56717 0.002,0.82889 v 0.0129 h 0.002 c 0.13993,0.85679 0.70704,1.53599 1.62884,1.84226 20.0548,6.66285 39.21791,1.84537 55.13773,-1.93528 8.49227,-2.01672 16.14891,-3.71902 23.36085,-3.64112 6.16638,0.0667 12.17553,1.34634 18.85931,5.05602 1.19927,0.66545 2.70146,0.67319 3.92741,0.0207 1.22025,-0.64953 1.97011,-1.84913 1.97042,-3.13676 3.1e-4,1.28763 0.75069,2.48723 1.97094,3.13676 1.22595,0.65255 2.72813,0.64481 3.92741,-0.0207 6.68378,-3.70968 12.69292,-4.98937 18.85931,-5.05602 7.21193,-0.0779 14.86858,1.6244 23.36085,3.64112 15.91982,3.78065 35.08242,8.59813 55.1372,1.93528 0.73376,-0.24379 1.24262,-0.72384 1.49087,-1.34152 h 0.002 v -0.004 c 0.22126,-0.55364 0.23095,-1.21798 0.005,-1.92236 l 0.0238,-10.1875 h -0.003 c 0.21311,-0.58885 0.19765,-1.29419 -0.0832,-2.03811 l -27.72801,-73.4241 c -0.23223,-0.61462 -0.87935,-1.18936 -1.74098,-1.54874 -0.85859,-0.35812 -1.83129,-0.46147 -2.62258,-0.27905 -13.38202,3.08725 -25.08292,0.91645 -36.46857,-1.05265 -6.10944,-1.05661 -12.11036,-2.07044 -18.29604,-2.0221 -5.28736,0.0413 -10.7723,0.90233 -16.44189,3.15175 -0.86195,0.34205 -1.3931,0.9694 -1.3932,1.65209 -10e-5,-0.68269 -0.53073,-1.31004 -1.39268,-1.65209 -5.66959,-2.24942 -11.15453,-3.11045 -16.44189,-3.15175 z m -0.40256,3.75326 c 4.11133,0.0327 8.13713,0.61403 12.51241,2.20141 l -1.85828,66.51119 c -5.61843,-2.17656 -11.10948,-3.07612 -16.46824,-3.13262 -8.3391,-0.0879 -16.50287,1.75955 -24.84655,3.69124 -14.89363,3.44809 -30.30449,7.2375 -47.11186,2.63447 l 23.84403,-68.18809 c 13.75675,2.42955 26.24049,0.11994 36.84271,-1.74873 6.17801,-1.08889 11.77137,-2.01117 17.08578,-1.96887 z m 36.47478,0 c 5.31441,-0.0423 10.90776,0.87998 17.08577,1.96887 10.60222,1.86867 23.08597,4.17828 36.84272,1.74873 l 23.84402,68.18809 c -16.80737,4.60303 -32.21822,0.81362 -47.11185,-2.63447 -8.34368,-1.93169 -16.50745,-3.77914 -24.84655,-3.69124 -5.35876,0.0565 -10.84981,0.95606 -16.46824,3.13262 l -1.85829,-66.51119 c 4.37528,-1.58738 8.40109,-2.16869 12.51242,-2.20141 z m -36.72799,3.56257 c -6.41298,-0.0519 -12.64023,1.03867 -18.98283,2.17506 -9.5607,1.71296 -19.34042,3.56712 -30.16043,2.44171 l -1.35857,4.2354 c 11.98763,1.10585 22.88057,-0.96756 32.33136,-2.6944 6.41814,-1.17271 12.22596,-2.16579 17.73948,-2.12029 2.3171,0.0191 4.60504,0.21421 6.93292,0.65836 l 0.23667,-4.16822 c -2.27299,-0.34433 -4.52023,-0.50962 -6.7386,-0.52762 z m 36.9812,0 c -2.21838,0.018 -4.46562,0.18329 -6.73861,0.52762 l 0.23668,4.16822 c 2.32788,-0.44415 4.61581,-0.63923 6.93291,-0.65836 5.51352,-0.0455 11.32135,0.94758 17.73949,2.12029 9.45079,1.72684 20.34373,3.80025 32.33136,2.6944 l -1.35858,-4.2354 c -10.82001,1.12541 -20.59972,-0.72875 -30.16043,-2.44171 -6.3426,-1.13639 -12.56984,-2.22701 -18.98282,-2.17506 z m -38.26278,14.29525 c -6.85705,-0.0594 -13.52851,1.18794 -20.32847,2.48874 -10.25994,1.96267 -20.76898,4.09012 -32.33395,2.7988 l -1.56011,4.8643 c 12.83406,1.2725 24.55491,-1.11256 34.71054,-3.09645 6.89006,-1.34597 13.12033,-2.48461 19.02365,-2.43241 2.48098,0.0219 4.92933,0.2456 7.42022,0.75499 l 0.2713,-4.77439 c -2.42924,-0.39382 -4.83112,-0.58308 -7.20318,-0.60358 z m 39.54436,0 c -2.37206,0.0205 -4.77394,0.20976 -7.20318,0.60358 l 0.2713,4.77439 c 2.49089,-0.50939 4.93924,-0.73305 7.42022,-0.75499 5.90332,-0.0522 12.13358,1.08644 19.02364,2.43241 10.15563,1.98389 21.87648,4.36895 34.71055,3.09645 l -1.56012,-4.8643 c -11.56497,1.29132 -22.074,-0.83613 -32.33394,-2.7988 -6.79997,-1.3008 -13.47143,-2.54815 -20.32847,-2.48874 z m -41.01714,16.42484 c -7.36721,-0.0686 -14.55044,1.37213 -21.87877,2.87579 -11.06936,2.27125 -22.42494,4.73644 -34.8449,3.2396 l -1.81126,5.64565 c 13.80897,1.47988 26.49512,-1.29274 37.46903,-3.59565 7.43683,-1.56067 14.15484,-2.88048 20.50728,-2.81998 2.66979,0.0254 5.3035,0.28474 7.98194,0.87488 l 0.31419,-5.52369 c -2.60858,-0.45479 -5.1889,-0.6729 -7.73751,-0.6966 z m 42.48991,0 c -2.54861,0.0237 -5.12893,0.24181 -7.73751,0.6966 l 0.31419,5.52369 c 2.67844,-0.59014 5.31216,-0.84947 7.98195,-0.87488 6.35243,-0.0605 13.07044,1.25931 20.50727,2.81998 10.97391,2.30291 23.66007,5.07553 37.46903,3.59565 l -1.81126,-5.64565 c -12.41996,1.49684 -23.77554,-0.96835 -34.8449,-3.2396 -7.32833,-1.50366 -14.51156,-2.94438 -21.87877,-2.87579 z m -44.19988,19.0686 c -7.95938,-0.0801 -15.73925,1.60257 -23.68486,3.36052 -12.01717,2.65876 -24.36786,5.54921 -37.77909,3.79357 l -2.12701,6.63112 c 14.94397,1.74243 28.76761,-1.52101 40.70295,-4.22662 8.07775,-1.83115 15.36601,-3.37757 22.24154,-3.30677 2.88971,0.0298 5.73912,0.33353 8.63564,1.02526 l 0.36742,-6.46369 c -2.81648,-0.53111 -5.60305,-0.78569 -8.35659,-0.81339 z m 45.90986,0 c -2.75354,0.0277 -5.54012,0.28228 -8.3566,0.81339 l 0.36742,6.46369 c 2.89653,-0.69173 5.74594,-0.99548 8.63565,-1.02526 6.87553,-0.0708 14.16379,1.47562 22.24154,3.30677 11.93533,2.70561 25.75897,5.96905 40.70294,4.22662 l -2.127,-6.63112 c -13.41123,1.75564 -25.76192,-1.13481 -37.77909,-3.79357 -7.94561,-1.75795 -15.72549,-3.44059 -23.68486,-3.36052 z M 95.00244,206.41618 c 0.003,0.0142 0.006,0.0283 0.01,0.0424 -0.003,-0.0141 -0.007,-0.0282 -0.01,-0.0424 z m 209.52934,0.50953 c -0.002,0.004 -0.004,0.008 -0.006,0.0119 0.002,-0.004 0.004,-0.008 0.006,-0.0119 z m -209.28284,0.12764 c 0.004,0.007 0.009,0.0133 0.0129,0.0202 -0.004,-0.007 -0.009,-0.0132 -0.0129,-0.0202 z m 209.15985,0.0899 c -0.004,0.007 -0.008,0.0132 -0.0124,0.0196 0.004,-0.006 0.008,-0.0131 0.0124,-0.0196 z m -208.98725,0.16226 c 0.0125,0.0159 0.0248,0.0319 0.0377,0.0475 -0.0129,-0.0156 -0.0252,-0.0316 -0.0377,-0.0475 z m 208.84255,0.0357 c -0.008,0.0102 -0.0158,0.0209 -0.0243,0.031 0.008,-0.0101 0.016,-0.0208 0.0243,-0.031 z m -0.1726,0.1881 c -0.0103,0.0101 -0.0199,0.0206 -0.0305,0.0305 0.0106,-0.01 0.0201,-0.0204 0.0305,-0.0305 z m -0.19172,0.1664 c -0.0146,0.0113 -0.028,0.0236 -0.0429,0.0346 0.0149,-0.011 0.0283,-0.0233 0.0429,-0.0346 z m -207.97852,0.0796 c 0.0202,0.0139 0.0417,0.0269 0.0625,0.0403 -0.0208,-0.0135 -0.0423,-0.0263 -0.0625,-0.0403 z m 207.76355,0.0698 c -0.0184,0.0113 -0.0355,0.0237 -0.0543,0.0346 0.0188,-0.0109 0.0359,-0.0233 0.0543,-0.0346 z m -207.47829,0.0987 c 0.0259,0.0132 0.0514,0.0267 0.078,0.0393 -0.0266,-0.0126 -0.0521,-0.026 -0.078,-0.0393 z m 98.94796,0.0785 c 0.16651,0.0318 0.33518,0.0534 0.50437,0.0646 -0.16919,-0.0112 -0.33786,-0.0328 -0.50437,-0.0646 z"
       style="color:#000000;font-style:normal;font-variant:normal;font-weight:normal;font-stretch:normal;font-size:medium;line-height:normal;font-family:sans-serif;font-variant-ligatures:normal;font-variant-position:normal;font-variant-caps:normal;font-variant-numeric:normal;font-variant-alternates:normal;font-feature-settings:normal;text-indent:0;text-align:start;text-decoration:none;text-decoration-line:none;text-decoration-style:solid;text-decoration-color:#000000;letter-spacing:normal;word-spacing:normal;text-transform:none;writing-mode:lr-tb;direction:ltr;text-orientation:mixed;dominant-baseline:auto;baseline-shift:baseline;text-anchor:start;white-space:normal;shape-padding:0;clip-rule:nonzero;display:inline;overflow:visible;visibility:visible;opacity:1;isolation:auto;mix-blend-mode:normal;color-interpolation:sRGB;color-interpolation-filters:linearRGB;solid-color:#000000;solid-opacity:1;vector-effect:none;fill:#ff00ff;fill-opacity:1;fill-rule:nonzero;stroke:none;stroke-width:7.9375;stroke-linecap:round;stroke-linejoin:round;stroke-miterlimit:4;stroke-dasharray:none;stroke-dashoffset:0;stroke-opacity:1;color-rendering:auto;image-rendering:auto;shape-rendering:auto;text-rendering:auto;enable-background:accumulate" />
    <path
       style="color:#000000;font-style:normal;font-variant:normal;font-weight:normal;font-stretch:normal;font-size:medium;line-height:normal;font-family:sans-serif;font-variant-ligatures:normal;font-variant-position:normal;font-variant-caps:normal;font-variant-numeric:normal;font-variant-alternates:normal;font-feature-settings:normal;text-indent:0;text-align:start;text-decoration:none;text-decoration-line:none;text-decoration-style:solid;text-decoration-color:#000000;letter-spacing:normal;word-spacing:normal;text-transform:none;writing-mode:lr-tb;direction:ltr;text-orientation:mixed;dominant-baseline:auto;baseline-shift:baseline;text-anchor:start;white-space:normal;shape-padding:0;clip-rule:nonzero;display:inline;overflow:visible;visibility:visible;opacity:1;isolation:auto;mix-blend-mode:normal;color-interpolation:sRGB;color-interpolation-filters:linearRGB;solid-color:#000000;solid-opacity:1;vector-effect:none;fill:#808000;fill-opacity:1;fill-rule:nonzero;stroke:none;stroke-width:7.9375;stroke-linecap:round;stroke-linejoin:round;stroke-miterlimit:4;stroke-dasharray:none;stroke-dashoffset:0;stroke-opacity:1;color-rendering:auto;image-rendering:auto;shape-rendering:auto;text-rendering:auto;enable-background:accumulate"
       d="m 182.02246,4.9348389 c -6.18568,-0.0483 -12.1866,0.96549 -18.29604,2.0221 -11.38565,1.9691 -23.08656,4.1399001 -36.46857,1.05265 -0.7913,-0.18242 -1.76399,-0.0791 -2.62258,0.27905 -0.86164,0.35938 -1.50927,0.93412 -1.7415,1.54874 L 95.16729,83.261329 c -0.11933,0.31609 -0.18909,0.62494 -0.216,0.92139 l -0.002,-5.2e-4 v 0.0326 c -0.0133,0.16666 -0.0138,0.32907 10e-4,0.48627 l 0.0191,11.36985 c -0.0405,0.28918 -0.0398,0.56717 0.002,0.82889 v 0.0129 h 0.002 c 0.13993,0.85679 0.70704,1.53599 1.62884,1.84226 20.0548,6.662851 39.21791,1.845371 55.13773,-1.93528 8.49227,-2.01672 16.14891,-3.71902 23.36085,-3.64112 6.16638,0.0667 12.17553,1.34634 18.85931,5.05602 1.19927,0.66545 2.70146,0.67319 3.92741,0.0207 1.22025,-0.64953 1.97011,-1.84913 1.97042,-3.13676 3.1e-4,1.28763 0.75069,2.48723 1.97094,3.13676 1.22595,0.65255 2.72813,0.64481 3.92741,-0.0207 6.68378,-3.70968 12.69292,-4.98937 18.85931,-5.05602 7.21193,-0.0779 14.86858,1.6244 23.36085,3.64112 15.91982,3.780651 35.08242,8.598131 55.1372,1.93528 0.73376,-0.24379 1.24262,-0.72384 1.49087,-1.34152 h 0.002 v -0.004 c 0.22126,-0.55364 0.23095,-1.21798 0.005,-1.92236 l 0.0238,-10.1875 h -0.003 c 0.21311,-0.58885 0.19765,-1.29419 -0.0832,-2.03811 L 276.82112,9.8373789 c -0.23223,-0.61462 -0.87935,-1.18936 -1.74098,-1.54874 -0.85859,-0.35812 -1.83129,-0.46147 -2.62258,-0.27905 -13.38202,3.0872501 -25.08292,0.91645 -36.46857,-1.05265 -6.10944,-1.05661 -12.11036,-2.07044 -18.29604,-2.0221 -5.28736,0.0413 -10.7723,0.90233 -16.44189,3.15175 -0.86195,0.34205 -1.3931,0.9694 -1.3932,1.65209 -10e-5,-0.68269 -0.53073,-1.31004 -1.39268,-1.65209 -5.66959,-2.24942 -11.15453,-3.11045 -16.44189,-3.15175 z m -0.40256,3.75326 c 4.11133,0.0327 8.13713,0.61403 12.51241,2.2014101 l -1.85828,66.51119 c -5.61843,-2.17656 -11.10948,-3.07612 -16.46824,-3.13262 -8.3391,-0.0879 -16.50287,1.75955 -24.84655,3.69124 -14.89363,3.44809 -30.30449,7.2375 -47.11186,2.63447 l 23.84403,-68.18809 c 13.75675,2.42955 26.24049,0.11994 36.84271,-1.74873 6.17801,-1.0888901 11.77137,-2.0111701 17.08578,-1.9688701 z m 36.47478,0 c 5.31441,-0.0423 10.90776,0.87998 17.08577,1.9688701 10.60222,1.86867 23.08597,4.17828 36.84272,1.74873 l 23.84402,68.18809 c -16.80737,4.60303 -32.21822,0.81362 -47.11185,-2.63447 -8.34368,-1.93169 -16.50745,-3.77914 -24.84655,-3.69124 -5.35876,0.0565 -10.84981,0.95606 -16.46824,3.13262 l -1.85829,-66.51119 c 4.37528,-1.5873801 8.40109,-2.1686901 12.51242,-2.2014101 z m -36.72799,3.5625701 c -6.41298,-0.0519 -12.64023,1.03867 -18.98283,2.17506 -9.5607,1.71296 -19.34042,3.56712 -30.16043,2.44171 l -1.35857,4.2354 c 11.98763,1.10585 22.88057,-0.96756 32.33136,-2.6944 6.41814,-1.17271 12.22596,-2.16579 17.73948,-2.12029 2.3171,0.0191 4.60504,0.21421 6.93292,0.65836 l 0.23667,-4.16822 c -2.27299,-0.34433 -4.52023,-0.50962 -6.7386,-0.52762 z m 36.9812,0 c -2.21838,0.018 -4.46562,0.18329 -6.73861,0.52762 l 0.23668,4.16822 c 2.32788,-0.44415 4.61581,-0.63923 6.93291,-0.65836 5.51352,-0.0455 11.32135,0.94758 17.73949,2.12029 9.45079,1.72684 20.34373,3.80025 32.33136,2.6944 l -1.35858,-4.2354 c -10.82001,1.12541 -20.59972,-0.72875 -30.16043,-2.44171 -6.3426,-1.13639 -12.56984,-2.22701 -18.98282,-2.17506 z m -38.26278,14.29525 c -6.85705,-0.0594 -13.52851,1.18794 -20.32847,2.48874 -10.25994,1.96267 -20.76898,4.09012 -32.33395,2.7988 l -1.56011,4.8643 c 12.83406,1.2725 24.55491,-1.11256 34.71054,-3.09645 6.89006,-1.34597 13.12033,-2.48461 19.02365,-2.43241 2.48098,0.0219 4.92933,0.2456 7.42022,0.75499 l 0.2713,-4.77439 c -2.42924,-0.39382 -4.83112,-0.58308 -7.20318,-0.60358 z m 39.54436,0 c -2.37206,0.0205 -4.77394,0.20976 -7.20318,0.60358 l 0.2713,4.77439 c 2.49089,-0.50939 4.93924,-0.73305 7.42022,-0.75499 5.90332,-0.0522 12.13358,1.08644 19.02364,2.43241 10.15563,1.98389 21.87648,4.36895 34.71055,3.09645 l -1.56012,-4.8643 c -11.56497,1.29132 -22.074,-0.83613 -32.33394,-2.7988 -6.79997,-1.3008 -13.47143,-2.54815 -20.32847,-2.48874 z m -41.01714,16.42484 c -7.36721,-0.0686 -14.55044,1.37213 -21.87877,2.87579 -11.06936,2.27125 -22.42494,4.73644 -34.8449,3.2396 l -1.81126,5.64565 c 13.80897,1.47988 26.49512,-1.29274 37.46903,-3.59565 7.43683,-1.56067 14.15484,-2.88048 20.50728,-2.81998 2.66979,0.0254 5.3035,0.28474 7.98194,0.87488 l 0.31419,-5.52369 c -2.60858,-0.45479 -5.1889,-0.6729 -7.73751,-0.6966 z m 42.48991,0 c -2.54861,0.0237 -5.12893,0.24181 -7.73751,0.6966 l 0.31419,5.52369 c 2.67844,-0.59014 5.31216,-0.84947 7.98195,-0.87488 6.35243,-0.0605 13.07044,1.25931 20.50727,2.81998 10.97391,2.30291 23.66007,5.07553 37.46903,3.59565 l -1.81126,-5.64565 c -12.41996,1.49684 -23.77554,-0.96835 -34.8449,-3.2396 -7.32833,-1.50366 -14.51156,-2.94438 -21.87877,-2.87579 z m -44.19988,19.0686 c -7.95938,-0.0801 -15.73925,1.60257 -23.68486,3.36052 -12.01717,2.65876 -24.36786,5.54921 -37.77909,3.79357 l -2.12701,6.63112 c 14.94397,1.74243 28.76761,-1.52101 40.70295,-4.22662 8.07775,-1.83115 15.36601,-3.37757 22.24154,-3.30677 2.88971,0.0298 5.73912,0.33353 8.63564,1.02526 l 0.36742,-6.46369 c -2.81648,-0.53111 -5.60305,-0.78569 -8.35659,-0.81339 z m 45.90986,0 c -2.75354,0.0277 -5.54012,0.28228 -8.3566,0.81339 l 0.36742,6.46369 c 2.89653,-0.69173 5.74594,-0.99548 8.63565,-1.02526 6.87553,-0.0708 14.16379,1.47562 22.24154,3.30677 11.93533,2.70561 25.75897,5.96905 40.70294,4.22662 l -2.127,-6.63112 c -13.41123,1.75564 -25.76192,-1.13481 -37.77909,-3.79357 -7.94561,-1.75795 -15.72549,-3.44059 -23.68486,-3.36052 z M 95.00244,85.020389 c 0.003,0.0142 0.006,0.0283 0.01,0.0424 -0.003,-0.0141 -0.007,-0.0282 -0.01,-0.0424 z m 209.52934,0.50953 c -0.002,0.004 -0.004,0.008 -0.006,0.0119 0.002,-0.004 0.004,-0.008 0.006,-0.0119 z m -209.28284,0.12764 c 0.004,0.007 0.009,0.0133 0.0129,0.0202 -0.004,-0.007 -0.009,-0.0132 -0.0129,-0.0202 z m 209.15985,0.0899 c -0.004,0.007 -0.008,0.0132 -0.0124,0.0196 0.004,-0.006 0.008,-0.0131 0.0124,-0.0196 z m -208.98725,0.16226 c 0.0125,0.0159 0.0248,0.0319 0.0377,0.0475 -0.0129,-0.0156 -0.0252,-0.0316 -0.0377,-0.0475 z m 208.84255,0.0357 c -0.008,0.0102 -0.0158,0.0209 -0.0243,0.031 0.008,-0.0101 0.016,-0.0208 0.0243,-0.031 z m -0.1726,0.1881 c -0.0103,0.0101 -0.0199,0.0206 -0.0305,0.0305 0.0106,-0.01 0.0201,-0.0204 0.0305,-0.0305 z m -0.19172,0.1664 c -0.0146,0.0113 -0.028,0.0236 -0.0429,0.0346 0.0149,-0.011 0.0283,-0.0233 0.0429,-0.0346 z m -207.97852,0.0796 c 0.0202,0.0139 0.0417,0.0269 0.0625,0.0403 -0.0208,-0.0135 -0.0423,-0.0263 -0.0625,-0.0403 z m 207.76355,0.0698 c -0.0184,0.0113 -0.0355,0.0237 -0.0543,0.0346 0.0188,-0.0109 0.0359,-0.0233 0.0543,-0.0346 z m -207.47829,0.0987 c 0.0259,0.0132 0.0514,0.0267 0.078,0.0393 -0.0266,-0.0126 -0.0521,-0.026 -0.078,-0.0393 z m 98.94796,0.0785 c 0.16651,0.0318 0.33518,0.0534 0.50437,0.0646 -0.16919,-0.0112 -0.33786,-0.0328 -0.50437,-0.0646 z"
       id="path919" />
    <path
       id="path921"
       d="m -56.039416,4.9348389 c -6.18568,-0.0483 -12.1866,0.96549 -18.29604,2.0221 -11.38565,1.9691 -23.08656,4.1399001 -36.468574,1.05265 -0.7913,-0.18242 -1.76399,-0.0791 -2.62258,0.27905 -0.86164,0.35938 -1.50927,0.93412 -1.7415,1.54874 l -27.72648,73.4239501 c -0.11933,0.31609 -0.18909,0.62494 -0.216,0.92139 l -0.002,-5.2e-4 v 0.0326 c -0.0133,0.16666 -0.0138,0.32907 0.001,0.48627 l 0.0191,11.36985 c -0.0405,0.28918 -0.0398,0.56717 0.002,0.82889 v 0.0129 h 0.002 c 0.13993,0.85679 0.70704,1.53599 1.62884,1.84226 20.0548,6.662851 39.21791,1.845371 55.137734,-1.93528 8.49227,-2.01672 16.14891,-3.71902 23.36085,-3.64112 6.16638,0.0667 12.17553,1.34634 18.85931,5.05602 1.19927,0.66545 2.70146,0.67319 3.92741,0.0207 1.22025,-0.64953 1.97011,-1.84913 1.97042,-3.13676 3.1e-4,1.28763 0.75069,2.48723 1.97094,3.13676 1.22595,0.65255 2.72813,0.64481 3.92741,-0.0207 6.68378,-3.70968 12.69292,-4.98937 18.85931,-5.05602 7.21193,-0.0779 14.86858,1.6244 23.36085,3.64112 15.91982,3.780651 35.08242,8.598131 55.1372,1.93528 0.73376,-0.24379 1.24262,-0.72384 1.49087,-1.34152 h 0.002 v -0.004 c 0.22126,-0.55364 0.23095,-1.21798 0.005,-1.92236 l 0.0238,-10.1875 h -0.003 c 0.21311,-0.58885 0.19765,-1.29419 -0.0832,-2.03811 L 38.759244,9.8373789 c -0.23223,-0.61462 -0.87935,-1.18936 -1.74098,-1.54874 -0.85859,-0.35812 -1.83129,-0.46147 -2.62258,-0.27905 -13.38202,3.0872501 -25.08292,0.91645 -36.46857,-1.05265 -6.10944,-1.05661 -12.11036,-2.07044 -18.29604,-2.0221 -5.28736,0.0413 -10.7723,0.90233 -16.44189,3.15175 -0.86195,0.34205 -1.3931,0.9694 -1.3932,1.65209 -10e-5,-0.68269 -0.53073,-1.31004 -1.39268,-1.65209 -5.66959,-2.24942 -11.15453,-3.11045 -16.44189,-3.15175 z m -0.40256,3.75326 c 4.11133,0.0327 8.13713,0.61403 12.51241,2.2014101 l -1.85828,66.51119 c -5.61843,-2.17656 -11.10948,-3.07612 -16.46824,-3.13262 -8.3391,-0.0879 -16.50287,1.75955 -24.84655,3.69124 -14.893634,3.44809 -30.304494,7.2375 -47.111864,2.63447 l 23.84403,-68.18809 c 13.756754,2.42955 26.240494,0.11994 36.842714,-1.74873 6.17801,-1.0888901 11.77137,-2.0111701 17.08578,-1.9688701 z m 36.47478,0 c 5.31441,-0.0423 10.90776,0.87998 17.08577,1.9688701 10.60222,1.86867 23.08597,4.17828 36.84272,1.74873 l 23.84402,68.18809 c -16.80737,4.60303 -32.21822,0.81362 -47.11185,-2.63447 -8.34368,-1.93169 -16.50745,-3.77914 -24.84655,-3.69124 -5.35876,0.0565 -10.84981,0.95606 -16.46824,3.13262 l -1.85829,-66.51119 c 4.37528,-1.5873801 8.40109,-2.1686901 12.51242,-2.2014101 z m -36.72799,3.5625701 c -6.41298,-0.0519 -12.64023,1.03867 -18.98283,2.17506 -9.5607,1.71296 -19.34042,3.56712 -30.160434,2.44171 l -1.35857,4.2354 c 11.987634,1.10585 22.880574,-0.96756 32.331364,-2.6944 6.41814,-1.17271 12.22596,-2.16579 17.73948,-2.12029 2.3171,0.0191 4.60504,0.21421 6.93292,0.65836 l 0.23667,-4.16822 c -2.27299,-0.34433 -4.52023,-0.50962 -6.7386,-0.52762 z m 36.9812,0 c -2.21838,0.018 -4.46562,0.18329 -6.73861,0.52762 l 0.23668,4.16822 c 2.32788,-0.44415 4.61581,-0.63923 6.93291,-0.65836 5.51352,-0.0455 11.32135,0.94758 17.73949,2.12029 9.45079,1.72684 20.34373,3.80025 32.33136,2.6944 l -1.35858,-4.2354 C 18.609254,17.992849 8.829544,16.138689 -0.73116604,14.425729 -7.073766,13.289339 -13.301006,12.198719 -19.713986,12.250669 Z m -38.26278,14.29525 c -6.85705,-0.0594 -13.52851,1.18794 -20.32847,2.48874 -10.25994,1.96267 -20.76898,4.09012 -32.333954,2.7988 l -1.56011,4.8643 c 12.834064,1.2725 24.554914,-1.11256 34.710544,-3.09645 6.89006,-1.34597 13.12033,-2.48461 19.02365,-2.43241 2.48098,0.0219 4.92933,0.2456 7.42022,0.75499 l 0.2713,-4.77439 c -2.42924,-0.39382 -4.83112,-0.58308 -7.20318,-0.60358 z m 39.54436,0 c -2.37206,0.0205 -4.77394,0.20976 -7.20318,0.60358 l 0.2713,4.77439 c 2.49089,-0.50939 4.93924,-0.73305 7.42022,-0.75499 5.90332,-0.0522 12.13358,1.08644 19.02364,2.43241 10.15563,1.98389 21.87648,4.36895 34.71055,3.09645 l -1.56012,-4.8643 c -11.56497,1.29132 -22.074,-0.83613 -32.33394,-2.7988 -6.79997,-1.3008 -13.47143,-2.54815 -20.32847,-2.48874 z m -41.01714,16.42484 c -7.36721,-0.0686 -14.55044,1.37213 -21.87877,2.87579 -11.06936,2.27125 -22.424944,4.73644 -34.844904,3.2396 l -1.81126,5.64565 c 13.80897,1.47988 26.495124,-1.29274 37.469034,-3.59565 7.43683,-1.56067 14.15484,-2.88048 20.50728,-2.81998 2.66979,0.0254 5.3035,0.28474 7.98194,0.87488 l 0.31419,-5.52369 c -2.60858,-0.45479 -5.1889,-0.6729 -7.73751,-0.6966 z m 42.48991,0 c -2.54861,0.0237 -5.12893,0.24181 -7.73751,0.6966 l 0.31419,5.52369 c 2.67844,-0.59014 5.31216,-0.84947 7.98195,-0.87488 6.35243,-0.0605 13.07044,1.25931 20.50727,2.81998 10.97391,2.30291 23.66007,5.07553 37.46903,3.59565 l -1.81126,-5.64565 c -12.41996,1.49684 -23.77554,-0.96835 -34.8449,-3.2396 -7.32833,-1.50366 -14.51156,-2.94438 -21.87877,-2.87579 z m -44.19988,19.0686 c -7.95938,-0.0801 -15.73925,1.60257 -23.68486,3.36052 -12.01717,2.65876 -24.367864,5.54921 -37.779094,3.79357 l -2.12701,6.63112 c 14.94397,1.74243 28.767614,-1.52101 40.702954,-4.22662 8.07775,-1.83115 15.36601,-3.37757 22.24154,-3.30677 2.88971,0.0298 5.73912,0.33353 8.63564,1.02526 l 0.36742,-6.46369 c -2.81648,-0.53111 -5.60305,-0.78569 -8.35659,-0.81339 z m 45.90986,0 c -2.75354,0.0277 -5.54012,0.28228 -8.3566,0.81339 l 0.36742,6.46369 c 2.89653,-0.69173 5.74594,-0.99548 8.63565,-1.02526 6.87553,-0.0708 14.16378996,1.47562 22.24154,3.30677 11.93533,2.70561 25.75897,5.96905 40.70294,4.22662 l -2.127,-6.63112 c -13.41123,1.75564 -25.76192,-1.13481 -37.77909,-3.79357 -7.94561004,-1.75795 -15.72549,-3.44059 -23.68486,-3.36052 z m -127.809784,22.98103 c 0.003,0.0142 0.006,0.0283 0.01,0.0424 -0.003,-0.0141 -0.007,-0.0282 -0.01,-0.0424 z m 209.529344,0.50953 c -0.002,0.004 -0.004,0.008 -0.006,0.0119 0.002,-0.004 0.004,-0.008 0.006,-0.0119 z m -209.282844,0.12764 c 0.004,0.007 0.009,0.0133 0.0129,0.0202 -0.004,-0.007 -0.009,-0.0132 -0.0129,-0.0202 z m 209.159854,0.0899 c -0.004,0.007 -0.008,0.0132 -0.0124,0.0196 0.004,-0.006 0.008,-0.0131 0.0124,-0.0196 z m -208.987254,0.16226 c 0.0125,0.0159 0.0248,0.0319 0.0377,0.0475 -0.0129,-0.0156 -0.0252,-0.0316 -0.0377,-0.0475 z m 208.842554,0.0357 c -0.008,0.0102 -0.0158,0.0209 -0.0243,0.031 0.008,-0.0101 0.016,-0.0208 0.0243,-0.031 z m -0.1726,0.1881 c -0.0103,0.0101 -0.0199,0.0206 -0.0305,0.0305 0.0106,-0.01 0.0201,-0.0204 0.0305,-0.0305 z m -0.19172,0.1664 c -0.0146,0.0113 -0.028,0.0236 -0.0429,0.0346 0.0149,-0.011 0.0283,-0.0233 0.0429,-0.0346 z m -207.978524,0.0796 c 0.0202,0.0139 0.0417,0.0269 0.0625,0.0403 -0.0208,-0.0135 -0.0423,-0.0263 -0.0625,-0.0403 z m 207.763554,0.0698 c -0.0184,0.0113 -0.0355,0.0237 -0.0543,0.0346 0.0188,-0.0109 0.0359,-0.0233 0.0543,-0.0346 z m -207.478294,0.0987 c 0.0259,0.0132 0.0514,0.0267 0.078,0.0393 -0.0266,-0.0126 -0.0521,-0.026 -0.078,-0.0393 z m 98.947964,0.0785 c 0.16651,0.0318 0.33518,0.0534 0.50437,0.0646 -0.16919,-0.0112 -0.33786,-0.0328 -0.50437,-0.0646 z"
       style="color:#000000;font-style:normal;font-variant:normal;font-weight:normal;font-stretch:normal;font-size:medium;line-height:normal;font-family:sans-serif;font-variant-ligatures:normal;font-variant-position:normal;font-variant-caps:normal;font-variant-numeric:normal;font-variant-alternates:normal;font-feature-settings:normal;text-indent:0;text-align:start;text-decoration:none;text-decoration-line:none;text-decoration-style:solid;text-decoration-color:#000000;letter-spacing:normal;word-spacing:normal;text-transform:none;writing-mode:lr-tb;direction:ltr;text-orientation:mixed;dominant-baseline:auto;baseline-shift:baseline;text-anchor:start;white-space:normal;shape-padding:0;clip-rule:nonzero;display:inline;overflow:visible;visibility:visible;opacity:1;isolation:auto;mix-blend-mode:normal;color-interpolation:sRGB;color-interpolation-filters:linearRGB;solid-color:#000000;solid-opacity:1;vector-effect:none;fill:#008000;fill-opacity:1;fill-rule:nonzero;stroke:none;stroke-width:7.9375;stroke-linecap:round;stroke-linejoin:round;stroke-miterlimit:4;stroke-dasharray:none;stroke-dashoffset:0;stroke-opacity:1;color-rendering:auto;image-rendering:auto;shape-rendering:auto;text-rendering:auto;enable-background:accumulate" />
    <path
       style="color:#000000;font-style:normal;font-variant:normal;font-weight:normal;font-stretch:normal;font-size:medium;line-height:normal;font-family:sans-serif;font-variant-ligatures:normal;font-variant-position:normal;font-variant-caps:normal;font-variant-numeric:normal;font-variant-alternates:normal;font-feature-settings:normal;text-indent:0;text-align:start;text-decoration:none;text-decoration-line:none;text-decoration-style:solid;text-decoration-color:#000000;letter-spacing:normal;word-spacing:normal;text-transform:none;writing-mode:lr-tb;direction:ltr;text-orientation:mixed;dominant-baseline:auto;baseline-shift:baseline;text-anchor:start;white-space:normal;shape-padding:0;clip-rule:nonzero;display:inline;overflow:visible;visibility:visible;opacity:1;isolation:auto;mix-blend-mode:normal;color-interpolation:sRGB;color-interpolation-filters:linearRGB;solid-color:#000000;solid-opacity:1;vector-effect:none;fill:#550000;fill-opacity:1;fill-rule:nonzero;stroke:none;stroke-width:7.9375;stroke-linecap:round;stroke-linejoin:round;stroke-miterlimit:4;stroke-dasharray:none;stroke-dashoffset:0;stroke-opacity:1;color-rendering:auto;image-rendering:auto;shape-rendering:auto;text-rendering:auto;enable-background:accumulate"
       d="m -286.21845,4.9348389 c -6.18568,-0.0483 -12.1866,0.96549 -18.29604,2.0221 -11.38565,1.9691 -23.08656,4.1399001 -36.46857,1.05265 -0.7913,-0.18242 -1.76399,-0.0791 -2.62258,0.27905 -0.86164,0.35938 -1.50927,0.93412 -1.7415,1.54874 l -27.72648,73.4239501 c -0.11933,0.31609 -0.18909,0.62494 -0.216,0.92139 l -0.002,-5.2e-4 v 0.0326 c -0.0133,0.16666 -0.0138,0.32907 0.001,0.48627 l 0.0191,11.36985 c -0.0405,0.28918 -0.0398,0.56717 0.002,0.82889 v 0.0129 h 0.002 c 0.13993,0.85679 0.70704,1.53599 1.62884,1.84226 20.0548,6.662851 39.21791,1.845371 55.13773,-1.93528 8.49227,-2.01672 16.14891,-3.71902 23.36085,-3.64112 6.16638,0.0667 12.17553,1.34634 18.85931,5.05602 1.19927,0.66545 2.70146,0.67319 3.92741,0.0207 1.22025,-0.64953 1.97011,-1.84913 1.97042,-3.13676 3.1e-4,1.28763 0.75069,2.48723 1.97094,3.13676 1.22595,0.65255 2.72813,0.64481 3.92741,-0.0207 6.68378,-3.70968 12.69292,-4.98937 18.85931,-5.05602 7.21193,-0.0779 14.86858,1.6244 23.36085,3.64112 15.91982,3.780651 35.08242,8.598131 55.1372,1.93528 0.73376,-0.24379 1.24262,-0.72384 1.49087,-1.34152 h 0.002 v -0.004 c 0.22126,-0.55364 0.23095,-1.21798 0.005,-1.92236 l 0.0238,-10.1875 h -0.003 c 0.21311,-0.58885 0.19765,-1.29419 -0.0832,-2.03811 L -191.41979,9.8373789 c -0.23223,-0.61462 -0.87935,-1.18936 -1.74098,-1.54874 -0.85859,-0.35812 -1.83129,-0.46147 -2.62258,-0.27905 -13.38202,3.0872501 -25.08292,0.91645 -36.46857,-1.05265 -6.10944,-1.05661 -12.11036,-2.07044 -18.29604,-2.0221 -5.28736,0.0413 -10.7723,0.90233 -16.44189,3.15175 -0.86195,0.34205 -1.3931,0.9694 -1.3932,1.65209 -10e-5,-0.68269 -0.53073,-1.31004 -1.39268,-1.65209 -5.66959,-2.24942 -11.15453,-3.11045 -16.44189,-3.15175 z m -0.40256,3.75326 c 4.11133,0.0327 8.13713,0.61403 12.51241,2.2014101 l -1.85828,66.51119 c -5.61843,-2.17656 -11.10948,-3.07612 -16.46824,-3.13262 -8.3391,-0.0879 -16.50287,1.75955 -24.84655,3.69124 -14.89363,3.44809 -30.30449,7.2375 -47.11186,2.63447 l 23.84403,-68.18809 c 13.75675,2.42955 26.24049,0.11994 36.84271,-1.74873 6.17801,-1.0888901 11.77137,-2.0111701 17.08578,-1.9688701 z m 36.47478,0 c 5.31441,-0.0423 10.90776,0.87998 17.08577,1.9688701 10.60222,1.86867 23.08597,4.17828 36.84272,1.74873 l 23.84402,68.18809 c -16.80737,4.60303 -32.21822,0.81362 -47.11185,-2.63447 -8.34368,-1.93169 -16.50745,-3.77914 -24.84655,-3.69124 -5.35876,0.0565 -10.84981,0.95606 -16.46824,3.13262 l -1.85829,-66.51119 c 4.37528,-1.5873801 8.40109,-2.1686901 12.51242,-2.2014101 z m -36.72799,3.5625701 c -6.41298,-0.0519 -12.64023,1.03867 -18.98283,2.17506 -9.5607,1.71296 -19.34042,3.56712 -30.16043,2.44171 l -1.35857,4.2354 c 11.98763,1.10585 22.88057,-0.96756 32.33136,-2.6944 6.41814,-1.17271 12.22596,-2.16579 17.73948,-2.12029 2.3171,0.0191 4.60504,0.21421 6.93292,0.65836 l 0.23667,-4.16822 c -2.27299,-0.34433 -4.52023,-0.50962 -6.7386,-0.52762 z m 36.9812,0 c -2.21838,0.018 -4.46562,0.18329 -6.73861,0.52762 l 0.23668,4.16822 c 2.32788,-0.44415 4.61581,-0.63923 6.93291,-0.65836 5.51352,-0.0455 11.32135,0.94758 17.73949,2.12029 9.45079,1.72684 20.34373,3.80025 32.33136,2.6944 l -1.35858,-4.2354 c -10.82001,1.12541 -20.59972,-0.72875 -30.16043,-2.44171 -6.3426,-1.13639 -12.56984,-2.22701 -18.98282,-2.17506 z m -38.26278,14.29525 c -6.85705,-0.0594 -13.52851,1.18794 -20.32847,2.48874 -10.25994,1.96267 -20.76898,4.09012 -32.33395,2.7988 l -1.56011,4.8643 c 12.83406,1.2725 24.55491,-1.11256 34.71054,-3.09645 6.89006,-1.34597 13.12033,-2.48461 19.02365,-2.43241 2.48098,0.0219 4.92933,0.2456 7.42022,0.75499 l 0.2713,-4.77439 c -2.42924,-0.39382 -4.83112,-0.58308 -7.20318,-0.60358 z m 39.54436,0 c -2.37206,0.0205 -4.77394,0.20976 -7.20318,0.60358 l 0.2713,4.77439 c 2.49089,-0.50939 4.93924,-0.73305 7.42022,-0.75499 5.90332,-0.0522 12.13358,1.08644 19.02364,2.43241 10.15563,1.98389 21.87648,4.36895 34.71055,3.09645 l -1.56012,-4.8643 c -11.56497,1.29132 -22.074,-0.83613 -32.33394,-2.7988 -6.79997,-1.3008 -13.47143,-2.54815 -20.32847,-2.48874 z m -41.01714,16.42484 c -7.36721,-0.0686 -14.55044,1.37213 -21.87877,2.87579 -11.06936,2.27125 -22.42494,4.73644 -34.8449,3.2396 l -1.81126,5.64565 c 13.80897,1.47988 26.49512,-1.29274 37.46903,-3.59565 7.43683,-1.56067 14.15484,-2.88048 20.50728,-2.81998 2.66979,0.0254 5.3035,0.28474 7.98194,0.87488 l 0.31419,-5.52369 c -2.60858,-0.45479 -5.1889,-0.6729 -7.73751,-0.6966 z m 42.48991,0 c -2.54861,0.0237 -5.12893,0.24181 -7.73751,0.6966 l 0.31419,5.52369 c 2.67844,-0.59014 5.31216,-0.84947 7.98195,-0.87488 6.35243,-0.0605 13.07044,1.25931 20.50727,2.81998 10.97391,2.30291 23.66007,5.07553 37.46903,3.59565 l -1.81126,-5.64565 c -12.41996,1.49684 -23.77554,-0.96835 -34.8449,-3.2396 -7.32833,-1.50366 -14.51156,-2.94438 -21.87877,-2.87579 z m -44.19988,19.0686 c -7.95938,-0.0801 -15.73925,1.60257 -23.68486,3.36052 -12.01717,2.65876 -24.36786,5.54921 -37.77909,3.79357 l -2.12701,6.63112 c 14.94397,1.74243 28.76761,-1.52101 40.70295,-4.22662 8.07775,-1.83115 15.36601,-3.37757 22.24154,-3.30677 2.88971,0.0298 5.73912,0.33353 8.63564,1.02526 l 0.36742,-6.46369 c -2.81648,-0.53111 -5.60305,-0.78569 -8.35659,-0.81339 z m 45.90986,0 c -2.75354,0.0277 -5.54012,0.28228 -8.3566,0.81339 l 0.36742,6.46369 c 2.89653,-0.69173 5.74594,-0.99548 8.63565,-1.02526 6.87553,-0.0708 14.16379,1.47562 22.24154,3.30677 11.93533,2.70561 25.75897,5.96905 40.70294,4.22662 l -2.127,-6.63112 c -13.41123,1.75564 -25.76192,-1.13481 -37.77909,-3.79357 -7.94561,-1.75795 -15.72549,-3.44059 -23.68486,-3.36052 z m -127.80978,22.98103 c 0.003,0.0142 0.006,0.0283 0.01,0.0424 -0.003,-0.0141 -0.007,-0.0282 -0.01,-0.0424 z m 209.52934,0.50953 c -0.002,0.004 -0.004,0.008 -0.006,0.0119 0.002,-0.004 0.004,-0.008 0.006,-0.0119 z m -209.28284,0.12764 c 0.004,0.007 0.009,0.0133 0.0129,0.0202 -0.004,-0.007 -0.009,-0.0132 -0.0129,-0.0202 z m 209.15985,0.0899 c -0.004,0.007 -0.008,0.0132 -0.0124,0.0196 0.004,-0.006 0.008,-0.0131 0.0124,-0.0196 z m -208.98725,0.16226 c 0.0125,0.0159 0.0248,0.0319 0.0377,0.0475 -0.0129,-0.0156 -0.0252,-0.0316 -0.0377,-0.0475 z m 208.84255,0.0357 c -0.008,0.0102 -0.0158,0.0209 -0.0243,0.031 0.008,-0.0101 0.016,-0.0208 0.0243,-0.031 z m -0.1726,0.1881 c -0.0103,0.0101 -0.0199,0.0206 -0.0305,0.0305 0.0106,-0.01 0.0201,-0.0204 0.0305,-0.0305 z m -0.19172,0.1664 c -0.0146,0.0113 -0.028,0.0236 -0.0429,0.0346 0.0149,-0.011 0.0283,-0.0233 0.0429,-0.0346 z m -207.97852,0.0796 c 0.0202,0.0139 0.0417,0.0269 0.0625,0.0403 -0.0208,-0.0135 -0.0423,-0.0263 -0.0625,-0.0403 z m 207.76355,0.0698 c -0.0184,0.0113 -0.0355,0.0237 -0.0543,0.0346 0.0188,-0.0109 0.0359,-0.0233 0.0543,-0.0346 z m -207.47829,0.0987 c 0.0259,0.0132 0.0514,0.0267 0.078,0.0393 -0.0266,-0.0126 -0.0521,-0.026 -0.078,-0.0393 z m 98.94796,0.0785 c 0.16651,0.0318 0.33518,0.0534 0.50437,0.0646 -0.16919,-0.0112 -0.33786,-0.0328 -0.50437,-0.0646 z"
       id="path923" />
  </g>
</svg>
