<?xml version="1.0" encoding="UTF-8" standalone="no"?>
<!-- Created with Inkscape (http://www.inkscape.org/) -->

<svg
   xmlns:dc="http://purl.org/dc/elements/1.1/"
   xmlns:cc="http://creativecommons.org/ns#"
   xmlns:rdf="http://www.w3.org/1999/02/22-rdf-syntax-ns#"
   xmlns:svg="http://www.w3.org/2000/svg"
   xmlns="http://www.w3.org/2000/svg"
   xmlns:sodipodi="http://sodipodi.sourceforge.net/DTD/sodipodi-0.dtd"
   xmlns:inkscape="http://www.inkscape.org/namespaces/inkscape"
   width="1500"
   height="1500"
   viewBox="0 0 396.87499 396.87501"
   version="1.1"
   id="svg862"
   inkscape:version="0.92.5 (0.92.5+68)"
   sodipodi:docname="drawing.svg">
  <defs
     id="defs856">
    <inkscape:path-effect
       effect="skeletal"
       id="path-effect1464"
       is_visible="true"
       pattern="M 0,5 C 0,2.24 2.24,0 5,0 7.76,0 10,2.24 10,5 10,7.76 7.76,10 5,10 2.24,10 0,7.76 0,5 Z"
       copytype="single_stretched"
       prop_scale="1"
       scale_y_rel="false"
       spacing="0"
       normal_offset="0"
       tang_offset="0"
       prop_units="false"
       vertical_pattern="false"
       fuse_tolerance="0" />
    <inkscape:path-effect
       effect="skeletal"
       id="path-effect1460"
       is_visible="true"
       pattern="M 0,5 C 0,2.24 2.24,0 5,0 7.76,0 10,2.24 10,5 10,7.76 7.76,10 5,10 2.24,10 0,7.76 0,5 Z"
       copytype="single_stretched"
       prop_scale="1"
       scale_y_rel="false"
       spacing="0"
       normal_offset="0"
       tang_offset="0"
       prop_units="false"
       vertical_pattern="false"
       fuse_tolerance="0" />
    <inkscape:path-effect
       effect="skeletal"
       id="path-effect1456"
       is_visible="true"
       pattern="M 0,5 C 0,2.24 2.24,0 5,0 7.76,0 10,2.24 10,5 10,7.76 7.76,10 5,10 2.24,10 0,7.76 0,5 Z"
       copytype="single_stretched"
       prop_scale="1"
       scale_y_rel="false"
       spacing="0"
       normal_offset="0"
       tang_offset="0"
       prop_units="false"
       vertical_pattern="false"
       fuse_tolerance="0" />
    <inkscape:path-effect
       effect="skeletal"
       id="path-effect1452"
       is_visible="true"
       pattern="M 0,5 C 0,2.24 2.24,0 5,0 7.76,0 10,2.24 10,5 10,7.76 7.76,10 5,10 2.24,10 0,7.76 0,5 Z"
       copytype="single_stretched"
       prop_scale="1"
       scale_y_rel="false"
       spacing="0"
       normal_offset="0"
       tang_offset="0"
       prop_units="false"
       vertical_pattern="false"
       fuse_tolerance="0" />
    <inkscape:path-effect
       effect="skeletal"
       id="path-effect1448"
       is_visible="true"
       pattern="M 0,5 C 0,2.24 2.24,0 5,0 7.76,0 10,2.24 10,5 10,7.76 7.76,10 5,10 2.24,10 0,7.76 0,5 Z"
       copytype="single_stretched"
       prop_scale="1"
       scale_y_rel="false"
       spacing="0"
       normal_offset="0"
       tang_offset="0"
       prop_units="false"
       vertical_pattern="false"
       fuse_tolerance="0" />
    <inkscape:path-effect
       effect="skeletal"
       id="path-effect1444"
       is_visible="true"
       pattern="M 0,5 C 0,2.24 2.24,0 5,0 7.76,0 10,2.24 10,5 10,7.76 7.76,10 5,10 2.24,10 0,7.76 0,5 Z"
       copytype="single_stretched"
       prop_scale="1"
       scale_y_rel="false"
       spacing="0"
       normal_offset="0"
       tang_offset="0"
       prop_units="false"
       vertical_pattern="false"
       fuse_tolerance="0" />
    <inkscape:path-effect
       effect="skeletal"
       id="path-effect1440"
       is_visible="true"
       pattern="M 0,5 C 0,2.24 2.24,0 5,0 7.76,0 10,2.24 10,5 10,7.76 7.76,10 5,10 2.24,10 0,7.76 0,5 Z"
       copytype="single_stretched"
       prop_scale="1"
       scale_y_rel="false"
       spacing="0"
       normal_offset="0"
       tang_offset="0"
       prop_units="false"
       vertical_pattern="false"
       fuse_tolerance="0" />
    <inkscape:path-effect
       effect="skeletal"
       id="path-effect1436"
       is_visible="true"
       pattern="M 0,5 C 0,2.24 2.24,0 5,0 7.76,0 10,2.24 10,5 10,7.76 7.76,10 5,10 2.24,10 0,7.76 0,5 Z"
       copytype="single_stretched"
       prop_scale="1"
       scale_y_rel="false"
       spacing="0"
       normal_offset="0"
       tang_offset="0"
       prop_units="false"
       vertical_pattern="false"
       fuse_tolerance="0" />
    <inkscape:path-effect
       effect="skeletal"
       id="path-effect1432"
       is_visible="true"
       pattern="M 0,5 C 0,2.24 2.24,0 5,0 7.76,0 10,2.24 10,5 10,7.76 7.76,10 5,10 2.24,10 0,7.76 0,5 Z"
       copytype="single_stretched"
       prop_scale="1"
       scale_y_rel="false"
       spacing="0"
       normal_offset="0"
       tang_offset="0"
       prop_units="false"
       vertical_pattern="false"
       fuse_tolerance="0" />
  </defs>
  <sodipodi:namedview
     id="base"
     pagecolor="#ffffff"
     bordercolor="#666666"
     borderopacity="1.0"
     inkscape:pageopacity="0.0"
     inkscape:pageshadow="2"
     inkscape:zoom="0.028284271"
     inkscape:cx="-1751.0844"
     inkscape:cy="5109.1679"
     inkscape:document-units="px"
     inkscape:current-layer="layer1"
     showgrid="false"
     units="px"
     showborder="false"
     inkscape:snap-grids="false"
     inkscape:window-width="1319"
     inkscape:window-height="704"
     inkscape:window-x="47"
     inkscape:window-y="27"
     inkscape:window-maximized="1" />
  <metadata
     id="metadata859">
    <rdf:RDF>
      <cc:Work
         rdf:about="">
        <dc:format>image/svg+xml</dc:format>
        <dc:type
           rdf:resource="http://purl.org/dc/dcmitype/StillImage" />
        <dc:title></dc:title>
      </cc:Work>
    </rdf:RDF>
  </metadata>
  <g
     inkscape:label="Layer 1"
     inkscape:groupmode="layer"
     id="layer1"
     transform="translate(0,99.875017)">
    <rect
       style="opacity:1;fill:#efff67;fill-opacity:1;stroke-width:0.26458332"
       id="rect1475"
       width="5051.394"
       height="3919.5076"
       x="-2329.2539"
       y="-2986.406" />
    <g
       id="g1486"
       transform="translate(243.21527,196.4431)"
       style="fill:#0013ff;fill-opacity:1">
      <path
         inkscape:connector-curvature="0"
         id="path1430"
         d="m -1161.1653,-250.68035 c 0.2066,-1.76141 85.4619,7.86519 231.55443,17.92836 143.66431,9.89589 355.57965,19.95928 595.67047,8.29283 154.80964,-7.52239 332.8295906,-29.46952 497.60692,-56.13565 60.86306,-9.84955 122.11889,-24.0896 180.9571,-38.29436 216.16728,-52.18726 404.11304,-121.78839 562.15167,-194.02925 149.15171,-68.17354 271.42841,-138.65212 351.49411,-187.02661 81.7759,-49.40794 126.7989,-79.40291 127.5896,-78.23751 -1.3182,-1.94291 -170.1546,135.70563 -473.32633,277.70628 -158.04029,74.01806 -346.75069,145.05659 -563.95557,197.89998 -59.1263,14.38297 -119.74067,27.29122 -181.86302,38.64971 -175.4950583,32.08764 -344.49556,48.41518 -499.93374,55.15082 -241.31848,10.45698 -453.19529,-1.83441 -597.13726,-14.4396 -146.18128,-12.80134 -230.94498,-26.30076 -230.80838,-27.465 z"
         style="opacity:1;fill:#0013ff;fill-opacity:1;stroke:none;stroke-width:0.44843018px;stroke-linecap:butt;stroke-linejoin:miter;stroke-opacity:1"
         sodipodi:nodetypes="cssascccccsssc" />
      <path
         inkscape:connector-curvature="0"
         id="path1434"
         d="m 745.24437,-373.31413 c 0.7343,0.4412 -7.85985,15.38361 -21.73519,44.10028 -13.35283,27.63525 -33.35546,72.47935 -48.09617,128.18469 -14.30499,52.20468 -25.04223,116.294247 -24.42011,189.530832 0,0 0,7.2e-5 0,7.2e-5 -168.06487,-0.200401 -508.57751,-0.139155 -770.35144,-2.236293 -389.46641,-3.120062 -674.88553,-10.862831 -905.33996,-21.917406 -39.2123,-35.445464 -67.5762,-69.670925 -88.198,-100.482785 0,0 0,0 0,0 -39.8988,-60.3155 -47.7072,-100.26594 -48.2688,-100.05018 1.2161,-0.46731 13.5656,38.37148 54.2783,95.94023 0,0 0,0 0,0 20.6229,29.49303 48.1962,61.941573 85.8819,95.507541 243.0406,8.208567 501.23068,14.953877 899.65439,19.727281 208.7522,2.500969 557.34761,4.867256 766.09974,7.368226 0,0 0,-7.2e-5 0,-7.2e-5 -2.58711,-71.666995 7.35928,-134.560436 21.71736,-185.864896 16.28015,-56.31253 37.81796,-100.71565 52.65952,-127.9589 15.3753,-28.22288 25.59538,-42.16285 26.11846,-41.84862 z"
         style="opacity:1;fill:#0013ff;fill-opacity:1;stroke:none;stroke-width:0.44843018px;stroke-linecap:butt;stroke-linejoin:miter;stroke-opacity:1" />
      <path
         inkscape:connector-curvature="0"
         id="path1438"
         d="m 248.51762,-1736.4642 c 2.1006,-1.0287 48.78214,91.9756 127.92997,240.7676 79.48276,149.422 191.13821,352.3421 328.96161,569.69183 78.91865,124.45599 155.09213,235.84648 228.15876,336.16789 -50.65832,11.31327 -99.60551,15.08099 -145.05334,13.0772 -46.64871,-3.86295 -90.1457,-13.56745 -127.8768,-24.62455 -44.61787,-13.07409 -87.66125,-29.90782 -118.91006,-42.53747 -73.96432,-29.88575 -115.8581,-48.26325 -115.64089,-48.86993 0.8275,-2.31132 43.8377,13.37354 118.70584,40.92893 31.31546,11.52246 75.01335,27.36977 118.99626,39.3206 37.38801,10.1576 80.25963,19.00445 125.76163,22.13901 43.01849,4.71403 89.06709,4.50375 136.4892,-2.40697 C 851.9157,-692.33644 774.40606,-803.0313 694.81018,-926.16038 555.08535,-1142.3047 444.59667,-1341.7639 366.59592,-1492.0449 c -77.1972,-148.7327 -119.82434,-243.5643 -118.0783,-244.4193 z"
         style="opacity:1;fill:#0013ff;fill-opacity:1;stroke:none;stroke-width:0.44843018px;stroke-linecap:butt;stroke-linejoin:miter;stroke-opacity:1" />
      <path
         inkscape:connector-curvature="0"
         id="path1442"
         d="m 184.06606,-1613.5439 c 1.98244,-0.4808 18.71402,62.7484 46.34573,169.921 24.52392,95.1185 68.97667,270.3269 118.68622,431.1619 25.97274,86.36302 56.22589,178.64237 91.90955,272.14605 43.06805,112.85309 89.11268,214.56324 138.89589,307.53201 -170.00121,15.71241 -314.31101,-4.33393 -413.59118,-26.67386 -99.593752,-22.41054 -154.181742,-46.37329 -153.930989,-47.10513 0.578479,-1.68811 56.645381,18.34539 154.938839,39.70798 97.97302,21.2929 239.82787,42.4587 405.02069,30.01062 -51.51164,-91.78353 -99.45063,-192.07471 -144.03316,-303.03418 -36.99427,-92.07353 -77.49103,-175.66841 -103.95576,-260.86309 -49.92171,-165.1657 -80.75996,-341.2737 -103.67641,-440.5034 -24.91087,-107.8659 -38.26868,-171.8975 -36.60942,-172.2999 z"
         style="opacity:1;fill:#0013ff;fill-opacity:1;stroke:none;stroke-width:0.44843018px;stroke-linecap:butt;stroke-linejoin:miter;stroke-opacity:1"
         sodipodi:nodetypes="cscscscscscsc" />
      <path
         inkscape:connector-curvature="0"
         id="path1446"
         d="m -621.20958,-468.11212 c -1.37157,-0.37692 14.68494,-61.36987 40.38298,-169.69072 24.68839,-104.06511 61.76318,-268.33067 90.2428,-454.85816 31.46328,-196.9766 55.8541,-429.1724 55.77539,-683.6047 56.8706,32.7078 115.73323,66.2711 175.19922,99.1265 44.17848,24.4088 87.8851,47.9837 131.54534,70.718 98.221823,54.5098 192.149963,102.5355 287.84643,142.3017 -31.35499,190.6525 -26.27731,378.9782 -15.47623,528.05422 v 7e-5 c 9.76561,140.95955 30.99964,312.58331 39.21261,383.54889 10.55242,91.18046 15.62635,142.22126 14.26459,142.38602 -1.18473,0.14334 -8.67378,-50.59029 -21.38704,-141.47592 -10.55653,-75.46782 -46.98961,-236.92713 -58.53855,-383.09602 v -7e-5 c -11.20938,-147.74819 -2.03614,-333.92369 30.95373,-523.27959 -95.130906,-37.1026 -188.149812,-82.2489 -284.9249,-133.6142 -42.04282,-23.7989 -84.0619,-48.4663 -126.49405,-73.9899 -57.09711,-34.345 -113.59144,-69.4315 -168.12179,-103.5541 4.71656,252.9369 -5.5648,484.1853 -35.69553,680.0785 -30.16118,187.48526 -79.68457,348.92952 -106.75166,453.15947 -28.02039,107.90093 -46.97781,168.08008 -48.03334,167.79001 z"
         style="opacity:1;fill:#0013ff;fill-opacity:1;stroke:none;stroke-width:0.44843018px;stroke-linecap:butt;stroke-linejoin:miter;stroke-opacity:1"
         sodipodi:nodetypes="sscccccccssscccccccss" />
      <path
         inkscape:connector-curvature="0"
         id="path1450"
         d="m -635.70502,-504.35074 c -0.44646,1.1778 -32.15032,-12.36916 -91.93106,-17.45333 -27.14557,-2.30815 -57.19839,-2.49636 -94.20039,-0.0866 v 0 c -55.19518,2.6754 -120.77,11.81412 -196.27833,15.14446 49.35971,-179.15839 83.98409,-379.98626 108.18815,-634.36009 0,-0.02 1.44911,-13.0923 1.45135,-13.112 23.01896,-209.8341 41.48266,-487.5261 52.92491,-634.2291 h 7e-5 c 71.11211,34.5138 133.00412,66.5847 186.22646,90.6664 58.7656,27.7564 101.73403,43.3936 136.42492,54.0687 32.67088,10.0535 50.90251,13.875 50.72584,14.7936 -0.12876,0.6694 -18.7542,-1.131 -52.17243,-9.6446 -35.06291,-8.9327 -79.72984,-23.6185 -139.15306,-50.1237 -59.47371,-27.7039 -104.29148,-53.4181 -178.41003,-93.3229 h -7e-5 c -8.50924,142.735 -3.44372,426.4094 -22.177,630.8713 -0.39785,4.3418 -0.79973,8.6769 -1.20587,13.0055 -27.64736,250.10166 -84.47219,448.78259 -136.92244,626.63044 71.59105,-6.08149 135.44487,-16.91994 189.85504,-20.12563 v 0 c 37.36146,-1.58113 68.05025,-0.50309 95.44578,2.80092 61.23419,7.38323 91.26465,24.32756 91.20816,24.47659 z"
         style="opacity:1;fill:#0013ff;fill-opacity:1;stroke:none;stroke-width:0.44843018px;stroke-linecap:butt;stroke-linejoin:miter;stroke-opacity:1"
         sodipodi:nodetypes="ccccccccccsccccccccccccc" />
      <path
         inkscape:connector-curvature="0"
         id="path1454"
         d="m -709.57878,-2143.6804 c 4.67414,-0.1858 11.91158,86.336 16.15498,193.1291 4.24347,106.793 3.89389,193.6163 -0.78018,193.802 -4.67414,0.1858 -19.80439,-86.0437 -24.04779,-192.8367 -4.24348,-106.793 3.99892,-193.9088 8.67299,-194.0944 z"
         style="opacity:1;fill:#0013ff;fill-opacity:1;stroke:none;stroke-width:0.44843018px;stroke-linecap:butt;stroke-linejoin:miter;stroke-opacity:1"
         sodipodi:nodetypes="cscsc" />
      <path
         inkscape:connector-curvature="0"
         id="path1458"
         d="m -323.30069,-2430.9681 c 4.67241,-0.2248 25.84818,151.2626 35.0423,342.217 9.19413,190.9545 2.942,349.4218 -1.73041,349.6468 -4.67234,0.2249 -25.84818,-157.8773 -35.0423,-348.8317 -9.19406,-190.9544 -2.942,-342.8072 1.73041,-343.0321 z"
         style="opacity:1;fill:#0013ff;fill-opacity:1;stroke:none;stroke-width:0.44843018px;stroke-linecap:butt;stroke-linejoin:miter;stroke-opacity:1"
         sodipodi:nodetypes="cscsc" />
      <path
         inkscape:connector-curvature="0"
         id="path1462"
         d="m 176.37869,-2433.5305 c 4.67645,-0.1119 25.35212,169.1262 30.30284,377.7616 4.95065,208.6353 -7.68922,378.0525 -12.36567,378.1636 -4.67645,0.111 -23.01359,-169.1263 -27.96423,-377.7616 -4.95065,-208.6354 5.35054,-378.0526 10.02706,-378.1636 z"
         style="opacity:1;fill:#0013ff;fill-opacity:1;stroke:none;stroke-width:0.44843018px;stroke-linecap:butt;stroke-linejoin:miter;stroke-opacity:1"
         sodipodi:nodetypes="cscsc" />
    </g>
  </g>
</svg>
