<?xml version="1.0" encoding="UTF-8" standalone="no"?>
<!-- Created with Inkscape (http://www.inkscape.org/) -->

<svg
   xmlns:dc="http://purl.org/dc/elements/1.1/"
   xmlns:cc="http://creativecommons.org/ns#"
   xmlns:rdf="http://www.w3.org/1999/02/22-rdf-syntax-ns#"
   xmlns:svg="http://www.w3.org/2000/svg"
   xmlns="http://www.w3.org/2000/svg"
   xmlns:xlink="http://www.w3.org/1999/xlink"
   xmlns:sodipodi="http://sodipodi.sourceforge.net/DTD/sodipodi-0.dtd"
   xmlns:inkscape="http://www.inkscape.org/namespaces/inkscape"
   width="2000"
   height="2000"
   viewBox="0 0 529.16665 529.16668"
   version="1.1"
   id="svg8"
   inkscape:version="0.92.5 (0.92.5+68)"
   sodipodi:docname="drawing.svg">
  <defs
     id="defs2">
    <linearGradient
       inkscape:collect="always"
       id="linearGradient946">
      <stop
         style="stop-color:#8b00ac;stop-opacity:1"
         offset="0"
         id="stop942" />
      <stop
         style="stop-color:#0002fe;stop-opacity:1"
         offset="1"
         id="stop944" />
    </linearGradient>
    <inkscape:path-effect
       effect="skeletal"
       id="path-effect927"
       is_visible="true"
       pattern="m 276.67857,-60.598544 c 93.73812,0 198.84855,80.91997 198.84855,80.91997 0,0 -105.11043,82.431874 -198.84855,82.431874 -93.7381,0 -198.848536,-82.431874 -198.848536,-82.431874 0,0 105.110436,-80.91997 198.848536,-80.91997 z"
       copytype="single_stretched"
       prop_scale="1"
       scale_y_rel="false"
       spacing="0"
       normal_offset="0"
       tang_offset="0"
       prop_units="false"
       vertical_pattern="false"
       fuse_tolerance="0" />
    <inkscape:path-effect
       effect="spiro"
       id="path-effect919"
       is_visible="true" />
    <inkscape:path-effect
       effect="skeletal"
       id="path-effect915"
       is_visible="true"
       pattern="M 0,5 C 0,2.24 2.24,0 5,0 7.76,0 10,2.24 10,5 10,7.76 7.76,10 5,10 2.24,10 0,7.76 0,5 Z"
       copytype="single_stretched"
       prop_scale="1"
       scale_y_rel="false"
       spacing="0"
       normal_offset="0"
       tang_offset="0"
       prop_units="false"
       vertical_pattern="false"
       fuse_tolerance="0" />
    <linearGradient
       inkscape:collect="always"
       xlink:href="#linearGradient946"
       id="linearGradient948"
       x1="263.78757"
       y1="-165.06427"
       x2="264.22635"
       y2="224.30717"
       gradientUnits="userSpaceOnUse" />
  </defs>
  <sodipodi:namedview
     id="base"
     pagecolor="#ffffff"
     bordercolor="#666666"
     borderopacity="1.0"
     inkscape:pageopacity="0.0"
     inkscape:pageshadow="2"
     inkscape:zoom="0.175"
     inkscape:cx="891.58092"
     inkscape:cy="899.32437"
     inkscape:document-units="px"
     inkscape:current-layer="layer1"
     showgrid="false"
     units="px"
     inkscape:window-width="1319"
     inkscape:window-height="704"
     inkscape:window-x="47"
     inkscape:window-y="27"
     inkscape:window-maximized="1" />
  <metadata
     id="metadata5">
    <rdf:RDF>
      <cc:Work
         rdf:about="">
        <dc:format>image/svg+xml</dc:format>
        <dc:type
           rdf:resource="http://purl.org/dc/dcmitype/StillImage" />
        <dc:title></dc:title>
      </cc:Work>
    </rdf:RDF>
  </metadata>
  <g
     inkscape:label="Layer 1"
     inkscape:groupmode="layer"
     id="layer1"
     transform="translate(0,232.16668)">
    <path
       style="opacity:1;fill:url(#linearGradient948);fill-opacity:1;stroke:none;stroke-width:0.52916664;stroke-miterlimit:4;stroke-dasharray:none;stroke-opacity:1"
       d="m 325.30573,-162.52949 c -1.31265,0 -2.83227,0.0313 -4.5512,0.11346 -6.73533,0.32183 -17.17485,1.59918 -29.30661,6.25017 -11.1879,4.27719 -24.2578,11.61407 -36.20028,23.72935 -9.83944,10.03187 -18.62605,23.03839 -24.46703,38.733387 -5.30091,14.151566 -8.11316,30.286152 -7.04896,47.468444 0.50781,6.621406 1.48517,13.139822 2.87783,19.51352 -1.04213,-0.794928 -2.09307,-1.547334 -3.14938,-2.25551 -8.74835,-5.82972 -17.57553,-8.528601 -24.80347,-9.609282 -16.07783,-2.420226 -24.59527,1.744264 -24.59527,1.744264 0,0 2.23652,0.377014 6.03984,1.595335 3.7939,1.215278 9.10538,3.34005 14.70857,7.115334 5.10025,3.445741 10.375,8.242713 14.36348,14.363157 3.2821,4.9917634 5.71612,10.8356594 6.95947,17.0915834 1.08743,5.586365 1.19925,11.4151356 0.12271,16.7786756 -1.35433,8.347699 -5.83774,16.631247 -11.37335,25.244911 -5.49665,8.341448 -12.92899,16.528797 -20.70876,25.978862 -1.12627,1.33389 -2.25947,2.688649 -3.39656,4.06957 -6.8119,8.272752 -13.95881,17.730782 -20.25915,28.669379 -7.66914,13.02386 -12.94328,28.2125 -14.17609,44.28729 -0.72847,11.76179 1.19655,22.80646 4.82518,32.49363 3.99835,10.74371 10.0129,19.64713 16.74828,26.51426 8.175,8.29328 17.12174,13.31564 24.78022,16.2435 8.30451,3.18375 15.45081,4.05801 20.06133,4.27832 4.70664,0.22489 7.23125,-0.10992 7.23125,-0.10992 0,0 -2.37437,-0.98682 -6.25934,-3.26471 -3.88164,-2.27595 -9.18622,-5.89243 -14.45916,-11.3367 -4.8405,-5.00803 -9.55715,-11.48988 -12.67329,-19.12901 -2.58667,-6.27941 -4.09262,-13.27923 -4.26415,-20.49502 -0.13273,-6.49093 0.82612,-13.04545 2.95049,-18.93844 2.71657,-8.36152 8.20178,-16.39358 14.58365,-25.05033 5.48421,-7.24648 12.1652,-14.6239 18.94767,-22.91827 1.13103,-1.38314 2.27058,-2.79855 3.41297,-4.24707 8.13216,-10.065137 16.2971,-21.908537 22.58988,-35.811074 1.15672,-2.498037 2.2035,-5.053985 3.13521,-7.656269 0.27288,0.334999 0.54551,0.668532 0.81708,0.998339 0.83108,1.009287 1.65929,1.999479 2.48247,2.974392 5.68609,6.906905 11.1184,12.89101 15.13582,18.987645 4.04588,6.29558 7.32265,12.34971 8.31257,18.450907 0.78679,3.92014 0.70485,8.18045 -0.09,12.26345 -0.90871,4.57236 -2.68752,8.84354 -5.08633,12.49192 -2.91512,4.47335 -6.7706,7.97927 -10.49824,10.4977 -4.09534,2.7593 -7.97743,4.31244 -10.75029,5.20065 -2.77985,0.89046 -4.41432,1.16587 -4.41432,1.16587 0,0 6.22541,3.0438 17.97644,1.2749 5.28281,-0.78985 11.73432,-2.76252 18.12839,-7.02336 5.23807,-3.51174 10.30591,-8.47846 14.27799,-14.95906 3.57072,-5.79418 6.22097,-12.74561 7.17719,-20.56215 0.24142,-2.277547 0.35233,-4.561777 0.34133,-6.841637 2.68958,3.47894 5.20421,6.928497 7.48928,10.396187 8.08675,12.58332 14.63642,24.68421 16.61494,36.879 1.57266,7.83534 1.40898,16.35051 -0.17963,24.51139 -1.81633,9.139 -5.37201,17.67611 -10.16667,24.96834 -5.82658,8.94109 -13.53224,15.94881 -20.98297,20.98254 -8.18549,5.51515 -15.94496,8.6191 -21.4873,10.39443 -5.55613,1.77978 -8.8231,2.33041 -8.8231,2.33041 0,0 12.44295,6.08385 35.9303,2.54824 10.55898,-1.57871 23.45389,-5.52126 36.23396,-14.03763 10.4697,-7.0191 20.59935,-16.94639 28.53871,-29.89951 7.13685,-11.58112 12.43426,-25.47525 14.34531,-41.0986 2.49734,-23.56034 -1.91101,-47.491427 -11.68498,-68.599006 -9.19292,-20.309603 -21.1209,-37.611015 -33.00087,-52.314728 -1.66889,-2.116084 -3.33372,-4.183728 -4.98598,-6.204307 -9.90826,-12.1168636 -19.6681,-22.8941706 -27.67976,-33.480226 -9.32295,-12.646257 -17.33606,-24.380133 -21.30457,-36.595126 -3.1034,-8.608791 -4.50393,-18.18384 -4.31,-27.666162 0.25057,-10.541208 2.45027,-20.766985 6.229,-29.940295 4.55225,-11.15968 11.44277,-20.62893 18.514,-27.94496 7.70302,-7.95328 15.4522,-13.23644 21.12274,-16.56128 5.67537,-3.32766 9.14382,-4.76896 9.14382,-4.76896 0,0 -2.07443,-0.27513 -6.01238,-0.27412 z"
       id="path939"
       inkscape:connector-curvature="0" />
  </g>
</svg>
