<?xml version="1.0" encoding="UTF-8"?>
<svg width="921.55" height="366.23" version="1.1" viewBox="0 0 243.83 96.898" xmlns="http://www.w3.org/2000/svg" xmlns:cc="http://creativecommons.org/ns#" xmlns:dc="http://purl.org/dc/elements/1.1/" xmlns:rdf="http://www.w3.org/1999/02/22-rdf-syntax-ns#">
 <metadata>
  <rdf:RDF>
   <cc:Work rdf:about="">
    <dc:format>image/svg+xml</dc:format>
    <dc:type rdf:resource="http://purl.org/dc/dcmitype/StillImage"/>
    <dc:title/>
   </cc:Work>
  </rdf:RDF>
 </metadata>
 <g transform="translate(-26.284 -84.504)" shape-rendering="auto">
  <path transform="scale(.26458)" d="m241.82 319.39a6.0006 6.0006 0 0 0-3.1406 0.80274l-136.34 78.717a6.0006 6.0006 0 0 0 0 10.391l59.174 34.164-59.174 34.164a6.0006 6.0006 0 0 0 0 10.391l65.17 37.627v75.256a6.0006 6.0006 0 0 0 2.998 5.1973l136.34 78.713a6.0006 6.0006 0 0 0 6.002 0l136.34-78.713a6.0006 6.0006 0 0 0 2.998-5.1973v-75.254l65.172-37.627a6.0006 6.0006 0 0 0 0-10.391l-59.174-34.164 59.174-34.164a6.0006 6.0006 0 0 0 0-10.391l-136.34-78.719a6.0006 6.0006 0 0 0-6 0l-65.172 37.627-65.172-37.627a6.0006 6.0006 0 0 0-2.8594-0.80274zm-0.14063 12.926 56.172 32.43-124.34 71.791-56.174-32.432zm136.34 0 124.34 71.791-56.172 32.43-124.34-71.789zm-204.52 118.08 124.34 71.789-56.174 32.432-124.34-71.791zm272.68 0 56.174 32.432-124.34 71.789-56.172-32.43zm-130.34 82.18 59.174 34.164a6.0006 6.0006 0 0 0 6 0l59.166-34.16v64.863l-124.34 71.777zm-136.34 4e-3 59.166 34.16a6.0006 6.0006 0 0 0 6 0l59.166-34.16v136.64l-124.33-71.777z" color="#000000" color-rendering="auto" dominant-baseline="auto" image-rendering="auto" solid-color="#000000" style="font-feature-settings:normal;font-variant-alternates:normal;font-variant-caps:normal;font-variant-ligatures:normal;font-variant-numeric:normal;font-variant-position:normal;isolation:auto;mix-blend-mode:normal;shape-padding:0;text-decoration-color:#000000;text-decoration-line:none;text-decoration-style:solid;text-indent:0;text-orientation:mixed;text-transform:none;white-space:normal"/>
  <path d="m196.41 84.505a1.5877 1.5877 0 0 0-0.83095 0.21239l-36.074 20.827a1.5877 1.5877 0 0 0 0 2.7492l15.656 9.0392-15.656 9.0392a1.5877 1.5877 0 0 0 0 2.7492l17.243 9.9555v19.911a1.5877 1.5877 0 0 0 0.79324 1.3751l36.074 20.826a1.5877 1.5877 0 0 0 1.588 0l36.074-20.826a1.5877 1.5877 0 0 0 0.79324-1.3751v-19.911l17.243-9.9555a1.5877 1.5877 0 0 0 0-2.7492l-15.656-9.0392 15.656-9.0392a1.5877 1.5877 0 0 0 0-2.7492l-36.073-20.828a1.5877 1.5877 0 0 0-1.5875 0l-17.243 9.9555-17.243-9.9555a1.5877 1.5877 0 0 0-0.75655-0.21239z" color="#000000" color-rendering="auto" dominant-baseline="auto" fill="#7f2aff" image-rendering="auto" solid-color="#000000" style="font-feature-settings:normal;font-variant-alternates:normal;font-variant-caps:normal;font-variant-ligatures:normal;font-variant-numeric:normal;font-variant-position:normal;isolation:auto;mix-blend-mode:normal;shape-padding:0;text-decoration-color:#000000;text-decoration-line:none;text-decoration-style:solid;text-indent:0;text-orientation:mixed;text-transform:none;white-space:normal"/>
  <g fill="#caf">
   <path d="m196.38 87.925 14.862 8.5804-32.899 18.995-14.863-8.5809z" color="#000000" color-rendering="auto" dominant-baseline="auto" image-rendering="auto" solid-color="#000000" style="font-feature-settings:normal;font-variant-alternates:normal;font-variant-caps:normal;font-variant-ligatures:normal;font-variant-numeric:normal;font-variant-position:normal;isolation:auto;mix-blend-mode:normal;shape-padding:0;text-decoration-color:#000000;text-decoration-line:none;text-decoration-style:solid;text-indent:0;text-orientation:mixed;text-transform:none;white-space:normal"/>
   <path d="m232.45 87.925 32.899 18.995-14.862 8.5804-32.899-18.994z" color="#000000" color-rendering="auto" dominant-baseline="auto" image-rendering="auto" solid-color="#000000" style="font-feature-settings:normal;font-variant-alternates:normal;font-variant-caps:normal;font-variant-ligatures:normal;font-variant-numeric:normal;font-variant-position:normal;isolation:auto;mix-blend-mode:normal;shape-padding:0;text-decoration-color:#000000;text-decoration-line:none;text-decoration-style:solid;text-indent:0;text-orientation:mixed;text-transform:none;white-space:normal"/>
   <path d="m178.34 119.17 32.899 18.994-14.863 8.5809-32.899-18.995z" color="#000000" color-rendering="auto" dominant-baseline="auto" image-rendering="auto" solid-color="#000000" style="font-feature-settings:normal;font-variant-alternates:normal;font-variant-caps:normal;font-variant-ligatures:normal;font-variant-numeric:normal;font-variant-position:normal;isolation:auto;mix-blend-mode:normal;shape-padding:0;text-decoration-color:#000000;text-decoration-line:none;text-decoration-style:solid;text-indent:0;text-orientation:mixed;text-transform:none;white-space:normal"/>
   <path d="m250.49 119.17 14.863 8.5809-32.899 18.994-14.862-8.5804z" color="#000000" color-rendering="auto" dominant-baseline="auto" image-rendering="auto" solid-color="#000000" style="font-feature-settings:normal;font-variant-alternates:normal;font-variant-caps:normal;font-variant-ligatures:normal;font-variant-numeric:normal;font-variant-position:normal;isolation:auto;mix-blend-mode:normal;shape-padding:0;text-decoration-color:#000000;text-decoration-line:none;text-decoration-style:solid;text-indent:0;text-orientation:mixed;text-transform:none;white-space:normal"/>
  </g>
  <path d="m216 140.91 15.656 9.0392a1.5877 1.5877 0 0 0 1.5875 0l15.654-9.0382v17.162l-32.898 18.991z" color="#000000" color-rendering="auto" dominant-baseline="auto" fill="#40a" image-rendering="auto" solid-color="#000000" style="font-feature-settings:normal;font-variant-alternates:normal;font-variant-caps:normal;font-variant-ligatures:normal;font-variant-numeric:normal;font-variant-position:normal;isolation:auto;mix-blend-mode:normal;shape-padding:0;text-decoration-color:#000000;text-decoration-line:none;text-decoration-style:solid;text-indent:0;text-orientation:mixed;text-transform:none;white-space:normal"/>
  <path d="m179.93 140.91 15.654 9.0382a1.5877 1.5877 0 0 0 1.5875 0l15.654-9.0382v36.153l-32.896-18.991z" color="#000000" color-rendering="auto" dominant-baseline="auto" fill="#40a" image-rendering="auto" solid-color="#000000" style="font-feature-settings:normal;font-variant-alternates:normal;font-variant-caps:normal;font-variant-ligatures:normal;font-variant-numeric:normal;font-variant-position:normal;isolation:auto;mix-blend-mode:normal;shape-padding:0;text-decoration-color:#000000;text-decoration-line:none;text-decoration-style:solid;text-indent:0;text-orientation:mixed;text-transform:none;white-space:normal"/>
 </g>
</svg>
