<?xml version="1.0" encoding="UTF-8" standalone="no"?>
<svg
   xmlns:dc="http://purl.org/dc/elements/1.1/"
   xmlns:cc="http://creativecommons.org/ns#"
   xmlns:rdf="http://www.w3.org/1999/02/22-rdf-syntax-ns#"
   xmlns:svg="http://www.w3.org/2000/svg"
   xmlns="http://www.w3.org/2000/svg"
   id="svg8"
   version="1.1"
   viewBox="0 0 486.41096 327.77881"
   height="1238.849"
   width="1838.4037">
  <defs
     id="defs2" />
  <metadata
     id="metadata5">
    <rdf:RDF>
      <cc:Work
         rdf:about="">
        <dc:format>image/svg+xml</dc:format>
        <dc:type
           rdf:resource="http://purl.org/dc/dcmitype/StillImage" />
        <dc:title></dc:title>
      </cc:Work>
    </rdf:RDF>
  </metadata>
  <g
     transform="translate(236.54345,-117.01745)"
     id="layer1">
    <g
       id="g1016">
      <g
         id="g998"
         transform="translate(-31.531374,23.648531)">
        <rect
           transform="rotate(15)"
           y="72.301872"
           x="101.77005"
           height="334.6225"
           width="6.7573738"
           id="rect993"
           style="opacity:1;fill:#000000;fill-opacity:1;stroke:none;stroke-width:0.7757197;stroke-linecap:round;stroke-linejoin:round;stroke-miterlimit:4;stroke-dasharray:none;stroke-opacity:1" />
        <path
           style="opacity:1;fill:#000000;fill-opacity:1;stroke:none;stroke-width:0.79374999;stroke-linecap:round;stroke-linejoin:round;stroke-miterlimit:4;stroke-dasharray:none;stroke-opacity:1"
           d="m 233.32068,122.84744 c -18.27694,-4.84697 -35.12329,-4.99416 -51.87373,-4.84903 -31.20106,0.27033 -62.07506,1.55372 -101.104971,-24.629495 L 45.646292,222.85498 c 39.007886,26.20072 69.803798,24.90531 101.030798,24.63476 16.75356,-0.14516 33.6297,0.008 51.94266,4.86536 14.84992,3.93865 30.64499,10.97214 48.08374,23.44798 L 281.3989,146.31802 c -17.44669,-12.49745 -33.23434,-19.53407 -48.07822,-23.47058 z"
           id="path906" />
        <path
           id="path986"
           d="m 231.53886,125.09473 c -8.06054,-2.06124 -15.84668,-3.22174 -23.47332,-3.85971 l -6.12608,22.86284 c 7.62664,0.63797 15.41278,1.79847 23.47332,3.85972 z m 25.98945,9.69767 -6.12608,22.86285 c 6.78825,3.36106 13.81417,7.50302 21.13071,12.60243 l 6.12608,-22.86284 c -7.31654,-5.09941 -14.34246,-9.24136 -21.13071,-12.60244 z m -77.86464,-14.25177 c -8.12144,0.0756 -16.22883,0.19225 -24.46921,-0.14301 l -6.12608,22.86285 c 8.24038,0.33525 16.34777,0.21857 24.46921,0.143 z m -74.71451,-10.78196 -6.126076,22.86285 c 7.787876,3.3155 15.280346,5.63608 22.564366,7.25197 l 6.12608,-22.86284 c -7.28402,-1.61589 -14.7765,-3.93647 -22.56437,-7.25198 z m 121.69117,41.23276 -6.12622,22.86334 c 7.17718,1.95313 14.57664,4.63492 22.27935,8.31568 l 6.12622,-22.86334 c -7.70271,-3.68076 -15.10218,-6.36255 -22.27935,-8.31568 z m -27.37772,-4.51856 c -8.24605,-0.59654 -16.31616,-0.61849 -24.35887,-0.55481 l -6.12621,22.86334 c 8.0427,-0.0637 16.11282,-0.0417 24.35887,0.55481 z M 74.942189,122.66975 68.815975,145.53309 c 7.397286,4.81382 14.502524,8.64359 21.37521,11.68998 l 6.126214,-22.86334 c -6.872687,-3.04638 -13.977924,-6.87617 -21.37521,-11.68998 z m 71.432091,23.03011 c -7.7424,-0.38691 -15.61257,-1.20782 -23.73534,-2.88187 l -6.12621,22.86335 c 8.12276,1.67404 15.99294,2.49495 23.73533,2.88186 z m 71.55554,30.1845 c -8.06054,-2.06125 -15.84668,-3.22175 -23.47332,-3.85972 l -6.12608,22.86284 c 7.62664,0.63797 15.41278,1.79848 23.47332,3.85972 z m 25.98945,9.69767 -6.12608,22.86284 c 6.78825,3.36107 13.81418,7.50302 21.13071,12.60243 l 6.12609,-22.86284 c -7.31654,-5.09941 -14.34247,-9.24136 -21.13072,-12.60243 z m -77.86464,-14.25178 c -8.12144,0.0756 -16.22883,0.19225 -24.46921,-0.143 l -6.12608,22.86284 c 8.24038,0.33525 16.34777,0.21858 24.46921,0.143 z m -74.714503,-10.78196 -6.126081,22.86285 c 7.787872,3.3155 15.280344,5.63608 22.564364,7.25198 l 6.12608,-22.86285 c -7.28402,-1.61589 -14.776494,-3.93647 -22.564363,-7.25198 z m 121.691163,41.23276 -6.12608,22.86284 c 7.17717,1.95313 14.57664,4.63493 22.27935,8.31568 l 6.12608,-22.86284 c -7.70271,-3.68076 -15.10218,-6.36255 -22.27935,-8.31568 z m -27.37772,-4.51856 c -8.24605,-0.59653 -16.31616,-0.61849 -24.35887,-0.55481 l -6.12608,22.86285 c 8.04271,-0.0637 16.11282,-0.0417 24.35887,0.5548 z M 61.33315,173.45938 55.20707,196.32222 c 7.397287,4.81381 14.502524,8.64359 21.37521,11.68997 l 6.126081,-22.86284 C 75.835674,182.10297 68.730438,178.27318 61.33315,173.45938 Z m 71.43209,23.03011 c -7.74239,-0.38692 -15.61257,-1.20783 -23.73534,-2.88187 l -6.12608,22.86284 c 8.12277,1.67405 15.99295,2.49495 23.73534,2.88187 z m 71.55568,30.18399 c -8.06054,-2.06124 -15.84668,-3.22175 -23.47333,-3.85972 l -6.12621,22.86334 c 7.62664,0.63797 15.41279,1.79848 23.47332,3.85972 z m 25.98944,9.69767 -6.12621,22.86334 c 6.78825,3.36107 13.81418,7.50302 21.13072,12.60243 l 6.12621,-22.86334 c -7.31654,-5.09941 -14.34247,-9.24136 -21.13072,-12.60243 z m -77.86463,-14.25178 c -8.12144,0.0756 -16.22883,0.19225 -24.46921,-0.143 l -6.12622,22.86334 c 8.24038,0.33525 16.34777,0.21858 24.46921,0.143 z m -74.714508,-10.78195 -6.126214,22.86334 c 7.787872,3.3155 15.280345,5.63608 22.564368,7.25198 l 6.126214,-22.86334 c -7.284023,-1.6159 -14.776499,-3.93647 -22.564368,-7.25198 z"
           style="opacity:1;fill:#ffffff;fill-opacity:1;stroke:none;stroke-width:0.79374999;stroke-linecap:round;stroke-linejoin:round;stroke-miterlimit:4;stroke-dasharray:none;stroke-opacity:1" />
      </g>
      <g
         transform="matrix(-1,0,0,1,44.855448,23.648531)"
         id="g1006">
        <rect
           style="opacity:1;fill:#000000;fill-opacity:1;stroke:none;stroke-width:0.7757197;stroke-linecap:round;stroke-linejoin:round;stroke-miterlimit:4;stroke-dasharray:none;stroke-opacity:1"
           id="rect1000"
           width="6.7573738"
           height="334.6225"
           x="101.77005"
           y="72.301872"
           transform="rotate(15)" />
        <path
           id="path1002"
           d="m 233.32068,122.84744 c -18.27694,-4.84697 -35.12329,-4.99416 -51.87373,-4.84903 -31.20106,0.27033 -62.07506,1.55372 -101.104971,-24.629495 L 45.646292,222.85498 c 39.007886,26.20072 69.803798,24.90531 101.030798,24.63476 16.75356,-0.14516 33.6297,0.008 51.94266,4.86536 14.84992,3.93865 30.64499,10.97214 48.08374,23.44798 L 281.3989,146.31802 c -17.44669,-12.49745 -33.23434,-19.53407 -48.07822,-23.47058 z"
           style="opacity:1;fill:#000000;fill-opacity:1;stroke:none;stroke-width:0.79374999;stroke-linecap:round;stroke-linejoin:round;stroke-miterlimit:4;stroke-dasharray:none;stroke-opacity:1" />
        <path
           style="opacity:1;fill:#ffffff;fill-opacity:1;stroke:none;stroke-width:0.79374999;stroke-linecap:round;stroke-linejoin:round;stroke-miterlimit:4;stroke-dasharray:none;stroke-opacity:1"
           d="m 231.53886,125.09473 c -8.06054,-2.06124 -15.84668,-3.22174 -23.47332,-3.85971 l -6.12608,22.86284 c 7.62664,0.63797 15.41278,1.79847 23.47332,3.85972 z m 25.98945,9.69767 -6.12608,22.86285 c 6.78825,3.36106 13.81417,7.50302 21.13071,12.60243 l 6.12608,-22.86284 c -7.31654,-5.09941 -14.34246,-9.24136 -21.13071,-12.60244 z m -77.86464,-14.25177 c -8.12144,0.0756 -16.22883,0.19225 -24.46921,-0.14301 l -6.12608,22.86285 c 8.24038,0.33525 16.34777,0.21857 24.46921,0.143 z m -74.71451,-10.78196 -6.126076,22.86285 c 7.787876,3.3155 15.280346,5.63608 22.564366,7.25197 l 6.12608,-22.86284 c -7.28402,-1.61589 -14.7765,-3.93647 -22.56437,-7.25198 z m 121.69117,41.23276 -6.12622,22.86334 c 7.17718,1.95313 14.57664,4.63492 22.27935,8.31568 l 6.12622,-22.86334 c -7.70271,-3.68076 -15.10218,-6.36255 -22.27935,-8.31568 z m -27.37772,-4.51856 c -8.24605,-0.59654 -16.31616,-0.61849 -24.35887,-0.55481 l -6.12621,22.86334 c 8.0427,-0.0637 16.11282,-0.0417 24.35887,0.55481 z M 74.942189,122.66975 68.815975,145.53309 c 7.397286,4.81382 14.502524,8.64359 21.37521,11.68998 l 6.126214,-22.86334 c -6.872687,-3.04638 -13.977924,-6.87617 -21.37521,-11.68998 z m 71.432091,23.03011 c -7.7424,-0.38691 -15.61257,-1.20782 -23.73534,-2.88187 l -6.12621,22.86335 c 8.12276,1.67404 15.99294,2.49495 23.73533,2.88186 z m 71.55554,30.1845 c -8.06054,-2.06125 -15.84668,-3.22175 -23.47332,-3.85972 l -6.12608,22.86284 c 7.62664,0.63797 15.41278,1.79848 23.47332,3.85972 z m 25.98945,9.69767 -6.12608,22.86284 c 6.78825,3.36107 13.81418,7.50302 21.13071,12.60243 l 6.12609,-22.86284 c -7.31654,-5.09941 -14.34247,-9.24136 -21.13072,-12.60243 z m -77.86464,-14.25178 c -8.12144,0.0756 -16.22883,0.19225 -24.46921,-0.143 l -6.12608,22.86284 c 8.24038,0.33525 16.34777,0.21858 24.46921,0.143 z m -74.714503,-10.78196 -6.126081,22.86285 c 7.787872,3.3155 15.280344,5.63608 22.564364,7.25198 l 6.12608,-22.86285 c -7.28402,-1.61589 -14.776494,-3.93647 -22.564363,-7.25198 z m 121.691163,41.23276 -6.12608,22.86284 c 7.17717,1.95313 14.57664,4.63493 22.27935,8.31568 l 6.12608,-22.86284 c -7.70271,-3.68076 -15.10218,-6.36255 -22.27935,-8.31568 z m -27.37772,-4.51856 c -8.24605,-0.59653 -16.31616,-0.61849 -24.35887,-0.55481 l -6.12608,22.86285 c 8.04271,-0.0637 16.11282,-0.0417 24.35887,0.5548 z M 61.33315,173.45938 55.20707,196.32222 c 7.397287,4.81381 14.502524,8.64359 21.37521,11.68997 l 6.126081,-22.86284 C 75.835674,182.10297 68.730438,178.27318 61.33315,173.45938 Z m 71.43209,23.03011 c -7.74239,-0.38692 -15.61257,-1.20783 -23.73534,-2.88187 l -6.12608,22.86284 c 8.12277,1.67405 15.99295,2.49495 23.73534,2.88187 z m 71.55568,30.18399 c -8.06054,-2.06124 -15.84668,-3.22175 -23.47333,-3.85972 l -6.12621,22.86334 c 7.62664,0.63797 15.41279,1.79848 23.47332,3.85972 z m 25.98944,9.69767 -6.12621,22.86334 c 6.78825,3.36107 13.81418,7.50302 21.13072,12.60243 l 6.12621,-22.86334 c -7.31654,-5.09941 -14.34247,-9.24136 -21.13072,-12.60243 z m -77.86463,-14.25178 c -8.12144,0.0756 -16.22883,0.19225 -24.46921,-0.143 l -6.12622,22.86334 c 8.24038,0.33525 16.34777,0.21858 24.46921,0.143 z m -74.714508,-10.78195 -6.126214,22.86334 c 7.787872,3.3155 15.280345,5.63608 22.564368,7.25198 l 6.126214,-22.86334 c -7.284023,-1.6159 -14.776499,-3.93647 -22.564368,-7.25198 z"
           id="path1004" />
      </g>
    </g>
  </g>
</svg>
