<?xml version="1.0" encoding="UTF-8" standalone="no"?>
<!-- Created with Inkscape (http://www.inkscape.org/) -->

<svg
   xmlns:dc="http://purl.org/dc/elements/1.1/"
   xmlns:cc="http://creativecommons.org/ns#"
   xmlns:rdf="http://www.w3.org/1999/02/22-rdf-syntax-ns#"
   xmlns:svg="http://www.w3.org/2000/svg"
   xmlns="http://www.w3.org/2000/svg"
   xmlns:sodipodi="http://sodipodi.sourceforge.net/DTD/sodipodi-0.dtd"
   xmlns:inkscape="http://www.inkscape.org/namespaces/inkscape"
   width="793.70081"
   height="1122.5197"
   viewBox="0 0 210 297"
   version="1.1"
   id="svg8"
   inkscape:version="0.92.4 (unknown)"
   sodipodi:docname="10 - drawing - open in inkscapesvg.svg">
  <defs
     id="defs2">
    <clipPath
       clipPathUnits="userSpaceOnUse"
       id="clipPath1045">
      <path
         inkscape:connector-curvature="0"
         id="path1047"
         style="font-style:normal;font-variant:normal;font-weight:bold;font-stretch:normal;font-size:192px;line-height:50px;font-family:Montserrat;-inkscape-font-specification:'Montserrat Bold';letter-spacing:10px;word-spacing:2.6400001px;opacity:0.39200003;fill:#ff6f6f;fill-opacity:1;stroke:none;stroke-width:0.26458332"
         d="m 25.030659,278.42435 c 2.895601,-1.524 4.724401,-4.2672 4.724401,-7.8232 0,-5.5372 -4.572001,-9.24561 -13.462001,-9.24561 H -1.0805412 v 35.56001 H 17.309059 c 9.347201,0 14.224001,-3.556 14.224001,-9.7028 0,-4.4704 -2.54,-7.5184 -6.502401,-8.7884 z m -9.7536,-10.8712 c 4.0132,0 6.1976,1.3716 6.1976,4.1656 0,2.794 -2.1844,4.2164 -6.1976,4.2164 H 7.0982589 v -8.382 z m 1.4224,23.1648 H 7.0982589 v -8.7884 h 9.6012001 c 4.2672,0 6.5532,1.4224 6.5532,4.4196 0,3.048 -2.286,4.3688 -6.5532,4.3688 z" />
    </clipPath>
    <filter
       inkscape:collect="always"
       style="color-interpolation-filters:sRGB"
       id="filter1081"
       x="-0.034284601"
       width="1.0685692"
       y="-0.032942204"
       height="1.0658844">
      <feGaussianBlur
         inkscape:collect="always"
         stdDeviation="0.70251831"
         id="feGaussianBlur1083" />
    </filter>
  </defs>
  <sodipodi:namedview
     id="base"
     pagecolor="#ffffff"
     bordercolor="#666666"
     borderopacity="1.0"
     inkscape:pageopacity="0.0"
     inkscape:pageshadow="2"
     inkscape:zoom="1.979899"
     inkscape:cx="46.37734"
     inkscape:cy="76.927577"
     inkscape:document-units="px"
     inkscape:current-layer="layer1"
     showgrid="false"
     showborder="false"
     units="px"
     inkscape:snap-nodes="false"
     inkscape:window-width="1274"
     inkscape:window-height="686"
     inkscape:window-x="0"
     inkscape:window-y="283"
     inkscape:window-maximized="0" />
  <metadata
     id="metadata5">
    <rdf:RDF>
      <cc:Work
         rdf:about="">
        <dc:format>image/svg+xml</dc:format>
        <dc:type
           rdf:resource="http://purl.org/dc/dcmitype/StillImage" />
        <dc:title></dc:title>
      </cc:Work>
    </rdf:RDF>
  </metadata>
  <g
     inkscape:label="Layer 1"
     inkscape:groupmode="layer"
     id="layer1">
    <path
       inkscape:connector-curvature="0"
       id="path823"
       style="font-style:normal;font-variant:normal;font-weight:bold;font-stretch:normal;font-size:192px;line-height:50px;font-family:Montserrat;-inkscape-font-specification:'Montserrat Bold';letter-spacing:10px;word-spacing:2.6400001px;opacity:0.83600003;fill:#b7b7b7;fill-opacity:1;stroke:none;stroke-width:0.26458332"
       d="m 25.030659,278.42434 c 2.8956,-1.524 4.7244,-4.2672 4.7244,-7.8232 0,-5.5372 -4.572,-9.2456 -13.462,-9.2456 H -1.0805412 v 35.56 H 17.309059 c 9.3472,0 14.224,-3.556 14.224,-9.7028 0,-4.4704 -2.54,-7.5184 -6.5024,-8.7884 z m -9.7536,-10.8712 c 4.0132,0 6.1976,1.3716 6.1976,4.1656 0,2.794 -2.1844,4.2164 -6.1976,4.2164 H 7.0982586 v -8.382 z m 1.4224,23.1648 H 7.0982586 v -8.7884 h 9.6012004 c 4.2672,0 6.5532,1.4224 6.5532,4.4196 0,3.048 -2.286,4.3688 -6.5532,4.3688 z" />
    <path
       style="opacity:0.283;fill:#000000;fill-opacity:1;fill-rule:evenodd;stroke:none;stroke-width:0.26417875;stroke-miterlimit:4;stroke-dasharray:none;stroke-opacity:1;filter:url(#filter1081)"
       d="m -8.4272355,254.48004 v 51.18188 H 40.750643 v -51.18188 z m 8.28218175,7.81089 H 17.228564 c 8.889999,0 13.46171,3.70823 13.46171,9.24543 0,3.556 -1.82866,6.2993 -4.724259,7.8233 3.962399,1.27 6.502444,4.31821 6.502444,8.78861 0,6.1468 -4.876737,9.70275 -14.223937,9.70275 H -0.14505375 Z m 8.17882885,6.19756 v 8.38192 h 8.1788299 c 4.0132,0 6.197554,-1.42229 6.197554,-4.21629 0,-2.794 -2.184354,-4.16563 -6.197554,-4.16563 z m 0,14.37637 v 8.78861 H 17.63474 c 4.2672,0 6.553605,-1.32125 6.553605,-4.36925 0,-2.9972 -2.286405,-4.41936 -6.553605,-4.41936 z"
       id="rect829"
       inkscape:connector-curvature="0"
       clip-path="url(#clipPath1045)" />
  </g>
</svg>
