<?xml version="1.0" encoding="UTF-8" standalone="no"?>
<!-- Created with Inkscape (http://www.inkscape.org/) -->

<svg
   xmlns:dc="http://purl.org/dc/elements/1.1/"
   xmlns:cc="http://creativecommons.org/ns#"
   xmlns:rdf="http://www.w3.org/1999/02/22-rdf-syntax-ns#"
   xmlns:svg="http://www.w3.org/2000/svg"
   xmlns="http://www.w3.org/2000/svg"
   xmlns:sodipodi="http://sodipodi.sourceforge.net/DTD/sodipodi-0.dtd"
   xmlns:inkscape="http://www.inkscape.org/namespaces/inkscape"
   width="793.70081"
   height="1122.5197"
   viewBox="0 0 210 297"
   version="1.1"
   id="svg8"
   inkscape:version="0.92.5 (0.92.5+68)"
   sodipodi:docname="drawing.svg">
  <defs
     id="defs2">
    <inkscape:path-effect
       effect="curvestitching"
       id="path-effect3728"
       is_visible="true"
       count="20"
       startpoint_edge_variation="0;1"
       startpoint_spacing_variation="0;1"
       endpoint_edge_variation="0;1"
       endpoint_spacing_variation="0;1"
       strokepath="M 0,0 H 1"
       prop_scale="1"
       scale_y_rel="false" />
    <inkscape:path-effect
       effect="curvestitching"
       id="path-effect3718"
       is_visible="true"
       count="34"
       startpoint_edge_variation="0;1"
       startpoint_spacing_variation="0;1"
       endpoint_edge_variation="0;1"
       endpoint_spacing_variation="0;1"
       strokepath="M 0,0 H 1"
       prop_scale="1"
       scale_y_rel="false" />
  </defs>
  <sodipodi:namedview
     id="base"
     pagecolor="#ffffff"
     bordercolor="#666666"
     borderopacity="1.0"
     inkscape:pageopacity="0.0"
     inkscape:pageshadow="2"
     inkscape:zoom="0.24748737"
     inkscape:cx="166.37621"
     inkscape:cy="622.00412"
     inkscape:document-units="px"
     inkscape:current-layer="layer1"
     showgrid="false"
     units="px"
     showborder="false"
     inkscape:window-width="1319"
     inkscape:window-height="704"
     inkscape:window-x="47"
     inkscape:window-y="27"
     inkscape:window-maximized="1" />
  <metadata
     id="metadata5">
    <rdf:RDF>
      <cc:Work
         rdf:about="">
        <dc:format>image/svg+xml</dc:format>
        <dc:type
           rdf:resource="http://purl.org/dc/dcmitype/StillImage" />
        <dc:title></dc:title>
      </cc:Work>
    </rdf:RDF>
  </metadata>
  <g
     inkscape:label="Layer 1"
     inkscape:groupmode="layer"
     id="layer1">
    <path
       style="color:#000000;font-style:normal;font-variant:normal;font-weight:normal;font-stretch:normal;font-size:medium;line-height:normal;font-family:sans-serif;font-variant-ligatures:normal;font-variant-position:normal;font-variant-caps:normal;font-variant-numeric:normal;font-variant-alternates:normal;font-feature-settings:normal;text-indent:0;text-align:start;text-decoration:none;text-decoration-line:none;text-decoration-style:solid;text-decoration-color:#000000;letter-spacing:normal;word-spacing:normal;text-transform:none;writing-mode:lr-tb;direction:ltr;text-orientation:mixed;dominant-baseline:auto;baseline-shift:baseline;text-anchor:start;white-space:normal;shape-padding:0;clip-rule:nonzero;display:inline;overflow:visible;visibility:visible;opacity:1;isolation:auto;mix-blend-mode:normal;color-interpolation:sRGB;color-interpolation-filters:linearRGB;solid-color:#000000;solid-opacity:1;vector-effect:none;fill:#0000ff;fill-opacity:1;fill-rule:nonzero;stroke:none;stroke-width:0.36551642px;stroke-linecap:butt;stroke-linejoin:miter;stroke-miterlimit:4;stroke-dasharray:none;stroke-dashoffset:0;stroke-opacity:1;color-rendering:auto;image-rendering:auto;shape-rendering:auto;text-rendering:auto;enable-background:accumulate"
       d="m 385.34218,22.424127 -345.64741,84.099733 -5.342773,1.03749 -5.224288,0.75622 -5.127038,0.4868 -5.056119,0.22236 -4.916912,-0.0335 -4.8641559,-0.28547 -4.7345985,-0.52338 -4.60030003,-0.75252 -4.44387697,-0.96383 -4.2441768,-1.15141 -3.9674918,-1.29137 -3.685794,-1.4068 -3.150932,-1.37916 -1.598228,-0.79021 -225.219986,-138.089777 -59.62228,-38.663881 -0.29844,0.18909 49.10103,31.842062 -52.87302,-32.418464 -0.28685,0.195158 63.64705,39.023109 138.14432,89.584995 -167.58976,-92.729357 -28.88676,-18.909839 -0.29809,0.187187 25.40897,16.632108 -31.63556,-17.504966 -0.26402,0.209202 35.40872,19.593043 90.93583,59.522148 -101.06654,-50.023893 -17.99685,-11.882378 -0.3008,0.184719 15.97786,10.548275 -23.34554,-11.554475 -0.23779,0.221905 25.6391,12.691157 67.2301,44.386431 -72.79736,-31.865408 -11.87558,-7.901689 -0.30387,0.184154 10.48329,6.976211 -18.38226,-8.046771 -0.20845,0.235177 20.02556,8.764589 53.64764,35.698147 -55.59562,-21.2020076 -9.50636,-5.9166262 -0.28992,0.1945944 8.2412,5.1287022 -16.33168,-6.2286188 -0.18187,0.245976 17.82164,6.7961834 51.78104,32.2252856 -53.29412,-17.365674 -7.66423,-4.3120085 -0.26676,0.2067314 6.42396,3.6132921 -14.48468,-4.7195392 -0.14604,0.2584788 15.92279,5.1889944 53.0432,29.838202 -54.79257,-14.850878 -5.67964,-2.860249 -0.24392,0.220775 4.44411,2.239161 -12.2791,-3.329431 -0.10989,0.269071 13.67699,3.706856 54.44213,27.415294 -56.2793,-12.209936 -3.68095,-1.640098 -0.21461,0.234046 2.45432,1.091494 -9.91093,-2.149491 -0.0737,0.279664 11.27914,2.446667 55.93646,24.90564 -57.86184,-9.462649 -1.77875,-0.689611 -0.18186,0.245976 0.54834,0.213138 -7.406,-1.212028 -0.0369,0.286454 8.74726,1.431418 57.53546,22.293245 -59.25074,-6.559652 -0.12858,-0.04335 -0.0145,0.02685 -6.32815,-0.700657 3.5e-4,0.291333 6.39986,0.707963 59.14397,19.542865 -64.96736,-3.802053 0.0379,0.29432 5.54313,0.32389 -0.10156,0.24108 59.6177,16.331648 -64.46779,-0.44312 0.0758,0.2954 65.49538,0.45125 41.29416,11.31269 -40.80608,1.80365 -61.26959,-13.36292 -0.0768,0.27909 60.21639,13.13163 -64.24971,2.84037 0.11068,0.2959 65.28712,-2.88553 42.26419,9.2182 -41.41854,3.92265 -62.3101,-10.14388 -0.0365,0.28454 61.21841,9.96651 -64.38614,6.09992 0.14317,0.29204 65.43025,-6.19895 43.20289,7.03528 -41.96387,6.07369 -63.7819,-6.89404 0.003,0.2919 62.62334,6.76929 -64.88755,9.39264 0.17255,0.28763 65.95142,-9.54708 44.1095,4.76774 -42.42693,8.2438 -65.72288,-3.54556 0.0444,0.29354 64.5029,3.4784 -65.81752,12.7875 0.20196,0.28318 0.89587,-0.17355 0.0807,0.28644 66.90522,0.022 -67.21426,16.35425 0.10834,0.13607 0.0615,0.14908 297.359484,-15.67966 88.709653,55.20767 224.743513,149.54463 0.30081,-0.18472 -216.098987,-143.79455 219.307027,136.47958 0.28992,-0.19459 -228.300731,-142.0755 -58.44092,-38.88721 182.542031,102.68929 102.67443,67.78829 0.30117,-0.18661 -99.03255,-65.38392 103.6855,58.32907 0.26674,-0.20674 -107.60536,-60.53468 -83.20216,-54.93167 122.12729,61.49817 66.15865,43.30552 0.29809,-0.18719 -63.92504,-41.84332 69.37671,34.93553 0.24051,-0.21944 -71.8733,-36.19422 -71.52471,-46.81652 91.88487,40.91189 48.28972,31.31484 0.29844,-0.1891 -46.70626,-30.2892 52.7778,23.49947 0.21459,-0.23405 -54.61263,-24.31553 -60.60663,-39.30367 69.02016,26.7458 42.39027,25.99144 0.28377,-0.19573 -41.03478,-25.15933 47.6777,18.47481 0.18188,-0.24599 -49.26378,-19.08958 -56.48912,-34.63506 62.22791,20.56135 40.59737,22.46327 0.26403,-0.20921 -39.26843,-21.72854 45.03311,14.88035 0.14912,-0.25791 -46.56024,-15.38391 -57.17742,-31.63851 62.91944,17.23672 39.01183,19.30981 0.24084,-0.22134 -37.71082,-18.66486 42.37677,11.60846 0.11296,-0.2685 -43.84631,-12.01088 -57.6997,-28.56021 63.00128,13.73882 37.89913,16.58978 0.21154,-0.23461 -36.62064,-16.02966 40.14517,8.75524 0.0768,-0.2791 -41.56798,-9.0664 -58.03652,-25.40251 62.84982,10.23145 37.31666,14.23306 0.18186,-0.24598 -36.05863,-13.75149 38.41106,6.2534 0.0365,-0.28455 -39.77417,-6.47485 -58.20412,-22.1979 62.47071,6.75299 37.31435,12.15832 0.14604,-0.25848 -36.05563,-11.74944 37.2363,4.02576 -0.003,-0.2919 -38.57244,-4.16943 -58.18431,-18.95879 61.92083,3.33953 37.88749,10.27021 0.11295,-0.2685 -36.623,-9.92719 36.63225,1.97603 -0.041,-0.29489 -37.93762,-2.04515 -58.00496,-15.72376 61.20105,0.0208 39.03824,8.47073 0.0765,-0.27719 -37.75879,-8.19188 36.59697,0.0113 -0.082,-0.29652 -37.8832,-0.012 -57.67481,-12.51411 60.3328,-3.18171 40.77082,6.66819 0.0396,-0.28398 -39.4668,-6.45368 37.1312,-1.95872 -0.11411,-0.29457 -38.40748,2.02485 -287.483939,-47.01457 1.8356,-0.44729 330.847289,36.63466 -0.003,-0.2919 -330.01928,-36.54321 1.755563,-0.4266 332.645767,19.46594 -0.041,-0.29489 -331.636856,-19.4081 1.632435,-0.39613 334.420971,2.30278 -0.0758,-0.2954 -333.16791,-2.29445 1.446383,-0.35167 L 368.07263,93.898328 367.96161,93.604329 33.402528,108.38827 34.536307,108.11287 372.44818,76.101988 372.30539,75.808043 36.601051,107.61134 37.219763,107.45957 376.82137,58.301276 376.64882,58.013661 40.852101,106.62083 381.19421,40.502468 380.99532,40.219844 46.490441,105.20282 385.56704,22.70366 Z m -658.09254,-60.746687 167.8143,92.855326 29.304494,19.004461 -107.566464,-53.241816 z m 36.75529,7.48362 209.02097,128.156144 -77.67511,-42.979598 z m -48.60611,1.282677 101.13913,50.060876 41.67369,27.278463 -76.17739,-33.345794 z m -6.4529,12.328442 72.83282,31.87981 39.58447,26.136107 -59.10648,-22.541165 z m -2.33264,14.5670177 55.39646,21.1279453 35.89542,23.884425 -39.80447,-12.96907 z m 112.32048,24.3504433 107.647566,53.284304 12.986869,8.421182 -79.592885,-34.840582 z m -35.43296,-6.281718 76.21592,33.360762 24.33203,15.926068 -61.30848,-23.381527 z m -20.13173,3.577147 59.12386,22.550271 26.40794,17.433999 -49.86014,-16.247315 z m -58.53459,-6.654124 53.03352,17.2803 35.51256,22.099768 -35.78538,-9.698183 z m 54.29768,17.694112 39.67246,12.927053 25.94412,17.262008 -30.30058,-8.212076 z m 64.73783,12.035413 61.33235,23.389857 16.267438,10.648825 -51.421068,-16.757097 z m 37.6104,7.47968 79.639938,34.861053 7.711938,5.001734 -63.382576,-24.174724 z m 37.60444,7.2188 73.071871,40.431676 -45.296689,-22.419249 z m -99.14158,-13.43582 49.87243,16.249579 19.10987,12.616706 -43.1969,-11.708284 z m -97.08058,-15.849011 54.53187,14.783199 36.3848,20.467474 -36.75369,-7.975337 z m 183.74061,38.509669 63.409522,24.183622 5.419339,3.514917 -52.799502,-17.205725 z m -127.9835,-23.394609 35.60965,9.652054 26.10291,16.244246 -25.52062,-5.537152 z m 92.34339,17.358149 51.439503,16.760491 11.876498,7.775903 -44.367561,-12.026161 z m 78.113156,16.259427 45.319514,22.433293 -33.011135,-14.449951 z m -133.778946,-23.676396 30.20948,8.189399 19.8236,13.190927 -24.07289,-5.223369 z m 31.18975,8.454507 43.20576,11.711886 14.66389,9.680514 -38.16491,-8.28043 z m 77.078054,16.102306 52.814512,17.210458 4.236431,2.746072 -45.338606,-12.289574 z m 39.36893,8.106533 34.750925,15.213085 -27.419096,-10.458459 z m -72.254814,-12.230712 44.379493,12.030326 9.246443,6.051799 -39.084326,-8.47923 z m -169.83228,-30.107763 56.01309,12.155017 37.31328,18.788458 -37.66607,-6.159534 z m 250.599109,47.859477 28.603483,10.908753 0.279681,0.17154 -23.710415,-7.726891 z m -193.388789,-35.444669 36.57691,7.934916 26.73709,15.042423 -26.18954,-4.284651 z m 157.999805,29.993689 45.350541,12.293738 3.566806,2.311832 -39.79591,-8.633861 z m -120.390505,-21.835236 25.39537,5.510155 20.17536,12.557036 -18.97163,-3.103311 z m 512.72992,94.758209 -60.05363,3.16619 -228.689768,-49.61953 1.888608,-0.45917 z m -486.40933,-89.046217 24.00294,5.206553 15.78845,10.507498 -19.72093,-3.225531 z m 210.305986,39.183267 -0.565354,0.13798 -0.457876,0.02 0.609332,-0.11808 z m -74.726785,-13.640339 23.827421,7.764179 0.664968,0.4078 -20.429332,-5.53655 z m -110.718271,-20.148886 38.17412,8.282126 11.75528,7.761459 -34.22812,-5.597402 z m 183.373467,34.293435 -1.104028,0.26906 -0.977028,-0.007 1.12976,-0.21906 z m -3.093404,0.13698 -0.589498,0.11386 -0.488514,-0.003 0.62663,-0.0913 z m -141.241813,-25.959668 39.093546,8.480929 7.542441,4.939038 -34.970947,-5.720389 z m 142.053968,26.378828 -1.403291,0.34188 -1.278707,-0.076 1.416303,-0.27454 z m -2.86754,-0.0202 -1.087371,0.21309 -0.98977,-0.0583 1.109679,-0.16175 z m -62.651441,-11.53319 20.513598,5.56191 0.944646,0.57934 -18.019516,-3.91007 z m 63.148129,12.13043 -1.592767,0.38768 -1.472349,-0.16284 1.597531,-0.31006 z m -3.52616,-0.61774 -0.58424,0.0853 -0.502741,-0.0296 0.6176,-0.0595 z m -96.190065,-17.666872 39.802054,8.634992 3.158076,2.04765 -35.510656,-5.807953 z m 96.976078,18.124512 -1.380057,0.26744 -1.279429,-0.1411 1.389996,-0.20066 z m -2.809133,-0.16493 -1.073785,0.15655 -0.986452,-0.11078 1.089248,-0.10253 z m 3.131914,0.91317 -1.715545,0.41625 -1.600344,-0.26119 1.709691,-0.3327 z m -6.104649,-1.08657 -0.578633,0.0548 -0.522761,-0.0588 0.601725,-0.025 z m 3.443362,0.79142 -1.55479,0.30218 -1.461753,-0.23764 1.556483,-0.22512 z m -53.946814,-9.74946 18.080608,3.92328 1.150062,0.70573 -16.172053,-2.64495 z m 51.263673,9.45226 -1.347606,0.19469 -1.267163,-0.20772 1.347979,-0.12771 z m -32.772988,-5.99666 0.251124,0.0679 0.887554,0.44091 -0.363469,-0.0787 z m 1.769454,0.48126 0.26034,0.0696 0.684943,0.29929 -0.351182,-0.0765 z m 28.245612,5.21033 -1.044136,0.099 -0.986556,-0.16196 1.046962,-0.0454 z m -25.966097,-4.58398 0.195745,0.0754 -0.05187,-0.0115 z m 23.046327,4.26092 -0.553892,0.024 -0.521277,-0.0842 0.561625,0.003 z m -26.570938,-4.69731 0.07031,0.0149 1.190596,0.65808 -0.221887,-0.0369 z m 1.127273,0.24297 0.549462,0.12085 1.138082,0.56378 -0.644158,-0.10679 z m 34.03508,6.26642 -1.79216,0.4356 -1.692094,-0.36665 1.782532,-0.34881 z m -2.599189,-0.42542 -1.670022,0.32426 -1.584924,-0.34494 1.660746,-0.23938 z m -29.664624,-5.45584 0.626261,0.13499 1.0197356,0.44753 -0.7028786,-0.11564 z m 27.05622,5.02873 -1.511021,0.21971 -1.444662,-0.31322 1.506569,-0.14378 z m -24.9487826,-4.57183 0.5068038,0.11102 0.7956179,0.30196 L -8.706,106.0357 Z m 22.3123786,4.14153 -1.302516,0.1223 -1.255247,-0.27244 1.296745,-0.0564 z m -19.8875523,-3.61439 0.1559739,0.0327 0.3834075,0.1257 -0.215744,-0.0358 z m 17.1804933,3.17108 -0.9991309,0.0443 -0.9712986,-0.21032 0.993089,0.006 z m -2.8582911,-0.46722 -0.5168643,-0.005 -0.5132981,-0.11025 0.5092348,0.0288 z m -9.7894601,-1.60166 0.4568681,0.12348 -0.3520464,-0.0373 -0.4161494,-0.13763 z m 4.5597863,0.86905 0.4945165,0.10877 L 2.13398,108.29721 1.6621032,108.169 Z m -6.7582081,-1.22855 0.8807472,0.28812 -0.7218245,-0.0817 -0.8310809,-0.31637 z m -2.1181989,-0.3467 1.112761,0.4253 -0.9028073,-0.0993 -1.0579186,-0.4644 z m 11.2159182,2.08275 0.9709497,0.21222 -0.9326183,-0.006 -0.9498991,-0.25755 z m -13.2573163,-2.4153 1.2522612,0.54741 -0.9492369,-0.10589 -1.1878528,-0.58672 z m -1.908599,-0.31205 1.324527,0.65519 -0.856024,-0.0946 -1.24546,-0.68786 z m 17.5388678,3.24297 1.2491023,0.27131 -1.2389941,0.0533 -1.2283214,-0.33243 z m -6.99747683,-1.27457 0.92874507,0.25168 -0.84530188,-0.0494 -0.89883096,-0.29341 z m -12.23082497,-2.24599 1.354838,0.74933 -0.448331,-0.0491 -1.224328,-0.75089 z m -1.14393,-0.187 1.312901,0.80458 -14.713918,-1.62861 -2.817469,-1.8275 z m 22.7697622,4.22771 1.4385168,0.31209 -1.4481188,0.13682 -1.4248477,-0.38632 z m 2.4217538,0.52657 1.572986,0.34078 -1.605367,0.23187 -1.560988,-0.4232 z m -14.0546437,-2.56998 1.17752,0.38409 -1.0430474,-0.0622 -1.1335629,-0.43307 z m 4.5430254,0.87384 1.2252495,0.33187 -1.1577422,-0.008 -1.19560197,-0.38938 z m 11.9490843,2.22364 1.68595,0.36552 -1.732597,0.33636 -1.673251,-0.45174 z m 2.467835,0.53506 1.768194,0.38459 -1.8356,0.44729 -1.754444,-0.47653 z m -21.1264692,-3.87202 1.3265878,0.506 -1.1342383,-0.0671 -1.2785092,-0.56012 z m -25.9780788,-4.72591 2.896828,1.87949 -32.101412,-3.55465 -6.315287,-4.134491 z m 49.599681,9.13998 228.237914,49.5206 -41.16579,2.17039 L 17.102751,112.3541 Z m -14.5703949,-2.6669 1.412911,0.38216 -1.3705549,0.0606 -1.3903776,-0.45279 z m -11.1368078,-1.97765 1.4138635,0.6185 -1.1376606,-0.0658 -1.3592892,-0.6734 z m 6.52325146,1.21088 1.38151094,0.44919 -1.26569583,-0.009 -1.34431777,-0.51319 z m 6.97943804,1.40704 1.5548452,0.42207 -1.5321963,0.14496 -1.5343305,-0.49898 z m -15.4698,-2.83643 1.4642757,0.72421 -1.0307587,-0.0599 -1.3923201,-0.77 z m -1.7619038,-0.19451 1.4788745,0.81744 -0.6345695,-0.0381 -1.370137,-0.83874 z m 8.0466308,1.49333 1.48072537,0.56586 -1.31010497,-0.009 -1.4401114,-0.6312 z m 4.5098521,0.8815 1.525464,0.49538 -1.4317267,0.0651 -1.49266361,-0.57003 z m 7.0680515,1.30528 1.6606136,0.45139 -1.6607467,0.23937 -1.6421193,-0.53457 z m -20.8882514,-3.82028 1.438609,0.88087 -13.530989,-0.79089 -2.658754,-1.72348 z m 23.299164,4.47475 1.74865,0.4735 -1.76542,0.34212 -1.7321778,-0.56296 z m -16.1193201,-2.96586 1.5430759,0.67575 -1.2909731,-0.009 -1.4932432,-0.73939 z m -62.3767689,-11.386183 6.389203,4.181563 -31.684152,-3.509317 -9.685208,-6.394332 z m 71.3513611,13.152703 1.6363262,0.53153 -1.5677403,0.14826 -1.6055462,-0.61246 z m -4.57696081,-0.77578 1.59395821,0.60639 -1.45086018,0.0655 -1.55466232,-0.68181 z m 14.16024871,2.63468 1.820978,0.49469 -1.855435,0.4515 -1.803804,-0.58795 z m -20.5784088,-3.74355 1.5747034,0.77997 -1.1707305,-0.007 -1.5132845,-0.83754 z m 23.0469888,4.41258 188.642104,51.13378 -30.18111,1.59307 -160.379704,-52.25944 z m -9.687611,-1.75807 1.7168172,0.56013 -1.6740853,0.24283 -1.6945518,-0.64656 z m -15.1852357,-2.76042 1.5797374,0.87339 -0.7963156,-0.005 -1.4839066,-0.91086 z m 6.0713334,1.19852 1.64024715,0.71725 -1.41531755,0.0622 -1.5924352,-0.78717 z m 4.4729043,0.89242 1.6856869,0.64296 -1.5677402,0.14826 -1.65183517,-0.72333 z m -11.9110633,-2.17138 1.538069,0.94445 -12.5554967,-0.0858 -2.548056,-1.65194 z m 18.9340482,3.61793 1.7918671,0.58379 -1.7684917,0.34156 -1.768901,-0.67403 z M -102.63322,90.966055 l 9.75878,6.443301 -31.06818,-3.4392 -12.92795,-8.603198 z m 98.2876094,18.194765 1.6588882,0.82302 -1.2936734,0.057 -1.6025599,-0.88744 z m -22.8003774,-4.18218 2.718009,1.76391 -29.323961,-1.71681 -5.501955,-3.60098 z m 31.6648311,5.97762 1.7569625,0.66986 -1.6610956,0.24128 -1.7282028,-0.75706 z m 7.1088769,1.34232 1.851554,0.60462 -1.848588,0.44882 -1.8309607,-0.69922 z m -11.64818922,-2.13282 1.71661522,0.751 -1.51920713,0.14341 -1.67661887,-0.83022 z m -6.21258148,-1.01788 1.6601462,0.91969 -0.9348834,0.0404 -1.575555,-0.96512 z m 20.2966527,3.94556 160.110238,52.17046 -23.21768,1.22397 -138.791433,-52.93125 z m -21.7560515,-3.95448 1.6212017,0.99321 -11.7394202,0.51905 -2.465625,-1.59936 z M -137.63831,85.241348 l 12.99844,8.651611 -16.54103,-1.831201 -16.12611,-10.036325 z m 144.5109169,26.610762 1.8190217,0.69507 -1.7490076,0.33924 -1.792983,-0.78474 z m -9.0030611,-1.59463 1.73183207,0.8581 -1.39958417,0.13199 -1.6805981,-0.92936 z m 4.4027835,0.911 1.7813964,0.77866 -1.6122117,0.23454 -1.7434205,-0.86417 z M -158.12426,81.892679 l 16.20889,10.086994 -14.52714,-1.608008 -20.56087,-11.567234 z m 167.3768786,30.868001 1.8725654,0.71476 -1.8222617,0.44384 -1.8485483,-0.81071 z m -13.3239325,-2.41577 1.726598,0.95554 -1.0567764,0.0987 -1.6494664,-1.0122 z m 8.6596174,1.83842 1.8373108,0.80274 -1.6902051,0.33038 -1.8047793,-0.89318 z M 0.11946066,111.37235 1.9099307,112.257 0.41839374,112.47439 -1.3255853,111.50975 Z M -177.89742,78.657529 l 20.66446,11.625673 -19.45433,-2.155024 -27.27064,-13.731535 z m 172.2826514,31.755491 1.6896725,1.03534 -11.0425579,1.04687 -2.408741,-1.56331 z m -18.3166104,-3.34877 2.599149,1.68495 -27.014145,-0.18549 -4.915458,-3.2155 z m 35.590955,6.61388 138.571814,52.84751 -18.5157,0.97576 L 9.7908019,114.13309 Z m -13.5313211,-2.1174 1.78110992,0.98723 -1.16470542,0.16735 -1.7124974,-1.04937 z m 8.8087642,1.64938 1.8840104,0.82512 -1.7658301,0.43061 -1.8542008,-0.91802 z M -204.96907,74.230155 l 27.40699,13.801901 -26.78806,-2.966048 -38.10612,-16.96639 z m 207.3677667,38.270335 1.8426117,0.91196 -1.5742742,0.30449 -1.80191449,-0.99499 z m -5.8901401,-0.78532 1.7496298,1.07196 -10.4451524,1.51111 -2.366164,-1.53579 z m -56.4658426,-10.36874 5.56428,3.64197 -28.991314,-1.69493 -8.263262,-5.457487 z M 9.3119795,114.24961 131.05139,167.5385 115.89404,168.33553 7.5064813,114.68866 Z m -8.95588714,-1.45409 1.83325334,1.01453 -1.2583304,0.2446 -1.77245295,-1.08601 z M -243.62512,67.909994 l 38.28817,17.04715 -38.61634,-4.27592 -57.26536,-22.190372 z M 4.7072495,113.6419 l 1.8889614,0.93623 -1.6491976,0.40092 -1.8506344,-1.02364 z m -25.5800115,-4.59359 2.511275,1.62745 -25.067057,1.10782 -4.464507,-2.92189 z m 19.5417795,3.99158 1.80107172,1.10307 -9.92166532,1.9283 -2.3409709,-1.51738 z m 8.3784751,1.76107 108.2273674,53.56817 -12.63381,0.66731 -97.2759294,-53.8269 z m -4.4253787,-0.75378 1.8761778,1.04016 -1.3499315,0.32809 -1.820823,-1.11656 z m -1.75243118,0.34058 1.84636648,1.13307 -9.4666476,2.30333 -2.3177962,-1.50523 z m -18.79996872,-3.43187 2.448595,1.58836 -23.397196,2.21626 -4.121877,-2.69546 z m 22.8497601,4.3625 97.1348559,53.74779 -10.497764,0.55479 -88.0171278,-53.96625 z m -97.2646561,-17.557704 8.32322,5.494114 -28.469438,-1.66576 -10.92775,-7.270595 z m 95.4523126,17.999434 87.8914184,53.88997 -16.491736,0.8682 -80.882744,-52.45195 z m -57.0100286,-10.44925 4.966551,3.24852 -26.747682,-0.18367 -7.212906,-4.76225 z m 38.832657,7.50004 2.400226,1.5578 -21.954523,3.17857 -3.84632,-2.51878 z M 248.3641,161.652 l 57.4093,12.45537 -60.92503,-0.0191 -37.83289,-10.25622 z m -260.639695,-47.02765 2.3692365,1.53636 -20.6926895,4.01901 -3.634143,-2.37736 z m -111.837735,-20.382537 10.98701,7.311017 -14.13414,-0.82715 -13.35327,-8.311517 z m 75.630307,14.615557 4.507081,2.94941 -24.846323,1.09926 -6.411511,-4.2329 z m 38.9598475,7.55101 2.3436913,1.51984 -19.5817588,4.76477 -3.461118,-2.26482 z M -141.34547,92.334547 l 13.42209,8.351733 -11.36565,-0.66577 -16.5088,-9.286109 z m 57.810543,11.242143 7.260924,4.79472 -26.297087,-0.1814 -9.43942,-6.2802 z M -6.8048169,118.1704 73.961438,170.54777 48.405769,171.89428 -26.389998,122.9365 Z M -156.58828,90.645938 -139.996,99.97891 -154.88459,99.109284 -175.94632,88.502737 Z m 113.04319,21.442882 4.155588,2.71937 -23.219471,2.19978 -5.788585,-3.82103 z m -133.27261,-23.68354 21.16328,10.658697 -19.87194,-1.163263 -27.95511,-12.446468 z m 137.836225,26.67091 3.877659,2.53832 -21.804446,3.15699 -5.295757,-3.4961 z m -73.663605,-13.20449 9.48709,6.31455 -12.24769,-0.0842 -11.33597,-7.05449 z m 36.824402,6.79769 6.451017,4.25985 -24.455415,1.0807 -8.299184,-5.52118 z M -204.46485,85.344036 -176.37782,97.850223 -203.782,96.246767 -242.90092,81.089499 Z m 169.752031,32.527454 3.662412,2.39635 -20.570966,3.99616 -4.898966,-3.23607 z m -92.691751,-16.86336 11.38978,7.08997 -9.02794,-0.0622 -13.66499,-7.68797 z m -116.6385,-20.046262 39.29929,15.229835 -39.40132,-2.306764 -58.8745,-19.453892 z m 175.101187,32.248842 5.825366,3.84552 -22.873592,2.16703 -7.410609,-4.93052 z m 275.033723,50.66971 37.65136,10.20706 -41.59567,-0.0146 -26.37451,-8.59329 z m -345.50961,-63.57463 13.73416,7.72629 -11.64167,-0.0809 -16.90219,-8.512288 z m 108.747122,20.21106 3.483591,2.28077 -19.475394,4.73909 -4.582234,-3.02426 z m -72.040512,-12.03185 8.341758,5.54871 -10.740288,0.47471 -9.81739,-6.10772 z m -52.28613,-9.091412 16.98367,8.552862 -15.18186,-0.10491 -21.57336,-9.604551 z m 128.181828,23.645642 74.682349,48.88376 -25.280259,1.33424 -68.880907,-45.47758 z m -35.896451,-5.71367 5.327097,3.51564 -21.497455,3.11119 -6.706305,-4.46037 z m 307.550363,57.05804 57.72962,15.64945 -61.64997,-3.32706 -37.8598,-12.3355 z m -360.37464,-65.9868 9.86269,6.13771 -7.24641,0.31897 -11.59024,-6.51875 z m -60.08408,-10.210298 21.67288,9.650428 -20.28904,-0.13994 -28.65928,-11.105981 z m 50.46617,10.143808 11.64475,6.55045 -9.24467,0.40764 -13.97514,-7.03854 z m 68.157207,12.76732 4.927583,3.25315 -20.290916,3.94145 -6.137543,-4.08208 z m -36.948151,-6.78112 7.447392,4.955 -9.510358,0.9019 -8.6517,-5.38336 z m 268.909924,51.20521 26.2425,8.55129 -30.39094,-0.0102 -19.16868,-7.31186 z m -312.38547,-57.27715 14.04194,7.0725 -11.85457,0.52343 -17.29032,-7.69813 z m -66.43655,-11.710525 28.78955,11.157525 -27.87366,-0.19221 -40.12903,-13.259086 z m 152.164518,28.065185 4.604707,3.0402 -19.225715,4.67681 -5.67333,-3.77423 z m -53.530548,-9.785 8.691553,5.40842 -5.860483,0.55446 -10.03307,-5.64361 z m 19.127051,4.72604 6.737294,4.48182 -8.49075,1.22936 -7.733998,-4.81292 z m -26.918131,-4.3814 10.07906,5.66979 -7.41867,0.70252 -11.85073,-5.96646 z m -40.26084,-7.02301 17.36941,7.73434 -15.47317,0.68378 -22.08074,-8.55652 z m 106.555347,19.74652 68.767488,45.40357 -13.7207916,0.72302 -2.8549843,-0.002 -2.8272967,-0.15253 -2.83410475,-0.30531 -2.76305785,-0.44969 -2.8490356,-0.62098 -0.2657831,-0.0745 -59.8784981,-39.84268 z m 248.835173,46.48573 37.67966,12.27872 -41.90944,-2.26079 -26.29167,-10.02653 z m -298.219535,-53.87979 7.765335,4.83248 -4.751505,0.68976 -8.835705,-4.9705 z m -26.725115,-4.89495 11.8998,5.99322 -9.39995,0.88878 -14.29018,-6.36247 z m 43.855249,8.68457 6.165456,4.10298 -7.632042,1.48193 -7.00126,-4.3592 z m 229.896611,42.51274 19.06808,7.27168 -23.30521,-0.008 -14.35546,-6.28396 z m -395.12101,-72.616402 40.3088,13.317772 -40.13092,-0.27626 -60.49456,-16.571809 z m 141.7293,26.917332 8.87319,4.99118 -5.997569,0.86772 -10.248821,-5.1618 z m -71.82169,-13.09957 22.17863,8.59421 -20.57747,0.90907 -29.34158,-9.69457 z m 38.99875,8.15056 14.35461,6.39204 -12.06072,1.14281 -17.68403,-6.8535 z m 47.36065,9.4323 7.032949,4.37683 -3.853979,0.74875 -7.897654,-4.44158 z m 15.496463,3.0539 5.695803,3.79017 -6.893331,1.67895 -6.41161,-3.99085 z m -37.982933,-6.78467 10.29552,5.18417 -7.53457,1.09053 -12.10315,-5.38906 z m 351.28572,65.15176 57.90563,18.86812 -62.19686,-6.72226 -37.79752,-14.41606 z m -70.09963,-12.63687 26.15491,9.97576 -30.51212,-1.64627 -19.04981,-8.33697 z m -263.920836,-48.02733 7.928993,4.46112 -4.865085,0.94439 -9.022161,-4.54431 z m 224.815606,41.47294 14.27602,6.24965 -18.50636,-0.007 -10.98852,-5.43969 z m -283.07847,-50.94841 17.76146,6.88153 -15.65214,1.48331 -22.58121,-7.45995 z m 85.04417,15.80759 59.3182499,39.46991 -1.5937299,-0.43513 -2.894956,-0.95811 -2.961722,-1.14751 -3.525845,-1.56825 -3.595432,-1.81132 -4.187335,-2.35719 -47.4358,-29.51823 z m -53.99952,-9.87724 12.156,5.41257 -9.54778,1.38113 -14.60091,-5.65805 z m 39.865479,7.41073 6.440577,4.00603 -3.115413,0.7568 -7.146322,-4.01985 z m -122.474189,-22.40387 29.47017,9.73793 -28.29509,1.2515 -41.11265,-11.26354 z m 103.339808,19.47724 9.060347,4.56118 -6.081027,1.183 -10.468078,-4.66096 z m 14.842382,3.76004 7.174936,4.03693 -3.943785,0.9605 -8.060341,-4.05825 z m 200.61922,37.61037 10.92479,5.4063 -15.05728,-0.005 -8.55565,-4.73198 z m 30.79321,5.70889 18.94378,8.29186 -23.30078,-1.25731 -14.22589,-7.03944 z m -220.29527,-39.90658 41.590665,25.88358 -44.676327,-25.13312 z m 271.49681,50.23105 37.60485,14.34123 -42.1072,-4.55062 -26.14195,-11.4435 z m -305.50302,-56.24024 10.508981,4.6803 -7.638531,1.4827 -12.35977,-4.78883 z m -25.33334,-4.44977 14.66333,5.68134 -12.1654,1.76316 -18.06291,-5.96877 z m 42.902524,8.08011 8.09203,4.07589 -4.924335,1.19719 -9.208702,-4.10043 z m 12.909138,3.23683 49.534586,27.86575 -53.44827,-26.91349 z m -95.499032,-17.50422 22.67979,7.49384 -20.82086,1.97227 -30.01288,-8.22209 z m 275.2572,51.54334 8.49771,4.70163 -12.284973,-0.003 -6.758338,-4.14326 z m 24.79304,5.00367 14.14407,7.00077 -18.39757,-0.99416 -10.86425,-6.01115 z m -224.015288,-41.00675 9.243814,4.11673 -6.151492,1.49671 -10.681624,-4.13938 z m 15.091759,3.02662 57.572675,28.99144 0.03713,0.0226 -62.494474,-27.82528 z m -36.189131,-6.47015 12.40989,4.80986 -9.60195,1.86514 -14.90427,-4.92471 z m 284.0897,53.08098 26.00387,11.38265 -30.52222,-3.29931 -18.88012,-9.34485 z m -315.62877,-57.44723 18.14067,5.99488 -15.79011,2.28449 -23.06138,-6.31833 z m 240.758147,44.39837 6.706896,4.11213 -18.23033,-0.005 -4.990858,-3.23725 z m -178.393436,-32.25671 64.834242,28.86616 0.467367,0.29072 -71.410008,-27.66995 z m 198.524619,36.66972 10.79814,5.9734 -14.67442,-0.79082 -8.459245,-5.18657 z m -216.38588,-39.421 10.723237,4.15492 -7.661147,1.86428 -12.60488,-4.16482 z m 246.95326,46.75328 18.77241,9.29157 -23.17918,-2.5043 -14.06664,-7.78357 z m -272.66009,-49.93353 14.96397,4.94553 -12.23692,2.37582 -18.42624,-5.04769 z m 367.00189,67.68521 57.91323,22.08727 -62.57537,-10.18682 -37.62877,-16.47112 z m -137.848019,-25.08881 8.402019,5.1524 -20.404153,-1.10185 -6.256548,-4.05676 z m -300.444341,-55.25179 30.13981,8.25726 -28.65991,2.71546 -42.084,-9.17912 z m 108.248084,20.19593 73.256944,28.3859 0.629854,0.39149 -81.494592,-26.9269 z m 167.944243,31.54713 4.945563,3.20726 -27.678402,-0.0106 -2.826251,-1.84879 z m 48.574073,9.8112 13.98009,7.73613 -17.97502,-1.94367 -10.74234,-6.587 z m -237.89797,-43.75173 12.65571,4.18205 -9.62638,2.34281 -15.19103,-4.16077 z m -55.89713,-9.31739 23.15828,6.34403 -21.01783,3.04205 -30.65476,-6.68513 z m 364.03992,67.17726 37.42864,16.38507 -42.15147,-6.86335 -25.93016,-12.83528 z m -113.416234,-20.41733 6.202383,4.02317 -30.216703,-1.62927 -3.670575,-2.40375 z m -181.489946,-33.0689 83.081063,27.45319 0.735459,0.4562 -93.379972,-25.58059 z m 209.26354,38.54853 10.67115,6.5424 -23.182247,-2.50486 -7.924469,-5.14124 z m -254.49521,-45.69166 18.50507,5.06811 -15.8871,3.0873 -23.51853,-5.12917 z m 308.60355,57.22046 25.78463,12.76321 -30.39328,-4.94842 -18.67023,-10.32958 z m -75.188744,-12.66659 7.862492,5.09832 -33.30305,-3.60073 -4.779215,-3.12744 z m -214.220526,-39.29588 15.25142,4.17779 -12.26946,2.98386 -18.77639,-4.09468 z m 176.023633,32.82802 2.783675,1.82127 -27.338826,-0.009 -0.724759,-0.47982 z m 89.309797,16.53196 18.55743,10.26947 -22.70868,-3.69691 -13.89889,-8.52218 z m -249.4409,-45.00708 94.818775,25.97735 0.812447,0.50383 -107.821352,-23.5142 z m 230.65595,42.97727 13.81338,8.46905 -26.84063,-4.37107 -10.192222,-6.60773 z m -67.290569,-12.38536 3.619835,2.36882 -29.795237,-1.60677 -1.166497,-0.77173 z m 43.364284,9.79861 10.109445,6.55707 -37.140483,-6.04702 -6.278505,-4.11001 z m -39.259785,-7.11226 4.716887,3.08645 -32.77072,-3.54209 -1.744476,-1.1517 z m -255.92014,-46.64677 30.78616,6.71327 -28.97357,4.19477 -43.02129,-7.00382 z m 31.64722,6.90133 23.61613,5.15109 -21.16389,4.11134 -31.27232,-5.09058 z m 400.33792,74.33265 57.7365,25.27248 -62.72312,-13.67974 -37.3468,-18.48565 z m -375.93991,-69.01202 18.85249,4.11262 -15.93724,3.8771 -23.96048,-3.90179 z m 205.12448,37.86125 6.202218,4.05857 -36.449891,-5.93365 -2.52612,-1.66758 z m -38.410211,-6.87909 0.682533,0.45039 -9.169318,-0.002 z m -147.137909,-26.71264 109.189206,23.81329 0.863537,0.53685 -125.893533,-20.49662 z m 313.00636,57.68275 37.13989,18.38457 -42.0229,-9.16591 -25.64307,-14.1876 z m -164.738738,-30.22287 1.115757,0.7368 -13.727661,-0.7405 z m 133.302898,25.10611 25.49314,14.1049 -29.85787,-6.51087 -18.4426,-11.30713 z m -131.705549,-24.05235 1.685218,1.11128 -18.8470979,-2.03733 z m 108.078249,20.20403 18.32814,11.23882 -31.84857,-6.94627 -13.36698,-8.6683 z m -27.67666,-4.50531 13.26787,8.60281 -42.038619,-9.16684 -8.375875,-5.48413 z m -124.295392,-22.77658 0.39149,0.1508 0.299164,0.16922 -0.374191,-0.12399 z m 46.10556,8.53799 2.449483,1.61804 -24.4353325,-3.97938 0.092945,-0.005 z m -44.737526,-7.68783 0.646737,0.21354 0.509405,0.28666 -0.628819,-0.17285 z m 85.003426,15.75286 8.276764,5.41866 -41.122266,-8.9686 -3.613255,-2.3873 z m -82.817617,-15.03159 0.23024,0.0778 0.203478,0.10241 -0.226549,-0.0634 z m -0.801093,0.1418 0.807265,0.22145 0.647749,0.36331 -0.793821,-0.17372 z m 2.044101,0.55938 0.495753,0.13655 0.438993,0.22056 -0.488371,-0.10764 z m 44.341615,8.26833 3.517219,2.32238 -30.2455654,-6.59602 0.3625612,-0.0198 z m -42.355181,-7.7235 0.154222,0.0422 0.150014,0.065 -0.159044,-0.0332 z m -2.636956,-0.23753 0.919075,0.2007 0.737025,0.41319 -0.90361,-0.14669 z m 1.954186,0.42671 0.665849,0.14424 0.589978,0.29756 -0.662941,-0.10828 z m 1.865798,0.4065 0.421488,0.0914 0.3934292,0.17477 -0.4195502,-0.0674 z m 1.8719437,0.40764 0.058018,0.0126 0.1213972,0.0479 -0.071009,-0.0111 z m 11.5406065,2.1996 -0.077233,0.005 -0.036515,-0.009 0.088822,6e-4 z m -8.5974286,-1.3999 0.050823,0.0172 0.019751,0.0135 -0.037564,-0.003 -0.094801,-0.0371 z m -1.4709674,-0.23934 0.3703355,0.14493 -0.3424787,-0.0375 -0.3610388,-0.16094 z m 7.18171665,1.32621 0.0580188,0.0127 -0.0731098,3.1e-4 -0.0603892,-0.017 z m -8.68375545,-1.56931 0.5519573,0.24529 -0.5948178,-0.0643 -0.5521452,-0.27878 z m 10.0973476,1.87877 0.3054504,0.0661 -0.3464993,0.0189 -0.30809007,-0.0862 z m -4.2537998,-0.77139 0.075399,0.0218 -0.075482,-0.004 -0.074698,-0.0256 z m -7.4438932,-1.36856 0.6918937,0.3478 -0.7815967,-0.0849 -0.696469,-0.39195 z m 13.1085611,2.44695 32.0103369,6.98196 5.080505,3.35413 -37.6235796,-10.30626 z m -14.7860561,-2.72039 0.802774,0.45286 -0.987152,-0.10698 -0.814818,-0.50819 z m -1.816438,-0.29508 0.903391,0.56191 -149.278819,-16.13694 21.13451,-5.14211 z m 9.4801358,1.78088 0.3475948,0.1132 -0.3084179,-0.0155 -0.1668833,-0.11141 z m 2.8606848,0.54047 0.3265221,0.0896 -0.3464164,0.001 -0.3260904,-0.10925 z m -4.3303108,-0.70085 0.5244728,0.20482 -0.525295,-0.0278 -0.5226404,-0.23202 z m 5.73602534,1.0876 0.48688891,0.13293 -0.52931579,0.0285 -0.48777546,-0.16262 z m -2.86513564,-0.46454 0.5089294,0.16848 -0.5240606,-5e-5 -0.5067419,-0.19761 z m -4.3688673,-0.7847 0.6545737,0.29173 -0.7203177,-0.0382 -0.6598518,-0.33207 z m 8.6400693,1.63407 39.3169365,10.76956 7.50137,4.9551 -47.48225351,-15.68947 z m -10.2285361,-1.80452 0.7617668,0.38232 -0.874355,-0.0468 -0.765642,-0.43027 z m 4.4446389,0.87344 0.3732643,0.24978 -0.3556329,-5.3e-4 -0.6310489,-0.2815 z m 2.9170317,0.54494 0.6167184,0.20407 -0.6574548,0.0344 -0.6169027,-0.23757 z m -9.024566,-1.59859 0.8487739,0.47903 -1.0471719,-0.057 -0.863536,-0.53685 z m 4.6515367,0.97451 0.7336636,0.32794 -0.8161489,-7e-4 -0.7351702,-0.37151 z m -6.4421407,-1.16839 0.93201,0.57897 -180.840474,-9.75396 29.2341,-7.11065 z m 12.21643473,2.25514 49.21575127,16.2625 11.528798,7.61152 -61.5048652,-23.83295 z m -2.87505433,-0.46243 0.7144274,0.27717 -0.3174505,0.0163 -0.4444575,-0.29438 z m -0.6255169,-0.001 0.2717837,0.17993 -0.4053648,-0.17894 z m -3.8526845,-0.70737 0.8166304,0.4121 -0.9432364,-4.7e-4 -0.8228774,-0.46443 z m 2.9760628,0.70735 0.7926504,0.35259 -0.8884538,0.047 -0.7965273,-0.40053 z m 2.8986006,0.54155 63.3841956,24.56272 18.96547,12.52125 -82.3505874,-36.66494 -0.5827211,-0.38873 z m -7.5256819,-1.33836 0.8893286,0.50027 -1.0956001,-9.8e-4 -0.900668,-0.55944 z m 44.8003795,8.27799 41.12841,8.96973 11.321342,7.40998 -47.244593,-12.94358 z m -46.567868,-8.37316 0.957553,0.5955 -225.849959,-0.0767 42.55835,-10.35493 z m 4.8223947,0.89182 0.8606065,0.432 -1.0008805,0.0539 -0.8634334,-0.48567 z m 2.9665558,0.62098 1.2505087,0.55693 3.7265947,2.47901 -5.9298017,-2.98502 z m -4.6053489,-0.6216 0.918297,0.51545 -1.138938,0.0619 -0.9289348,-0.57842 z m 3.0368854,0.70478 8.6591843,4.3594 11.2642317,7.49589 -20.975202,-11.80097 z m -4.7901253,-0.70482 0.9745844,0.6065 -295.3129721,15.57036 66.80829,-16.25385 z m 3.1577673,0.79001 25.024892,14.07772 53.243036,35.42882 -79.4485546,-49.44248 z m 6.2009554,1.16728 82.3887716,36.68181 35.175258,23.2244 L 4.0791474,179.15659 Z m 77.7836106,14.68533 42.047489,9.17043 17.90688,11.61194 -48.502578,-13.28738 z m -219.549171,-40.19825 -21.26105,5.17392 -31.86142,-3.44355 29.06298,-5.64646 z m -24.96002,-4.06221 -29.22746,5.67718 -43.9193,-4.74846 41.74505,-6.04116 z m 208.485375,39.0488 47.256877,12.94585 16.040948,10.49888 -55.62308,-18.37899 z m 78.960005,14.57523 31.90966,6.95949 25.17506,15.43577 -39.04466,-10.69582 z m 32.84717,7.16359 29.99198,6.54147 36.74925,20.33383 -41.41221,-11.34428 z M 6.1927648,180.56322 119.46354,237.60071 201.1787,291.55208 18.821011,188.96561 Z m 178.1446252,33.67709 42.20924,9.20612 57.38853,28.40452 -62.63828,-17.15937 z M 50.081701,191.41096 105.72287,209.79525 129.638,225.44972 61.857089,199.18399 Z m 39.657506,7.53973 48.517593,13.2921 25.13653,16.30052 -57.43742,-18.97872 z m -253.878167,-42.83263 -29.40411,7.15415 -44.78422,-2.4142 42.19612,-8.19774 z m 303.41798,56.40348 39.12927,10.71926 36.29961,22.25845 -50.11116,-16.55724 z m -76.263601,-12.57322 67.807511,26.27652 38.57293,25.24727 -87.032838,-38.74918 z m 116.481291,23.59127 41.6026,11.39705 56.85471,31.45904 -61.93763,-20.46461 z m -72.5943,-13.35399 57.45858,18.98459 37.29743,24.18782 -70.5885,-27.35339 z m -23.00744,3.54953 87.07375,38.76853 70.81899,46.35398 -122.0489,-61.45816 z m 81.66978,15.83185 50.23054,16.59891 56.15835,34.43049 -68.82749,-26.67097 z m -360.08872,-66.05618 -42.80154,10.41644 -68.15627,-0.0241 65.97892,-12.8188 z m 326.77882,63.26895 70.61509,27.36419 60.18973,39.03207 -91.83816,-40.88953 z"
       id="path3715"
       inkscape:connector-curvature="0" />
    <path
       style="color:#000000;font-style:normal;font-variant:normal;font-weight:normal;font-stretch:normal;font-size:medium;line-height:normal;font-family:sans-serif;font-variant-ligatures:normal;font-variant-position:normal;font-variant-caps:normal;font-variant-numeric:normal;font-variant-alternates:normal;font-feature-settings:normal;text-indent:0;text-align:start;text-decoration:none;text-decoration-line:none;text-decoration-style:solid;text-decoration-color:#000000;letter-spacing:normal;word-spacing:normal;text-transform:none;writing-mode:lr-tb;direction:ltr;text-orientation:mixed;dominant-baseline:auto;baseline-shift:baseline;text-anchor:start;white-space:normal;shape-padding:0;clip-rule:nonzero;display:inline;overflow:visible;visibility:visible;opacity:1;isolation:auto;mix-blend-mode:normal;color-interpolation:sRGB;color-interpolation-filters:linearRGB;solid-color:#000000;solid-opacity:1;vector-effect:none;fill:#008080;fill-opacity:1;fill-rule:nonzero;stroke:none;stroke-width:0.26458332px;stroke-linecap:butt;stroke-linejoin:miter;stroke-miterlimit:4;stroke-dasharray:none;stroke-dashoffset:0;stroke-opacity:1;color-rendering:auto;image-rendering:auto;shape-rendering:auto;text-rendering:auto;enable-background:accumulate"
       d="M 301.1899,39.554909 5.951619,253.051 H -283.48588 v 0.26563 H 5.584432 l -9.839844,7.11523 -269.335938,1.8086 0.002,0.26562 268.962894,-1.80469 -10.177734,7.35938 -249.32812,3.82031 0.004,0.26563 248.94922,-3.81446 -10.564453,7.63867 -229.367187,5.95899 0.008,0.26367 228.980471,-5.94727 -11.083985,8.01563 -209.369136,8.13477 0.01,0.26367 208.972658,-8.1211 -11.640626,8.41797 -189.380862,10.35938 0.0137,0.26367 188.972661,-10.33789 -12.091797,8.74414 -169.714844,12.75976 0.0195,0.26368 169.285158,-12.72657 -11.943359,8.63672 -151.187499,15.82617 0.0273,0.26368 150.730471,-15.77735 -10.601561,7.66602 -135.35352,20.46094 0.0391,0.26171 134.8457,-20.38476 -11.5,8.31641 -120.55664,24.99804 0.0547,0.25977 119.97656,-24.87891 -13.95313,10.0918 -106.01953,27.99609 0.0684,0.25586 105.35352,-27.82226 -14.97071,10.82617 -93.43359,29.89648 0.082,0.25196 92.66211,-29.64844 -15.05078,10.88281 -82.80859,31.00391 0.0918,0.24804 81.90821,-30.66601 -14.8711,10.75195 -73.66211,31.48633 0.10352,0.24414 72.58398,-31.02539 -14.65234,10.59766 -65.54297,31.4082 0.11523,0.23828 64.22266,-30.77734 -14.33789,10.36914 -58.25781,30.86914 0.125,0.23437 56.57812,-29.97851 -14.14648,10.22851 -51.36133,29.76758 0.13281,0.22852 49.10156,-28.45704 -13.95117,10.0879 -44.53515,27.98437 0.14062,0.22266 41.11133,-25.83399 -13.54687,9.79688 -37.35938,25.26562 0.14844,0.21875 30.40039,-20.55859 -40.60352,29.36133 0.15625,0.21484 47.44336,-34.30859 33.27539,-22.50196 30.78711,-19.3457 29.82031,-17.2832 29.51563,-15.63867 29.91602,-14.33789 29.499995,-12.60938 29.099609,-10.89453 27.041016,-8.65235 19.347656,-5.10937 4.654297,-0.96484 36.84375,-5.57032 135.624997,-14.19726 148.625,-11.17188 7.08985,-0.38867 -0.008,-0.14453 20.88672,-1.57031 -0.0195,-0.26367 -27.97851,2.10351 -82.40625,4.50781 45.74023,-4.78906 22.83984,-0.88672 -0.01,-0.26367 -18.81836,0.73047 80.18164,-8.39258 -0.0273,-0.26367 -84.20313,8.81445 -100.08984,3.88867 36.37304,-5.49804 65.79297,-1.70899 -0.008,-0.26562 -63.66406,1.65429 33.61523,-5.08203 9.43555,-0.14453 -0.006,-0.26562 -7.47461,0.11523 121.16992,-18.31836 -0.0391,-0.26172 -123.10156,18.60938 -73.61524,1.12891 26.79297,-5.55665 35.84961,-0.24023 -0.002,-0.26562 -34.52344,0.23242 163.92578,-33.99219 -0.0547,-0.25781 -165.21484,34.25781 -46.15234,0.31055 22.05468,-5.82422 h 39.73633 V 253.051 h -38.73047 l 180.49414,-47.66406 -0.0684,-0.25586 -181.4629,47.91992 h -35.7207 l 208.42015,-66.6875 -0.082,-0.25195 L 173.6274,253.051 h -28.31445 l 228.2207,-85.44726 -0.0918,-0.24805 L 144.55904,253.051 H 120.42037 L 363.80514,149.01975 363.70162,148.77756 119.74849,253.051 H 98.242635 L 353.8149,130.57639 353.70162,130.33616 97.629354,253.051 H 77.88326 L 343.62935,112.2385 343.50631,112.00413 77.316854,253.051 H 58.836385 L 333.27388,93.996315 333.14107,93.767799 58.309041,253.051 H 40.748494 L 322.76803,75.840065 322.62545,75.617409 40.252401,253.051 H 23.350057 L 312.08443,57.787331 311.93599,57.568581 22.877401,253.051 H 6.404744 L 301.34615,39.769752 Z M 6.037557,253.31663 h 16.447266 l -10.359375,7.00586 -15.923829,0.10742 z m 16.919922,0 h 16.873047 l -10.970703,6.89453 -16.257813,0.10742 z m 17.36914,0 H 57.85201 l -11.695312,6.77734 -16.794922,0.11328 z m 18.050782,0 h 18.4375 l -12.560547,6.65625 -17.564453,0.11719 z m 19.003906,0 h 19.693359 l -13.61914,6.52734 -18.628907,0.125 z m 20.308594,0 H 119.1274 l -14.94531,6.38867 -20.105471,0.13477 z m 22.109379,0 h 24.04882 l -16.64843,6.23437 -22.33399,0.14844 z m 24.80273,0 h 28.19531 l -18.92187,6.05468 -25.90821,0.17383 z m 29.06445,0 h 35.54492 l -22.08203,5.83203 -32.36718,0.2168 z m 59.35547,5.78906 -26.85351,5.56836 -41.32422,0.63281 22.31836,-5.89453 z m -46.92383,0.31445 -22.35546,5.9043 -28.99024,0.44336 19.16211,-6.13086 z m -33.07031,0.22266 -19.18945,6.13867 -23.49024,0.36133 16.89649,-6.32813 z m -26.55078,0.17773 -16.91602,6.33399 -20.531246,0.31445 15.203126,-6.5 z m -22.92578,0.1543 -15.218751,6.50391 -18.708985,0.28711 13.892578,-6.65625 z m -20.658204,0.13867 -13.904297,6.66211 -17.515625,0.26953 12.845703,-6.80664 z m -19.146485,0.12891 -12.855469,6.81055 -16.654296,0.25585 11.990234,-6.94921 z m -18.052734,0.12109 -11.998047,6.95313 -16.041016,0.24609 11.279297,-7.08789 z m -17.261719,0.11524 -11.285156,7.09179 -15.621094,0.23828 10.679688,-7.2207 z m -16.703125,0.11133 -10.685547,7.22656 -15.382812,0.23633 10.169922,-7.35547 z m 267.503907,3.23046 -33.78125,5.10547 -66.86914,1.73828 27.60742,-5.72461 z m -74.44727,1.14063 -27.68945,5.74023 -36.24805,0.94141 22.92774,-6.05469 z m -42.11132,0.64453 -22.97657,6.06836 -25.4707,0.66211 19.65234,-6.28906 z m -29.70899,0.45508 -19.68555,6.29883 -20.996089,0.54492 17.324219,-6.48633 z m -24.14453,0.37109 -17.347656,6.49414 -18.6875,0.48633 15.599609,-6.66797 z m -21.132812,0.32227 -15.617188,6.67578 -17.291016,0.44922 14.271485,-6.83789 z m -19.271485,0.29687 -14.285156,6.84571 -16.392578,0.42578 13.21875,-7.00391 z m -18.042969,0.27539 -13.230468,7.01172 -15.740235,0.4082 12.363282,-7.16406 z m -17.15039,0.26368 -12.373047,7.17187 -15.283203,0.39648 11.654297,-7.32421 z m -16.509766,0.25195 -11.664062,7.33008 -14.984375,0.38867 11.058593,-7.47852 z m -16.072266,0.24609 -11.066406,7.48633 -14.847656,0.38477 10.556641,-7.63477 z m 242.689458,1.1582 -36.61915,5.53711 -59.0625,2.29493 29.47071,-6.11133 z m -67.69727,1.75977 -29.58594,6.13477 -30.50195,1.18359 24.1875,-6.38672 z m 129.53906,0.21484 -47.02344,4.92188 -91.92968,5.0293 40.52344,-6.12696 z m -166.58984,0.7461 -24.25195,6.40625 -21.593754,0.83789 20.587894,-6.58789 z m 194.38672,0.34765 -126.68946,9.5254 51.91016,-5.4336 z m -220.58985,0.33399 -20.632809,6.60156 -18.310547,0.71094 18.085938,-6.77149 z m -21.667965,0.5625 -18.115234,6.7832 -16.730469,0.65039 16.259766,-6.95117 z m -19.300781,0.50195 -16.285156,6.96094 -15.802735,0.61328 14.873047,-7.12695 z m -17.865235,0.46289 -14.890625,7.13672 -15.226562,0.5918 13.785156,-7.30274 z m -16.927734,0.43946 -13.800781,7.3125 -14.798828,0.57617 12.90625,-7.48047 z m -16.246094,0.42187 -12.917969,7.48828 -14.507812,0.56446 12.181641,-7.65626 z m 183.988279,0.10156 -40.91601,6.18555 -49.26563,2.69336 31.9043,-6.61523 z m -199.749998,0.3086 -12.193359,7.66211 -14.337891,0.55664 11.578126,-7.83008 z m -15.443359,0.40039 -11.589844,7.83789 -14.304687,0.55664 11.074219,-8.00781 z m 263.689457,0.84961 -55.61133,5.82031 -79.44141,5.97266 45.67383,-6.9043 z m -108.375,0.76758 -32.07227,6.65039 -23.697265,1.29687 25.662105,-6.77734 z m -31.32422,1.21679 -25.753909,6.80078 -17.208984,0.94141 21.603515,-6.91211 z m -22.349612,0.86914 -21.662109,6.93164 -15.369141,0.83985 18.875,-7.06641 z m -18.998047,0.73828 -18.916015,7.08203 -14.638672,0.80079 16.93164,-7.23633 z m -17.363281,0.67383 -16.962891,7.25 -14.240234,0.7793 15.480469,-7.41797 z m -16.390625,0.63672 -15.505859,7.43164 -14.015625,0.76563 14.357422,-7.60743 z m 122.648435,0.13867 -46.42187,7.01758 -36.001956,2.70703 34.166016,-7.08594 z m -138.423826,0.47461 -14.378906,7.61914 -13.832031,0.75586 13.460937,-7.80078 z m -15.314453,0.5957 -13.478515,7.8125 -13.720704,0.75 12.730469,-8 z m -14.996093,0.58204 -12.746094,8.00976 -13.6875,0.74805 12.128906,-8.20117 z m 196.287112,0.0684 -120.857425,12.65234 46.916015,-7.09375 z m -211.093753,0.50781 -12.140625,8.21094 -13.763672,0.75195 11.626953,-8.4082 z m 133.513673,0.50781 -34.439454,7.14063 -15.404297,1.1582 26.615234,-7.0293 z m -24.535158,1.3418 -26.759765,7.0664 -12.251953,0.92188 22.066406,-7.06059 z m -17.99414,0.98437 -22.154297,7.08789 -12.207031,0.91797 19.164062,-7.17383 z m -16.082031,0.87891 -19.222657,7.19922 -12.470703,0.9375 17.173828,-7.3418 z m -15.291016,0.83789 -17.21875,7.35937 -12.666016,0.95118 15.730469,-7.53711 z m 74.019535,0.76562 -49.150394,7.42969 -17.542969,1.83594 32.173828,-6.66992 z m -88.867191,0.0449 -15.763672,7.55468 -12.822266,0.96485 14.636719,-7.75586 z m -14.582031,0.79882 -14.664063,7.76954 -12.896484,0.9707 13.78125,-7.98633 z m -14.361329,0.78516 -13.804687,8 -12.966797,0.97461 13.09375,-8.22656 z m -14.220703,0.77734 -13.113281,8.24024 -13.072266,0.98242 12.533203,-8.47461 z m 95.46875,0.3418 -32.761718,6.79297 -5.884766,0.61719 23.84375,-6.29688 z m -109.634765,0.4336 -12.548829,8.48632 -13.261718,0.99805 12.076172,-8.73242 z m 93.382812,0.78906 -24.113281,6.36718 -7.306641,0.76368 19.488281,-6.23438 z m -13.068359,0.98242 -19.642578,6.28516 -9.361328,0.97851 16.992187,-6.36133 z m -12.955078,0.97266 -17.095704,6.40039 -10.654296,1.11718 15.412109,-6.58984 z m -13.154297,0.99023 -15.488281,6.61914 -11.416016,1.19531 14.335937,-6.86914 z m -13.294922,1 -14.394531,6.89648 -11.919922,1.24805 13.564453,-7.1875 z m 50.404297,0.38086 -26.326172,3.97851 11.919922,-2.4707 z m -63.814453,0.62695 -13.609375,7.21094 -12.210938,1.27734 12.982422,-7.52343 z m -13.44336,1.00977 -13.021484,7.54687 -12.433594,1.30078 12.535156,-7.87695 z m 60.220703,0.14648 -13.939453,2.89063 8.978516,-2.3711 z m -6.679687,0.69922 -9.765625,2.57813 -5.53125,0.83789 8.425781,-2.69727 z m -67.023438,0.16797 -12.568359,7.89648 -12.652344,1.32422 12.1875,-8.24023 z m 58.859375,0.68555 -8.78125,2.81054 -8.867187,1.33985 8.537109,-3.19532 z m -72.423828,0.33398 -12.214844,8.25977 -12.933593,1.35547 11.917969,-8.6211 z m 62.265625,0.73047 -8.753906,3.27734 -10.580078,1.59961 8.841797,-3.77929 z m -11.384765,1.19141 -8.990235,3.84375 -11.484375,1.73632 9.171875,-4.39648 z m 17.523437,0.10351 -7.042969,1.45899 2.34375,-0.75 z m -6.347656,0.95899 -3.166016,1.01367 -10.300781,2.13476 4.988281,-1.86718 z m -23.261719,0.20312 -9.285156,4.44922 -12.044922,1.82031 9.494141,-5.03125 z m 24.9375,0.0762 -9.615234,2.53907 4.841797,-1.54883 z m -11.419922,1.19336 -5.412109,2.02735 -11.6875,2.42187 6.75,-2.88476 z m -26.058594,0.043 -9.582031,5.07813 -12.353515,1.86718 9.789062,-5.67382 z m 30.234376,0.26563 -7.34961,2.35156 -10.783203,2.84766 8.615234,-3.22657 z m -43.023438,1.07226 -9.859375,5.71485 -12.580078,1.90234 10.056641,-6.32031 z m 27.457031,0.3418 -7.015625,2.99805 -12.33789,2.55859 8.021484,-3.84375 z m 4.359375,0.91016 -9.486328,3.55078 -12.138672,3.20703 10.328125,-4.41602 z m -44.792968,0.10742 -10.115235,6.35547 -12.804687,1.93554 10.308593,-6.9707 z m 28.205078,0.83008 -8.207032,3.93359 -12.726562,2.63867 8.998047,-4.76758 z m -41.373047,0.54882 -10.359375,7.00391 -13.099614,1.98047 10.558598,-7.63477 z m 56.917969,0.10938 -16.953126,5.42383 8.587891,-3.21485 z m -11.560547,1.01758 -10.783203,4.60937 -12.699219,3.35352 11.376953,-5.45313 z m -16.712891,0.24804 -9.134766,4.8418 -12.902343,2.67578 9.767578,-5.66211 z m 17.347656,1.61914 -11.214844,4.19922 -11.693359,3.74219 11.576172,-4.94922 z m -30.332031,0.34375 -9.875,5.72461 -13.041016,2.70313 10.400391,-6.53516 z m 16.511719,0.52344 -11.66211,5.58789 -13.03125,3.44141 12.123047,-6.42383 z m -29.679688,1.46875 -10.488281,6.58984 -13.208985,2.73829 10.94336,-7.40039 z m 30.40625,1.12305 -12.492187,5.33789 -12.550781,4.01562 12.746093,-6.10742 z m -14.228515,0.20703 -12.320313,6.5293 -13.15039,3.47265 12.679687,-7.34961 z m -29.539063,0.68945 -11.017578,7.45117 -13.47852,2.79493 11.43946,-8.27344 z m 40.535156,1.75781 -18.585937,6.95899 9.414062,-4.02539 z m -24.607422,0.375 -12.826171,7.43555 -13.257811,3.5 13.124998,-8.24805 z m 14.177735,0.57813 -13.224609,6.33789 -13.001954,4.1582 13.439454,-7.11914 z m -27.875,2.26367 -13.242187,8.32031 -13.41211,3.54102 13.50977,-9.13672 z m 26.455078,0.57422 -12.164063,5.19922 -11.777343,4.41016 12.234375,-5.86329 z m -12.498047,0.83594 -13.738281,7.28125 -13.154297,4.20898 13.90625,-8.06054 z m -27.781248,1.45508 -13.60547,9.20117 -13.69727,3.61719 13.875,-10.03321 z m 26.726561,2.04492 -13.191407,6.32226 -12.687504,4.75 13.300786,-7.04687 z m -12.900391,0.18554 -14.11328,8.17969 -13.28906,4.25391 14.26171,-8.96289 z m 8.962891,2.95508 -18.511721,7.91211 9.365236,-4.48828 z m -22.958981,0.74219 -14.41602,9.05859 -13.47852,4.3125 14.56836,-9.85351 z m 12.886715,0.59961 -13.800785,7.3125 -12.97851,4.86133 13.88086,-8.04492 z m -26.986325,3.12305 -14.68946,9.93554 -13.8125,4.41797 14.87305,-10.7539 z m 25.109372,0.008 -12.236332,5.86523 -11.86914,5.07227 12.29688,-6.51563 z m -12.199222,1.37305 -14.1914,8.22656 -13.20703,4.94336 14.27929,-8.97071 z m -1.54101,3.77148 -13.29688,7.04688 -12.5664,5.37109 13.32421,-7.72266 z m -12.58789,0.75 -14.49414,9.10742 -13.46485,5.04297 14.60157,-9.87695 z m 8.5332,2.63477 -18.44531,8.83789 9.32422,-4.93946 z m -9.97266,1.86718 -13.84375,8.02344 -12.99414,5.55469 13.89649,-8.73242 z m -12.8125,0.0586 -14.76562,9.98437 -13.87695,5.19727 14.92187,-10.79102 z m 10.73243,3.22656 -12.32227,6.52734 -11.55859,5.53907 12.23047,-7.08789 z m -12.08789,2.01953 -14.21876,8.93555 -13.38281,5.7207 14.31446,-9.68164 z m -1.57032,3.81641 -13.26758,7.68945 -12.54492,6.01172 13.2793,-8.34375 z m -12.77539,1.55468 -14.53906,9.83399 -13.91406,5.94727 14.70117,-10.63282 z m 8.3125,2.21094 -17.54101,9.29297 8.85546,-5.13086 z m -9.61914,2.25391 -13.81641,8.68164 -13.19335,6.32227 13.90234,-9.4004 z m -2.11133,3.36719 -11.95703,6.92968 -11.62305,6.15821 11.99219,-7.53516 z m -12.27929,2.7832 -14.23829,9.63086 -13.91015,6.66601 14.41797,-10.42773 z m -1.39453,3.76953 -13.06641,8.20899 -12.83594,6.80273 13.1875,-8.91992 z m -4.32813,3.88086 -17.41406,10.0918 8.78515,-5.52149 z m -10.00586,2.98828 -13.74805,9.29688 -13.86328,7.3457 13.98633,-10.11523 z m -1.7832,3.25781 -12.00196,7.54102 -11.97656,6.94141 12.14063,-8.21094 z m -14.01758,7.42774 -13.25977,8.9668 -13.66406,7.91796 13.5586,-9.80273 z m -4.24414,4.04687 -17.91602,11.25782 9.04102,-6.11329 z m -12.17578,7.05664 -12.40235,8.38672 -13.00195,8.17188 12.77344,-9.23828 z m -18.89649,12.7793 -19.80273,13.39258 10.01172,-7.24024 z"
       id="path3725"
       inkscape:connector-curvature="0" />
  </g>
</svg>
