<?xml version="1.0" encoding="UTF-8" standalone="no"?>
<!-- Created with Inkscape (http://www.inkscape.org/) -->

<svg
   xmlns:dc="http://purl.org/dc/elements/1.1/"
   xmlns:cc="http://creativecommons.org/ns#"
   xmlns:rdf="http://www.w3.org/1999/02/22-rdf-syntax-ns#"
   xmlns:svg="http://www.w3.org/2000/svg"
   xmlns="http://www.w3.org/2000/svg"
   xmlns:sodipodi="http://sodipodi.sourceforge.net/DTD/sodipodi-0.dtd"
   xmlns:inkscape="http://www.inkscape.org/namespaces/inkscape"
   width="793.70081"
   height="1122.5197"
   viewBox="0 0 210 297"
   version="1.1"
   id="svg8"
   inkscape:version="0.92.4 (unknown)"
   sodipodi:docname="drawing.svg">
  <defs
     id="defs2" />
  <sodipodi:namedview
     id="base"
     pagecolor="#ffffff"
     bordercolor="#666666"
     borderopacity="1.0"
     inkscape:pageopacity="0.0"
     inkscape:pageshadow="2"
     inkscape:zoom="0.35355339"
     inkscape:cx="2454.3215"
     inkscape:cy="1053.0214"
     inkscape:document-units="px"
     inkscape:current-layer="layer1"
     showgrid="false"
     units="px"
     showborder="false"
     inkscape:object-paths="true"
     inkscape:snap-intersection-paths="true"
     inkscape:snap-smooth-nodes="true"
     inkscape:snap-midpoints="true"
     inkscape:snap-nodes="true"
     showguides="false"
     inkscape:window-width="1268"
     inkscape:window-height="685"
     inkscape:window-x="0"
     inkscape:window-y="284"
     inkscape:window-maximized="0" />
  <metadata
     id="metadata5">
    <rdf:RDF>
      <cc:Work
         rdf:about="">
        <dc:format>image/svg+xml</dc:format>
        <dc:type
           rdf:resource="http://purl.org/dc/dcmitype/StillImage" />
        <dc:title></dc:title>
      </cc:Work>
    </rdf:RDF>
  </metadata>
  <g
     inkscape:label="Layer 1"
     inkscape:groupmode="layer"
     id="layer1">
    <path
       style="fill:none;stroke:#000000;stroke-width:2.64583325;stroke-linecap:round;stroke-linejoin:round;stroke-miterlimit:4;stroke-dasharray:none"
       d="m 468.93886,56.263179 c 1.68643,-0.813895 3.82882,-1.798016 5.17115,-2.370796 4.54803,-1.9407 8.72472,-4.287229 11.77396,-6.614808 0.80034,-0.610942 2.21425,-1.493634 3.14198,-1.961513 2.03973,-1.028721 3.9388,-2.86993 4.75202,-4.607261 0.33057,-0.706249 1.50239,-2.31359 2.60403,-3.57188 2.26026,-2.581668 5.02865,-6.398259 6.67105,-9.196897 1.01237,-1.725102 1.37951,-2.075661 4.40309,-4.204237 1.93439,-1.361784 3.29864,-2.501469 3.29864,-2.755646 0,-0.898618 1.8801,-4.307575 3.08774,-5.598636 1.65666,-1.771094 2.10614,-2.001866 2.75513,-1.414539 0.45916,0.415544 0.50713,0.855636 0.50713,4.651297 0,2.305778 0.0921,4.192326 0.20465,4.192326 0.11256,0 1.14999,-0.950915 2.3054,-2.113145 1.15543,-1.16223 2.19334,-2.020575 2.30648,-1.907429 0.11313,0.113139 -0.14177,1.034291 -0.56648,2.046997 -0.42468,1.012706 -0.91307,2.40325 -1.08529,3.090095 l -0.31314,1.248807 1.44069,1.592009 c 2.12248,2.34543 2.94944,3.995131 2.7714,5.528759 l -0.14274,1.229532 3.11782,3.175 c 1.71482,1.746249 3.25263,3.433947 3.41736,3.750439 0.26509,0.50923 0.14227,0.747538 -1.06735,2.07105 -1.40843,1.541039 -3.6516,3.031169 -4.58357,3.044859 -0.29104,0.004 -2.10555,-0.376801 -4.03225,-0.846841 -2.21366,-0.540049 -3.58984,-0.761119 -3.73877,-0.600599 -0.12965,0.1397 -0.78309,2.705063 -1.45214,5.700792 l -1.21642,5.446781 0.16184,0.987486"
       id="path853"
       inkscape:connector-curvature="0" />
    <path
       style="fill:none;stroke:#000000;stroke-width:2.64583325;stroke-linecap:round;stroke-linejoin:bevel;stroke-miterlimit:4;stroke-dasharray:none;stroke-opacity:1"
       d="m 468.93886,56.263179 h -13.63832 l -2.15633,-9.728611 -2.88394,19.363677 -4.80217,-25.163426 -3.6777,29.934188 -4.60373,-34.237227 -2.6855,19.831399 h -15.13079"
       id="path859"
       inkscape:connector-curvature="0"
       sodipodi:nodetypes="ccccccccc" />
    <path
       sodipodi:nodetypes="ccccccccc"
       inkscape:connector-curvature="0"
       id="path861"
       d="m 427.94731,56.263179 h -13.63832 l -2.15633,-9.728611 -2.88394,19.363677 -4.80217,-25.163426 -3.6777,29.934188 -4.60373,-34.237227 -2.6855,19.831399 h -32.52714"
       style="fill:none;stroke:#000000;stroke-width:2.64583325;stroke-linecap:round;stroke-linejoin:bevel;stroke-miterlimit:4;stroke-dasharray:none;stroke-opacity:1" />
    <path
       sodipodi:nodetypes="ccccccccc"
       inkscape:connector-curvature="0"
       id="path863"
       d="m 611.22011,56.255181 h -50.49479 l -2.15633,-9.728611 -2.88394,19.363677 -4.80217,-25.163426 -3.6777,29.934188 -4.60373,-34.237227 -2.6855,19.831399 h -25.28368"
       style="fill:none;stroke:#000000;stroke-width:2.64583325;stroke-linecap:round;stroke-linejoin:bevel;stroke-miterlimit:4;stroke-dasharray:none;stroke-opacity:1" />
    <path
       style="color:#000000;font-style:normal;font-variant:normal;font-weight:normal;font-stretch:normal;font-size:medium;line-height:normal;font-family:sans-serif;font-variant-ligatures:normal;font-variant-position:normal;font-variant-caps:normal;font-variant-numeric:normal;font-variant-alternates:normal;font-feature-settings:normal;text-indent:0;text-align:start;text-decoration:none;text-decoration-line:none;text-decoration-style:solid;text-decoration-color:#000000;letter-spacing:normal;word-spacing:normal;text-transform:none;writing-mode:lr-tb;direction:ltr;text-orientation:mixed;dominant-baseline:auto;baseline-shift:baseline;text-anchor:start;white-space:normal;shape-padding:0;clip-rule:nonzero;display:inline;overflow:visible;visibility:visible;opacity:1;isolation:auto;mix-blend-mode:normal;color-interpolation:sRGB;color-interpolation-filters:linearRGB;solid-color:#000000;solid-opacity:1;vector-effect:none;fill:#008000;fill-opacity:1;fill-rule:nonzero;stroke:none;stroke-width:2.64583325;stroke-linecap:round;stroke-linejoin:round;stroke-miterlimit:4;stroke-dasharray:none;stroke-dashoffset:0;stroke-opacity:1;color-rendering:auto;image-rendering:auto;shape-rendering:auto;text-rendering:auto;enable-background:accumulate"
       d="m 802.14778,7.104947 c -0.49373,-0.10317 -1.02565,0.0224 -1.40429,0.2168 -0.75729,0.3888 -1.26767,0.95703 -2.11719,1.86523 -0.76667,0.81963 -1.53254,2.01983 -2.18945,3.21094 -0.32846,0.59556 -0.61847,1.17821 -0.83985,1.70703 -0.13704,0.32736 -0.18132,0.66268 -0.25781,0.98047 -0.008,0.01 -10e-4,0.002 -0.0293,0.0312 -0.10112,0.10479 -0.30842,0.29423 -0.57812,0.51953 -0.5394,0.45061 -1.34226,1.0614 -2.28711,1.72656 -1.51914,1.06946 -2.40504,1.70825 -3.10742,2.37891 -0.70238,0.67066 -1.15407,1.34731 -1.67579,2.23633 -1.57968,2.69177 -4.33812,6.4978 -6.52539,8.99609 -1.16316,1.32857 -2.29391,2.78739 -2.80664,3.88281 -0.63011,1.34616 -2.3806,3.09474 -4.14843,3.98633 -1.04251,0.52577 -2.44046,1.39779 -3.34961,2.0918 -2.92698,2.23425 -7.02735,4.54485 -11.49024,6.44922 -1.37809,0.58804 -3.52109,1.57339 -5.22656,2.39648 a 1.3230489,1.3230489 0 1 0 1.14844,2.38282 c 1.66739,-0.80472 3.80866,-1.78819 5.11523,-2.34571 4.63317,-1.97703 8.88709,-4.36034 12.0586,-6.78125 0.69152,-0.52787 2.12259,-1.42008 2.93554,-1.83008 2.31163,-1.16585 4.35719,-3.10001 5.35352,-5.22851 0.14841,-0.31708 1.36223,-2.07371 2.40234,-3.26172 2.33326,-2.66505 5.11129,-6.49293 6.81641,-9.39844 0.49065,-0.83608 0.72857,-1.19602 1.21875,-1.66406 0.49017,-0.46804 1.30024,-1.06783 2.80469,-2.12695 0.98954,-0.69662 1.83461,-1.33811 2.46093,-1.86133 0.31316,-0.26161 0.57003,-0.48995 0.78516,-0.71289 0.10756,-0.11147 0.20385,-0.21698 0.30859,-0.36524 0.10475,-0.14826 0.30469,-0.27494 0.30469,-0.89843 0,0.23664 0.0421,-0.15907 0.21094,-0.5625 0.16888,-0.40344 0.42232,-0.92078 0.71484,-1.45118 0.58504,-1.06078 1.36372,-2.2102 1.80469,-2.68164 0.52472,-0.56096 0.6695,-0.65446 0.90625,-0.85742 0.0452,0.53852 0.0684,1.43971 0.0684,3.18945 0,1.17051 0.0219,2.23299 0.0606,3.0254 0.0193,0.3962 0.0416,0.72131 0.0723,0.98828 0.0153,0.13348 0.0299,0.24434 0.0664,0.39843 0.0182,0.077 0.0324,0.15857 0.11328,0.32813 0.0404,0.0848 0.0905,0.19831 0.24609,0.36133 0.15564,0.16301 0.50327,0.41406 0.96875,0.41406 0.47271,0 0.54455,-0.1107 0.63672,-0.1582 0.0922,-0.0475 0.14495,-0.0822 0.19336,-0.11524 0.0968,-0.0661 0.1694,-0.12386 0.25195,-0.1914 0.1651,-0.1351 0.35244,-0.30241 0.57227,-0.50391 0.0737,-0.0676 0.18563,-0.18299 0.26562,-0.25781 -0.0671,0.21934 -0.19868,0.51791 -0.24414,0.69922 l -0.3125,1.24804 a 1.3230489,1.3230489 0 0 0 0.30274,1.20899 l 1.43945,1.59375 c 2.03011,2.24335 2.55085,3.5287 2.43945,4.48828 l -0.14257,1.22851 a 1.3230489,1.3230489 0 0 0 0.36914,1.08008 l 3.11914,3.17578 c 0.84664,0.86217 1.65122,1.71143 2.25586,2.375 0.30232,0.33179 0.55383,0.61688 0.73047,0.82618 0.002,0.002 3.7e-4,6e-5 0.002,0.002 -0.10872,0.14261 -0.22253,0.30717 -0.67188,0.79883 -0.61151,0.66909 -1.46362,1.37794 -2.22656,1.88476 -0.7621,0.50626 -1.61909,0.73129 -1.39844,0.72852 0.23454,-0.003 -0.0161,-0.006 -0.23437,-0.0449 -0.21829,-0.0385 -0.52272,-0.0971 -0.87891,-0.17188 -0.71238,-0.14958 -1.63752,-0.35994 -2.58789,-0.5918 -1.12777,-0.27513 -2.0455,-0.47144 -2.74609,-0.58398 -0.3503,-0.0563 -0.64027,-0.0935 -0.92188,-0.10352 -0.1408,-0.005 -0.2768,-0.006 -0.46289,0.0215 -0.18608,0.0273 -0.47506,0.003 -0.89062,0.45117 -0.2572,0.27713 -0.23474,0.33762 -0.26953,0.41602 -0.0348,0.0784 -0.0572,0.14043 -0.0801,0.20507 -0.0457,0.12928 -0.0898,0.26875 -0.13867,0.43555 -0.0978,0.3336 -0.21374,0.76916 -0.34766,1.29492 -0.26785,1.05153 -0.60051,2.45206 -0.9375,3.96094 l -1.2168,5.44531 a 1.3230489,1.3230489 0 0 0 -0.0137,0.50391 l 0.16211,0.98633 a 1.3230489,1.3230489 0 1 0 2.60938,-0.42774 l -0.11914,-0.73437 1.16015,-5.19727 c 0.33207,-1.48685 0.66138,-2.8678 0.91992,-3.88281 0.0801,-0.31447 0.13525,-0.51386 0.19922,-0.74805 0.57809,0.0953 1.41183,0.26997 2.4668,0.52735 0.97633,0.23818 1.92256,0.45399 2.67187,0.61132 0.37466,0.0787 0.6989,0.14295 0.96289,0.18946 0.264,0.0465 0.35042,0.0892 0.73047,0.084 1.15525,-0.017 1.88243,-0.54494 2.82618,-1.17187 0.94374,-0.62693 1.91793,-1.43079 2.71484,-2.30274 0.61644,-0.67448 0.99249,-1.05724 1.28711,-1.6289 0.14731,-0.28584 0.26333,-0.67682 0.24023,-1.0625 -0.0231,-0.38568 -0.15856,-0.68286 -0.26367,-0.88477 -0.20806,-0.39974 -0.31182,-0.46411 -0.52344,-0.71484 -0.21161,-0.25074 -0.48175,-0.55632 -0.79883,-0.9043 -0.63415,-0.69597 -1.45604,-1.56318 -2.32421,-2.44727 l -2.67383,-2.72265 0.0684,-0.60156 c 0.24468,-2.10768 -0.88867,-4.12086 -3.10352,-6.56836 l -0.9668,-1.06836 0.14063,-0.56446 c 0.13117,-0.52311 0.62589,-1.9524 1.02344,-2.90039 0.23117,-0.55123 0.41512,-1.07166 0.53906,-1.51953 0.062,-0.22393 0.11045,-0.42253 0.13867,-0.65039 0.0141,-0.11393 0.0262,-0.23218 0.0117,-0.41406 -0.0145,-0.18189 0.0111,-0.49084 -0.4082,-0.91016 -0.3337,-0.3337 -0.76431,-0.40242 -1,-0.39648 -0.23569,0.006 -0.36414,0.0529 -0.4668,0.0898 -0.20532,0.0738 -0.30991,0.14162 -0.41992,0.21094 -0.22002,0.13864 -0.42033,0.29479 -0.6543,0.48828 -0.46794,0.38698 -1.03612,0.91148 -1.63867,1.51758 -0.0838,0.0843 -0.14042,0.1331 -0.22266,0.21484 -0.009,-0.46744 -0.0273,-0.82776 -0.0273,-1.36133 0,-1.9034 -0.003,-2.95905 -0.0879,-3.73632 -0.0424,-0.38864 -0.1063,-0.72795 -0.25586,-1.07227 -0.14956,-0.34432 -0.40523,-0.64811 -0.59766,-0.82227 -0.25053,-0.22672 -0.59416,-0.48667 -1.08789,-0.58984 z"
       id="path865"
       inkscape:connector-curvature="0" />
    <path
       style="color:#000000;font-style:normal;font-variant:normal;font-weight:normal;font-stretch:normal;font-size:medium;line-height:normal;font-family:sans-serif;font-variant-ligatures:normal;font-variant-position:normal;font-variant-caps:normal;font-variant-numeric:normal;font-variant-alternates:normal;font-feature-settings:normal;text-indent:0;text-align:start;text-decoration:none;text-decoration-line:none;text-decoration-style:solid;text-decoration-color:#000000;letter-spacing:normal;word-spacing:normal;text-transform:none;writing-mode:lr-tb;direction:ltr;text-orientation:mixed;dominant-baseline:auto;baseline-shift:baseline;text-anchor:start;white-space:normal;shape-padding:0;clip-rule:nonzero;display:inline;overflow:visible;visibility:visible;opacity:1;isolation:auto;mix-blend-mode:normal;color-interpolation:sRGB;color-interpolation-filters:linearRGB;solid-color:#000000;solid-opacity:1;vector-effect:none;fill:#008000;fill-opacity:1;fill-rule:nonzero;stroke:none;stroke-width:2.64583325;stroke-linecap:round;stroke-linejoin:bevel;stroke-miterlimit:4;stroke-dasharray:none;stroke-dashoffset:0;stroke-opacity:1;color-rendering:auto;image-rendering:auto;shape-rendering:auto;text-rendering:auto;enable-background:accumulate"
       d="m 721.61653,30.962367 -2.53125,18.68555 h -9.21289 a 1.32324,1.32324 0 1 0 0,2.64648 h 10.36914 l 1.31055,-1.14453 1.36914,-10.11523 3.29883,24.51953 2.62305,-0.0156 2.64843,-21.55469 3.21875,16.87109 2.60938,-0.0527 1.83008,-12.29493 0.60937,2.75 1.29102,1.03711 h 13.63867 a 1.32324,1.32324 0 1 0 0,-2.64648 h -12.57617 l -1.92774,-8.69141 -2.59961,0.0918 -1.73633,11.6582 -3.34179,-17.51172 -2.61133,0.0879 -2.42383,19.73242 -3.23437,-24.05078 z"
       id="path867"
       inkscape:connector-curvature="0" />
    <path
       style="color:#000000;font-style:normal;font-variant:normal;font-weight:normal;font-stretch:normal;font-size:medium;line-height:normal;font-family:sans-serif;font-variant-ligatures:normal;font-variant-position:normal;font-variant-caps:normal;font-variant-numeric:normal;font-variant-alternates:normal;font-feature-settings:normal;text-indent:0;text-align:start;text-decoration:none;text-decoration-line:none;text-decoration-style:solid;text-decoration-color:#000000;letter-spacing:normal;word-spacing:normal;text-transform:none;writing-mode:lr-tb;direction:ltr;text-orientation:mixed;dominant-baseline:auto;baseline-shift:baseline;text-anchor:start;white-space:normal;shape-padding:0;clip-rule:nonzero;display:inline;overflow:visible;visibility:visible;opacity:1;isolation:auto;mix-blend-mode:normal;color-interpolation:sRGB;color-interpolation-filters:linearRGB;solid-color:#000000;solid-opacity:1;vector-effect:none;fill:#008000;fill-opacity:1;fill-rule:nonzero;stroke:none;stroke-width:2.64583325;stroke-linecap:round;stroke-linejoin:bevel;stroke-miterlimit:4;stroke-dasharray:none;stroke-dashoffset:0;stroke-opacity:1;color-rendering:auto;image-rendering:auto;shape-rendering:auto;text-rendering:auto;enable-background:accumulate"
       d="m 686.42122,30.962367 -2.5293,18.68555 h -12.47656 a 1.32324,1.32324 0 1 0 0,2.64648 h 13.63281 l 1.31055,-1.14453 1.36914,-10.11328 3.29688,24.51758 2.625,-0.0156 2.64843,-21.55079 3.21875,16.86719 2.60743,-0.0527 1.83203,-12.29688 0.60937,2.75195 1.29102,1.03711 h 13.63867 a 1.32324,1.32324 0 1 0 0,-2.64648 h -12.57617 l -1.92774,-8.69141 -2.59961,0.0918 -1.73632,11.65625 -3.3418,-17.50977 -2.61328,0.0879 -2.42383,19.7246 -3.23242,-24.04296 z"
       id="path869"
       inkscape:connector-curvature="0" />
    <path
       style="color:#000000;font-style:normal;font-variant:normal;font-weight:normal;font-stretch:normal;font-size:medium;line-height:normal;font-family:sans-serif;font-variant-ligatures:normal;font-variant-position:normal;font-variant-caps:normal;font-variant-numeric:normal;font-variant-alternates:normal;font-feature-settings:normal;text-indent:0;text-align:start;text-decoration:none;text-decoration-line:none;text-decoration-style:solid;text-decoration-color:#000000;letter-spacing:normal;word-spacing:normal;text-transform:none;writing-mode:lr-tb;direction:ltr;text-orientation:mixed;dominant-baseline:auto;baseline-shift:baseline;text-anchor:start;white-space:normal;shape-padding:0;clip-rule:nonzero;display:inline;overflow:visible;visibility:visible;opacity:1;isolation:auto;mix-blend-mode:normal;color-interpolation:sRGB;color-interpolation-filters:linearRGB;solid-color:#000000;solid-opacity:1;vector-effect:none;fill:#008000;fill-opacity:1;fill-rule:nonzero;stroke:none;stroke-width:2.64583325;stroke-linecap:round;stroke-linejoin:bevel;stroke-miterlimit:4;stroke-dasharray:none;stroke-dashoffset:0;stroke-opacity:1;color-rendering:auto;image-rendering:auto;shape-rendering:auto;text-rendering:auto;enable-background:accumulate"
       d="m 825.94856,35.759247 -2.60351,0.004 -2.49024,13.87696 h -20.47265 a 1.32324,1.32324 0 1 0 0,2.64648 h 21.58008 l 1.30078,-1.08984 1.39062,-7.75391 3.29492,18.14063 h 2.60352 l 2.74219,-15.13282 3.17773,9.78516 2.53125,-0.0449 1.83789,-6.44141 0.70703,1.7168 1.22266,0.82031 h 20.86133 a 1.32324,1.32324 0 1 0 0,-2.64648 h -19.97461 l -1.82031,-4.41797 -2.49414,0.14062 -1.69336,5.93164 -3.46289,-10.65625 -2.56055,0.17383 -2.37695,13.1211 z"
       id="path871"
       inkscape:connector-curvature="0" />
  </g>
</svg>
