<?xml version="1.0" encoding="UTF-8" standalone="no"?>
<!-- Created with Inkscape (http://www.inkscape.org/) -->

<svg
   xmlns:dc="http://purl.org/dc/elements/1.1/"
   xmlns:cc="http://creativecommons.org/ns#"
   xmlns:rdf="http://www.w3.org/1999/02/22-rdf-syntax-ns#"
   xmlns:svg="http://www.w3.org/2000/svg"
   xmlns="http://www.w3.org/2000/svg"
   xmlns:sodipodi="http://sodipodi.sourceforge.net/DTD/sodipodi-0.dtd"
   xmlns:inkscape="http://www.inkscape.org/namespaces/inkscape"
   width="2000"
   height="2000"
   viewBox="0 0 529.16665 529.16668"
   version="1.1"
   id="svg8"
   inkscape:version="0.92.5 (0.92.5+68)"
   sodipodi:docname="drawing - inkscape file.svg">
  <defs
     id="defs2" />
  <sodipodi:namedview
     id="base"
     pagecolor="#ffffff"
     bordercolor="#666666"
     borderopacity="1.0"
     inkscape:pageopacity="0.0"
     inkscape:pageshadow="2"
     inkscape:zoom="0.16166992"
     inkscape:cx="927.68854"
     inkscape:cy="600.41074"
     inkscape:document-units="px"
     inkscape:current-layer="layer1"
     showgrid="false"
     units="px"
     inkscape:snap-nodes="false"
     inkscape:window-width="1319"
     inkscape:window-height="704"
     inkscape:window-x="47"
     inkscape:window-y="27"
     inkscape:window-maximized="1" />
  <metadata
     id="metadata5">
    <rdf:RDF>
      <cc:Work
         rdf:about="">
        <dc:format>image/svg+xml</dc:format>
        <dc:type
           rdf:resource="http://purl.org/dc/dcmitype/StillImage" />
        <dc:title></dc:title>
      </cc:Work>
    </rdf:RDF>
  </metadata>
  <g
     inkscape:label="Layer 1"
     inkscape:groupmode="layer"
     id="layer1"
     transform="translate(0,232.16668)">
    <path
       transform="rotate(45)"
       style="opacity:1;fill:#0024ff;fill-opacity:1;stroke:#ffffff;stroke-width:0.54048693;stroke-linecap:round;stroke-linejoin:round;stroke-miterlimit:4;stroke-dasharray:none;stroke-opacity:1"
       d="m 72.212967,-294.62775 c 0,0 237.439103,28.81036 288.619873,119.4892 24.33552,43.11614 26.61322,97.953059 -22.2822,146.84848 C 289.65522,20.605351 234.8183,18.327655 191.70216,-6.007871 101.02332,-57.188641 72.212967,-294.62775 72.212967,-294.62775 Z"
       id="rect815"
       inkscape:connector-curvature="0"
       sodipodi:nodetypes="cazac" />
    <path
       sodipodi:nodetypes="cazac"
       inkscape:connector-curvature="0"
       id="path818"
       d="m 259.39556,-143.14053 c 0,0 133.50799,170.381271 108.23195,261.16163 -12.01831,43.1644 -45.65257,79.71381 -108.23196,79.71381 -62.57939,0 -96.21365,-36.54941 -108.23196,-79.71381 -25.27603,-90.780359 108.23197,-261.16163 108.23197,-261.16163 z"
       style="opacity:1;fill:#0082ff;fill-opacity:1;stroke:none;stroke-width:0.48914015;stroke-linecap:round;stroke-linejoin:round;stroke-miterlimit:4;stroke-dasharray:none;stroke-opacity:1" />
    <path
       style="opacity:1;fill:#00c0ff;fill-opacity:1;stroke:none;stroke-width:0.3797988;stroke-linecap:round;stroke-linejoin:round;stroke-miterlimit:4;stroke-dasharray:none;stroke-opacity:1"
       d="m 259.39556,-138.30194 c 0,0 103.66389,132.2945963 84.038,202.782102 -9.33176,33.515523 -35.44749,61.894758 -84.03801,61.894758 -48.59052,0 -74.70625,-28.379235 -84.03801,-61.894758 -19.62589,-70.4875057 84.03802,-202.782102 84.03802,-202.782102 z"
       id="path820"
       inkscape:connector-curvature="0"
       sodipodi:nodetypes="cazac" />
    <path
       sodipodi:nodetypes="cazac"
       inkscape:connector-curvature="0"
       id="path822"
       d="m 259.39556,-132.57396 c 0,0 64.56408,82.395895 52.34065,126.2970176 -5.81202,20.8741834 -22.07744,38.5493764 -52.34066,38.5493764 -30.26322,0 -46.52864,-17.675193 -52.34066,-38.5493764 C 194.83146,-50.178065 259.39556,-132.57396 259.39556,-132.57396 Z"
       style="opacity:1;fill:#4fd4ff;fill-opacity:1;stroke:none;stroke-width:0.23654681;stroke-linecap:round;stroke-linejoin:round;stroke-miterlimit:4;stroke-dasharray:none;stroke-opacity:1" />
    <path
       style="opacity:1;fill:#ffffff;fill-opacity:1;stroke:none;stroke-width:1.7643975;stroke-linecap:round;stroke-linejoin:round;stroke-miterlimit:4;stroke-dasharray:none;stroke-opacity:1"
       d="M 1382.2051 1193.8086 C 1380.5565 1214.4538 1377.2265 1234.3258 1371.9629 1253.2305 C 1328.6111 1408.9306 1207.2873 1540.7695 981.55469 1540.7695 C 755.82199 1540.7695 634.49823 1408.9306 591.14648 1253.2305 C 585.88301 1234.3264 582.55098 1214.455 580.90234 1193.8105 C 577.71277 1238.1073 580.57202 1279.9528 591.14648 1317.9316 C 634.49823 1473.6317 755.82199 1605.4707 981.55469 1605.4707 C 1207.2873 1605.4707 1328.6111 1473.6317 1371.9629 1317.9316 C 1382.5375 1279.9523 1385.3949 1238.1061 1382.2051 1193.8086 z "
       transform="matrix(0.26458333,0,0,0.26458333,0,-232.16668)"
       id="path824" />
    <path
       style="opacity:1;fill:#ffffff;fill-opacity:1;stroke:none;stroke-width:1.309937;stroke-linecap:round;stroke-linejoin:round;stroke-miterlimit:4;stroke-dasharray:none;stroke-opacity:1"
       d="M 1270.5488 952.48438 C 1269.3663 957.59232 1268.0825 962.64908 1266.6895 967.65234 C 1223.4741 1122.8627 1118.5759 1259.1936 935.41211 1308.8789 C 949.73914 1310.5239 964.72694 1311.3809 980.39258 1311.3809 C 1147.9827 1311.3809 1238.0567 1213.5003 1270.2422 1097.9043 C 1282.2233 1054.8736 1280.8708 1005.1597 1270.5488 952.48438 z "
       transform="matrix(0.26458333,0,0,0.26458333,0,-232.16668)"
       id="path829" />
    <ellipse
       style="opacity:1;fill:#ffffff;fill-opacity:1;stroke:none;stroke-width:0.79374999;stroke-linecap:round;stroke-linejoin:round;stroke-miterlimit:4;stroke-dasharray:none;stroke-opacity:1"
       id="path835"
       cx="292.2511"
       cy="83.627884"
       rx="11.046813"
       ry="18.002214"
       transform="rotate(-15)" />
    <ellipse
       ry="13.051858"
       rx="8.0090942"
       cy="46.962322"
       cx="291.62711"
       id="ellipse837"
       style="opacity:1;fill:#ffffff;fill-opacity:1;stroke:none;stroke-width:0.57547987;stroke-linecap:round;stroke-linejoin:round;stroke-miterlimit:4;stroke-dasharray:none;stroke-opacity:1"
       transform="rotate(-15)" />
    <ellipse
       style="opacity:1;fill:#ffffff;fill-opacity:1;stroke:none;stroke-width:0.42240733;stroke-linecap:round;stroke-linejoin:round;stroke-miterlimit:4;stroke-dasharray:none;stroke-opacity:1"
       id="ellipse839"
       cx="291.52191"
       cy="18.718821"
       rx="5.878746"
       ry="9.5801792"
       transform="rotate(-15)" />
  </g>
</svg>
