<?xml version="1.0" encoding="UTF-8" standalone="no"?>
<!-- Created with Inkscape (http://www.inkscape.org/) -->

<svg
   xmlns:dc="http://purl.org/dc/elements/1.1/"
   xmlns:cc="http://creativecommons.org/ns#"
   xmlns:rdf="http://www.w3.org/1999/02/22-rdf-syntax-ns#"
   xmlns:svg="http://www.w3.org/2000/svg"
   xmlns="http://www.w3.org/2000/svg"
   xmlns:sodipodi="http://sodipodi.sourceforge.net/DTD/sodipodi-0.dtd"
   xmlns:inkscape="http://www.inkscape.org/namespaces/inkscape"
   width="1000"
   height="1000"
   viewBox="0 0 264.58333 264.58334"
   version="1.1"
   id="svg877"
   inkscape:version="0.92.4 (unknown)"
   sodipodi:docname="drawing.svg">
  <defs
     id="defs871" />
  <sodipodi:namedview
     id="base"
     pagecolor="#ffffff"
     bordercolor="#666666"
     borderopacity="1.0"
     inkscape:pageopacity="0.0"
     inkscape:pageshadow="2"
     inkscape:zoom="0.49497475"
     inkscape:cx="447.07465"
     inkscape:cy="555.3355"
     inkscape:document-units="px"
     inkscape:current-layer="layer1"
     showgrid="false"
     units="px"
     inkscape:showpageshadow="false"
     inkscape:snap-nodes="false"
     inkscape:window-width="1273"
     inkscape:window-height="686"
     inkscape:window-x="0"
     inkscape:window-y="282"
     inkscape:window-maximized="0" />
  <metadata
     id="metadata874">
    <rdf:RDF>
      <cc:Work
         rdf:about="">
        <dc:format>image/svg+xml</dc:format>
        <dc:type
           rdf:resource="http://purl.org/dc/dcmitype/StillImage" />
        <dc:title></dc:title>
      </cc:Work>
    </rdf:RDF>
  </metadata>
  <g
     inkscape:label="Layer 1"
     inkscape:groupmode="layer"
     id="layer1"
     transform="translate(0,-32.41665)">
    <path
       inkscape:connector-curvature="0"
       id="path1424"
       d="m 98.394975,148.98162 a 40.624966,40.624966 0 0 1 -21.512322,53.0914 40.624966,40.624966 0 0 1 -53.21627,-21.20154 40.624966,40.624966 0 0 1 20.890031,-53.33932 40.624966,40.624966 0 0 1 53.46055,20.57781"
       style="opacity:1;fill:#ffffff;fill-opacity:1;fill-rule:evenodd;stroke:#1e1b63;stroke-width:3.17499995;stroke-linecap:round;stroke-linejoin:round;stroke-miterlimit:4;stroke-dasharray:none;stroke-opacity:1" />
    <g
       id="g1483"
       style="opacity:1">
      <g
         id="g1475"
         style="">
        <path
           style="opacity:1;fill:none;fill-opacity:1;fill-rule:evenodd;stroke:#1e1b63;stroke-width:5.35054493;stroke-linecap:round;stroke-linejoin:round;stroke-miterlimit:4;stroke-dasharray:none;stroke-opacity:1"
           d="m 307.87415,411.26437 a 117.85294,117.85294 0 0 1 30.0084,40.58382"
           id="path1466"
           transform="matrix(0.26458333,0,0,0.26458333,0,32.41665)"
           inkscape:connector-curvature="0" />
        <path
           style="opacity:1;fill:none;fill-opacity:1;fill-rule:evenodd;stroke:#1e1b63;stroke-width:5.35054493;stroke-linecap:round;stroke-linejoin:round;stroke-miterlimit:4;stroke-dasharray:none;stroke-opacity:1"
           d="M 338.97916,454.37685 A 117.85294,117.85294 0 0 1 305.69252,590.59476"
           id="path1437"
           transform="matrix(0.26458333,0,0,0.26458333,0,32.41665)"
           inkscape:connector-curvature="0" />
      </g>
      <g
         id="g1471"
         style="">
        <path
           style="opacity:1;fill:none;fill-opacity:1;fill-rule:evenodd;stroke:#1e1b63;stroke-width:4.81158447;stroke-linecap:round;stroke-linejoin:round;stroke-miterlimit:4;stroke-dasharray:none;stroke-opacity:1"
           d="m 300.27011,420.38537 a 105.98161,105.98161 0 0 1 26.77721,36.31314"
           id="path1457"
           transform="matrix(0.26458333,0,0,0.26458333,0,32.41665)"
           inkscape:connector-curvature="0" />
        <path
           style="opacity:1;fill:none;fill-opacity:1;fill-rule:evenodd;stroke:#1e1b63;stroke-width:4.81158447;stroke-linecap:round;stroke-linejoin:round;stroke-miterlimit:4;stroke-dasharray:none;stroke-opacity:1"
           d="M 328.03347,458.97246 A 105.98161,105.98161 0 0 1 297.53765,581.93359"
           id="path1439"
           inkscape:connector-curvature="0"
           transform="matrix(0.26458333,0,0,0.26458333,0,32.41665)" />
      </g>
    </g>
    <path
       style="opacity:1;fill:none;fill-opacity:1;fill-rule:evenodd;stroke:#1e1b63;stroke-width:1.54910445;stroke-linecap:round;stroke-linejoin:round;stroke-miterlimit:4;stroke-dasharray:none;stroke-opacity:1"
       d="m 32.838292,199.81374 a 44.966246,44.966246 0 0 1 -5.553126,-5.28126 44.966246,44.966246 0 0 1 3.631602,-63.30162 44.966246,44.966246 0 0 1 0.180481,-0.16097"
       id="path1433"
       inkscape:connector-curvature="0" />
    <g
       id="g1487"
       style="opacity:1">
      <path
         inkscape:connector-curvature="0"
         transform="matrix(0.26458333,0,0,0.26458333,0,32.41665)"
         id="path1462"
         d="m 151.23363,587.3804 a 117.85294,117.85294 0 0 1 -29.04196,-40.49113 117.85294,117.85294 0 0 1 32.2791,-137.09515"
         style="opacity:1;fill:none;fill-opacity:1;fill-rule:evenodd;stroke:#1e1b63;stroke-width:5.35054493;stroke-linecap:round;stroke-linejoin:round;stroke-miterlimit:4;stroke-dasharray:none;stroke-opacity:1" />
      <path
         inkscape:connector-curvature="0"
         transform="matrix(0.26458333,0,0,0.26458333,0,32.41665)"
         id="path1453"
         d="M 160.44322,579.68645 A 105.98161,105.98161 0 0 1 133.08299,542.1661 105.98161,105.98161 0 0 1 163.17313,417.99893"
         style="opacity:1;fill:none;fill-opacity:1;fill-rule:evenodd;stroke:#1e1b63;stroke-width:4.81158447;stroke-linecap:round;stroke-linejoin:round;stroke-miterlimit:4;stroke-dasharray:none;stroke-opacity:1" />
    </g>
    <path
       inkscape:connector-curvature="0"
       id="path1543"
       d="m 162.95028,148.98162 a 40.624966,40.624966 0 0 0 21.51233,53.0914 40.624966,40.624966 0 0 0 53.21627,-21.20154 40.624966,40.624966 0 0 0 -20.89003,-53.33932 40.624966,40.624966 0 0 0 -53.46055,20.57781"
       style="opacity:1;fill:#ffffff;fill-opacity:1;fill-rule:evenodd;stroke:#1e1b63;stroke-width:3.17499995;stroke-linecap:round;stroke-linejoin:round;stroke-miterlimit:4;stroke-dasharray:none;stroke-opacity:1" />
    <g
       id="g1557"
       transform="translate(142.9892)"
       style="opacity:1">
      <g
         id="g1549"
         style="">
        <path
           inkscape:connector-curvature="0"
           transform="matrix(0.26458333,0,0,0.26458333,0,32.41665)"
           id="path1545"
           d="m 307.87415,411.26437 a 117.85294,117.85294 0 0 1 30.0084,40.58382"
           style="opacity:1;fill:none;fill-opacity:1;fill-rule:evenodd;stroke:#1e1b63;stroke-width:5.35054493;stroke-linecap:round;stroke-linejoin:round;stroke-miterlimit:4;stroke-dasharray:none;stroke-opacity:1" />
        <path
           inkscape:connector-curvature="0"
           transform="matrix(0.26458333,0,0,0.26458333,0,32.41665)"
           id="path1547"
           d="M 338.97916,454.37685 A 117.85294,117.85294 0 0 1 305.69252,590.59476"
           style="opacity:1;fill:none;fill-opacity:1;fill-rule:evenodd;stroke:#1e1b63;stroke-width:5.35054493;stroke-linecap:round;stroke-linejoin:round;stroke-miterlimit:4;stroke-dasharray:none;stroke-opacity:1" />
      </g>
      <g
         id="g1555"
         style="">
        <path
           inkscape:connector-curvature="0"
           transform="matrix(0.26458333,0,0,0.26458333,0,32.41665)"
           id="path1551"
           d="m 300.27011,420.38537 a 105.98161,105.98161 0 0 1 26.77721,36.31314"
           style="opacity:1;fill:none;fill-opacity:1;fill-rule:evenodd;stroke:#1e1b63;stroke-width:4.81158447;stroke-linecap:round;stroke-linejoin:round;stroke-miterlimit:4;stroke-dasharray:none;stroke-opacity:1" />
        <path
           transform="matrix(0.26458333,0,0,0.26458333,0,32.41665)"
           inkscape:connector-curvature="0"
           id="path1553"
           d="M 328.03347,458.97246 A 105.98161,105.98161 0 0 1 297.53765,581.93359"
           style="opacity:1;fill:none;fill-opacity:1;fill-rule:evenodd;stroke:#1e1b63;stroke-width:4.81158447;stroke-linecap:round;stroke-linejoin:round;stroke-miterlimit:4;stroke-dasharray:none;stroke-opacity:1" />
      </g>
    </g>
    <path
       inkscape:connector-curvature="0"
       id="path1559"
       d="m 228.50697,199.81374 a 44.966246,44.966246 0 0 0 5.55312,-5.28126 44.966246,44.966246 0 0 0 -3.6316,-63.30162 44.966246,44.966246 0 0 0 -0.18048,-0.16097"
       style="opacity:1;fill:none;fill-opacity:1;fill-rule:evenodd;stroke:#1e1b63;stroke-width:1.54910445;stroke-linecap:round;stroke-linejoin:round;stroke-miterlimit:4;stroke-dasharray:none;stroke-opacity:1" />
    <g
       id="g1565"
       transform="translate(142.9892)"
       style="opacity:1">
      <path
         style="opacity:1;fill:none;fill-opacity:1;fill-rule:evenodd;stroke:#1e1b63;stroke-width:5.35054493;stroke-linecap:round;stroke-linejoin:round;stroke-miterlimit:4;stroke-dasharray:none;stroke-opacity:1"
         d="m 151.23363,587.3804 a 117.85294,117.85294 0 0 1 -29.04196,-40.49113 117.85294,117.85294 0 0 1 32.2791,-137.09515"
         id="path1561"
         transform="matrix(0.26458333,0,0,0.26458333,0,32.41665)"
         inkscape:connector-curvature="0" />
      <path
         style="opacity:1;fill:none;fill-opacity:1;fill-rule:evenodd;stroke:#1e1b63;stroke-width:4.81158447;stroke-linecap:round;stroke-linejoin:round;stroke-miterlimit:4;stroke-dasharray:none;stroke-opacity:1"
         d="M 160.44322,579.68645 A 105.98161,105.98161 0 0 1 133.08299,542.1661 105.98161,105.98161 0 0 1 163.17313,417.99893"
         id="path1563"
         transform="matrix(0.26458333,0,0,0.26458333,0,32.41665)"
         inkscape:connector-curvature="0" />
    </g>
    <path
       style="opacity:1;fill:#ffffff;fill-opacity:1;fill-rule:evenodd;stroke:#1e1b63;stroke-width:3.17499995;stroke-linecap:round;stroke-linejoin:round;stroke-miterlimit:4;stroke-dasharray:none;stroke-opacity:1"
       d="m 146.39933,132.43066 a 40.624966,40.624966 0 0 1 -53.0914,-21.51232 40.624966,40.624966 0 0 1 21.20154,-53.216267 40.624966,40.624966 0 0 1 53.33932,20.890031 40.624966,40.624966 0 0 1 -20.57781,53.460546"
       id="path1633"
       inkscape:connector-curvature="0" />
    <g
       id="g1647"
       transform="rotate(90,130.67263,164.70832)"
       style="opacity:1">
      <g
         id="g1639"
         style="">
        <path
           inkscape:connector-curvature="0"
           transform="matrix(0.26458333,0,0,0.26458333,0,32.41665)"
           id="path1635"
           d="m 307.87415,411.26437 a 117.85294,117.85294 0 0 1 30.0084,40.58382"
           style="opacity:1;fill:none;fill-opacity:1;fill-rule:evenodd;stroke:#1e1b63;stroke-width:5.35054493;stroke-linecap:round;stroke-linejoin:round;stroke-miterlimit:4;stroke-dasharray:none;stroke-opacity:1" />
        <path
           inkscape:connector-curvature="0"
           transform="matrix(0.26458333,0,0,0.26458333,0,32.41665)"
           id="path1637"
           d="M 338.97916,454.37685 A 117.85294,117.85294 0 0 1 305.69252,590.59476"
           style="opacity:1;fill:none;fill-opacity:1;fill-rule:evenodd;stroke:#1e1b63;stroke-width:5.35054493;stroke-linecap:round;stroke-linejoin:round;stroke-miterlimit:4;stroke-dasharray:none;stroke-opacity:1" />
      </g>
      <g
         id="g1645"
         style="">
        <path
           inkscape:connector-curvature="0"
           transform="matrix(0.26458333,0,0,0.26458333,0,32.41665)"
           id="path1641"
           d="m 300.27011,420.38537 a 105.98161,105.98161 0 0 1 26.77721,36.31314"
           style="opacity:1;fill:none;fill-opacity:1;fill-rule:evenodd;stroke:#1e1b63;stroke-width:4.81158447;stroke-linecap:round;stroke-linejoin:round;stroke-miterlimit:4;stroke-dasharray:none;stroke-opacity:1" />
        <path
           transform="matrix(0.26458333,0,0,0.26458333,0,32.41665)"
           inkscape:connector-curvature="0"
           id="path1643"
           d="M 328.03347,458.97246 A 105.98161,105.98161 0 0 1 297.53765,581.93359"
           style="opacity:1;fill:none;fill-opacity:1;fill-rule:evenodd;stroke:#1e1b63;stroke-width:4.81158447;stroke-linecap:round;stroke-linejoin:round;stroke-miterlimit:4;stroke-dasharray:none;stroke-opacity:1" />
      </g>
    </g>
    <path
       inkscape:connector-curvature="0"
       id="path1649"
       d="m 95.567205,66.873982 a 44.966246,44.966246 0 0 1 5.281265,-5.553126 44.966246,44.966246 0 0 1 63.30162,3.631602 44.966246,44.966246 0 0 1 0.16097,0.180481"
       style="opacity:1;fill:none;fill-opacity:1;fill-rule:evenodd;stroke:#1e1b63;stroke-width:1.54910445;stroke-linecap:round;stroke-linejoin:round;stroke-miterlimit:4;stroke-dasharray:none;stroke-opacity:1" />
    <g
       id="g1655"
       transform="rotate(90,130.67263,164.70832)"
       style="opacity:1">
      <path
         style="opacity:1;fill:none;fill-opacity:1;fill-rule:evenodd;stroke:#1e1b63;stroke-width:5.35054493;stroke-linecap:round;stroke-linejoin:round;stroke-miterlimit:4;stroke-dasharray:none;stroke-opacity:1"
         d="m 151.23363,587.3804 a 117.85294,117.85294 0 0 1 -29.04196,-40.49113 117.85294,117.85294 0 0 1 32.2791,-137.09515"
         id="path1651"
         transform="matrix(0.26458333,0,0,0.26458333,0,32.41665)"
         inkscape:connector-curvature="0" />
      <path
         style="opacity:1;fill:none;fill-opacity:1;fill-rule:evenodd;stroke:#1e1b63;stroke-width:4.81158447;stroke-linecap:round;stroke-linejoin:round;stroke-miterlimit:4;stroke-dasharray:none;stroke-opacity:1"
         d="M 160.44322,579.68645 A 105.98161,105.98161 0 0 1 133.08299,542.1661 105.98161,105.98161 0 0 1 163.17313,417.99893"
         id="path1653"
         transform="matrix(0.26458333,0,0,0.26458333,0,32.41665)"
         inkscape:connector-curvature="0" />
    </g>
    <path
       style="opacity:1;fill:#ffffff;fill-opacity:1;fill-rule:evenodd;stroke:#1e1b63;stroke-width:3.17499995;stroke-linecap:round;stroke-linejoin:round;stroke-miterlimit:4;stroke-dasharray:none;stroke-opacity:1"
       d="m 146.39933,196.98597 a 40.624966,40.624966 0 0 0 -53.0914,21.51233 40.624966,40.624966 0 0 0 21.20154,53.21627 40.624966,40.624966 0 0 0 53.33932,-20.89003 40.624966,40.624966 0 0 0 -20.57781,-53.46055"
       id="path1661"
       inkscape:connector-curvature="0" />
    <g
       id="g1675"
       transform="rotate(90,59.17803,236.20292)"
       style="opacity:1">
      <g
         id="g1667"
         style="">
        <path
           style="opacity:1;fill:none;fill-opacity:1;fill-rule:evenodd;stroke:#1e1b63;stroke-width:5.35054493;stroke-linecap:round;stroke-linejoin:round;stroke-miterlimit:4;stroke-dasharray:none;stroke-opacity:1"
           d="m 307.87415,411.26437 a 117.85294,117.85294 0 0 1 30.0084,40.58382"
           id="path1663"
           transform="matrix(0.26458333,0,0,0.26458333,0,32.41665)"
           inkscape:connector-curvature="0" />
        <path
           style="opacity:1;fill:none;fill-opacity:1;fill-rule:evenodd;stroke:#1e1b63;stroke-width:5.35054493;stroke-linecap:round;stroke-linejoin:round;stroke-miterlimit:4;stroke-dasharray:none;stroke-opacity:1"
           d="M 338.97916,454.37685 A 117.85294,117.85294 0 0 1 305.69252,590.59476"
           id="path1665"
           transform="matrix(0.26458333,0,0,0.26458333,0,32.41665)"
           inkscape:connector-curvature="0" />
      </g>
      <g
         id="g1673"
         style="">
        <path
           style="opacity:1;fill:none;fill-opacity:1;fill-rule:evenodd;stroke:#1e1b63;stroke-width:4.81158447;stroke-linecap:round;stroke-linejoin:round;stroke-miterlimit:4;stroke-dasharray:none;stroke-opacity:1"
           d="m 300.27011,420.38537 a 105.98161,105.98161 0 0 1 26.77721,36.31314"
           id="path1669"
           transform="matrix(0.26458333,0,0,0.26458333,0,32.41665)"
           inkscape:connector-curvature="0" />
        <path
           style="opacity:1;fill:none;fill-opacity:1;fill-rule:evenodd;stroke:#1e1b63;stroke-width:4.81158447;stroke-linecap:round;stroke-linejoin:round;stroke-miterlimit:4;stroke-dasharray:none;stroke-opacity:1"
           d="M 328.03347,458.97246 A 105.98161,105.98161 0 0 1 297.53765,581.93359"
           id="path1671"
           inkscape:connector-curvature="0"
           transform="matrix(0.26458333,0,0,0.26458333,0,32.41665)" />
      </g>
    </g>
    <path
       style="opacity:1;fill:none;fill-opacity:1;fill-rule:evenodd;stroke:#1e1b63;stroke-width:1.54910445;stroke-linecap:round;stroke-linejoin:round;stroke-miterlimit:4;stroke-dasharray:none;stroke-opacity:1"
       d="m 95.567205,262.54266 a 44.966246,44.966246 0 0 0 5.281265,5.55312 44.966246,44.966246 0 0 0 63.30162,-3.6316 44.966246,44.966246 0 0 0 0.16097,-0.18048"
       id="path1677"
       inkscape:connector-curvature="0" />
    <g
       id="g1683"
       transform="rotate(90,59.17803,236.20292)"
       style="opacity:1">
      <path
         inkscape:connector-curvature="0"
         transform="matrix(0.26458333,0,0,0.26458333,0,32.41665)"
         id="path1679"
         d="m 151.23363,587.3804 a 117.85294,117.85294 0 0 1 -29.04196,-40.49113 117.85294,117.85294 0 0 1 32.2791,-137.09515"
         style="opacity:1;fill:none;fill-opacity:1;fill-rule:evenodd;stroke:#1e1b63;stroke-width:5.35054493;stroke-linecap:round;stroke-linejoin:round;stroke-miterlimit:4;stroke-dasharray:none;stroke-opacity:1" />
      <path
         inkscape:connector-curvature="0"
         transform="matrix(0.26458333,0,0,0.26458333,0,32.41665)"
         id="path1681"
         d="M 160.44322,579.68645 A 105.98161,105.98161 0 0 1 133.08299,542.1661 105.98161,105.98161 0 0 1 163.17313,417.99893"
         style="opacity:1;fill:none;fill-opacity:1;fill-rule:evenodd;stroke:#1e1b63;stroke-width:4.81158447;stroke-linecap:round;stroke-linejoin:round;stroke-miterlimit:4;stroke-dasharray:none;stroke-opacity:1" />
    </g>
    <path
       sodipodi:type="star"
       style="opacity:1;fill:#2cb17a;fill-opacity:1;fill-rule:evenodd;stroke:#1e1b63;stroke-width:3.17499995;stroke-linecap:round;stroke-linejoin:round;stroke-miterlimit:4;stroke-dasharray:none;stroke-opacity:1"
       id="path1422"
       sodipodi:sides="4"
       sodipodi:cx="131.53572"
       sodipodi:cy="165.84224"
       sodipodi:r1="82.485451"
       sodipodi:r2="18.971655"
       sodipodi:arg1="1.5707963"
       sodipodi:arg2="2.3561945"
       inkscape:flatsided="false"
       inkscape:rounded="0.45"
       inkscape:randomized="0"
       d="m 131.53572,248.32769 c -31.662513,0 8.9738,-46.68169 -13.41499,-69.07046 -22.388775,-22.38878 -69.07046,18.24753 -69.07046,-13.41499 0,-31.66251 46.681686,8.97379 69.07047,-13.41499 22.38877,-22.38878 -18.247537,-69.070462 13.41498,-69.070461 31.66251,0 -8.97379,46.681681 13.41499,69.070461 22.38878,22.38878 69.07046,-18.24753 69.07046,13.41499 0,31.66251 -46.68168,-8.9738 -69.07046,13.41499 -22.38878,22.38878 18.24753,69.07046 -13.41499,69.07046 z"
       inkscape:transform-center-x="1.3571429e-06" />
    <path
       style="opacity:1;fill:#1d1c64;fill-opacity:1;fill-rule:evenodd;stroke:#1e1b63;stroke-width:0.24539651;stroke-linecap:round;stroke-linejoin:round;stroke-miterlimit:4;stroke-dasharray:none;stroke-opacity:1"
       d="m 131.88817,97.868451 a 3.1399133,3.1399133 0 0 1 -4.10345,-1.662692 3.1399133,3.1399133 0 0 1 1.63867,-4.113099 3.1399133,3.1399133 0 0 1 4.12261,1.614596 3.1399133,3.1399133 0 0 1 -1.59046,4.131979"
       id="path1657"
       inkscape:connector-curvature="0" />
    <path
       inkscape:connector-curvature="0"
       id="path1426"
       d="m 63.832761,163.49278 a 3.1399133,3.1399133 0 0 1 -1.662692,4.10345 3.1399133,3.1399133 0 0 1 -4.113099,-1.63867 3.1399133,3.1399133 0 0 1 1.614596,-4.12261 3.1399133,3.1399133 0 0 1 4.131979,1.59046"
       style="opacity:1;fill:#1d1c64;fill-opacity:1;fill-rule:evenodd;stroke:#1e1b63;stroke-width:0.24539651;stroke-linecap:round;stroke-linejoin:round;stroke-miterlimit:4;stroke-dasharray:none;stroke-opacity:1" />
    <path
       inkscape:connector-curvature="0"
       id="path1567"
       d="m 206.82196,163.49278 a 3.1399133,3.1399133 0 0 1 -1.66269,4.10345 3.1399133,3.1399133 0 0 1 -4.1131,-1.63867 3.1399133,3.1399133 0 0 1 1.6146,-4.12261 3.1399133,3.1399133 0 0 1 4.13198,1.59046"
       style="opacity:1;fill:#1d1c64;fill-opacity:1;fill-rule:evenodd;stroke:#1e1b63;stroke-width:0.24539651;stroke-linecap:round;stroke-linejoin:round;stroke-miterlimit:4;stroke-dasharray:none;stroke-opacity:1" />
    <path
       style="opacity:1;fill:#1d1c64;fill-opacity:1;fill-rule:evenodd;stroke:#1e1b63;stroke-width:0.24539651;stroke-linecap:round;stroke-linejoin:round;stroke-miterlimit:4;stroke-dasharray:none;stroke-opacity:1"
       d="m 131.88817,240.85765 a 3.1399133,3.1399133 0 0 1 -4.10345,-1.66269 3.1399133,3.1399133 0 0 1 1.63867,-4.1131 3.1399133,3.1399133 0 0 1 4.12261,1.6146 3.1399133,3.1399133 0 0 1 -1.59046,4.13198"
       id="path1685"
       inkscape:connector-curvature="0" />
  </g>
</svg>
