<?xml version="1.0" encoding="UTF-8" standalone="no"?>
<!-- Created with Inkscape (http://www.inkscape.org/) -->

<svg
   xmlns:dc="http://purl.org/dc/elements/1.1/"
   xmlns:cc="http://creativecommons.org/ns#"
   xmlns:rdf="http://www.w3.org/1999/02/22-rdf-syntax-ns#"
   xmlns:svg="http://www.w3.org/2000/svg"
   xmlns="http://www.w3.org/2000/svg"
   xmlns:sodipodi="http://sodipodi.sourceforge.net/DTD/sodipodi-0.dtd"
   xmlns:inkscape="http://www.inkscape.org/namespaces/inkscape"
   width="1000"
   height="1000"
   viewBox="0 0 264.58333 264.58334"
   version="1.1"
   id="svg8"
   inkscape:version="0.92.5 (0.92.5+68)"
   sodipodi:docname="drawing.svg">
  <defs
     id="defs2" />
  <sodipodi:namedview
     id="base"
     pagecolor="#ffffff"
     bordercolor="#666666"
     borderopacity="1.0"
     inkscape:pageopacity="0.0"
     inkscape:pageshadow="2"
     inkscape:zoom="0.35"
     inkscape:cx="294.60181"
     inkscape:cy="410.72596"
     inkscape:document-units="px"
     inkscape:current-layer="layer1"
     showgrid="false"
     units="px"
     inkscape:snap-bbox="true"
     inkscape:snap-smooth-nodes="true"
     inkscape:snap-intersection-paths="true"
     inkscape:object-paths="true"
     inkscape:window-width="1319"
     inkscape:window-height="704"
     inkscape:window-x="47"
     inkscape:window-y="27"
     inkscape:window-maximized="1" />
  <metadata
     id="metadata5">
    <rdf:RDF>
      <cc:Work
         rdf:about="">
        <dc:format>image/svg+xml</dc:format>
        <dc:type
           rdf:resource="http://purl.org/dc/dcmitype/StillImage" />
        <dc:title></dc:title>
      </cc:Work>
    </rdf:RDF>
  </metadata>
  <g
     inkscape:label="Layer 1"
     inkscape:groupmode="layer"
     id="layer1"
     transform="translate(0,-32.416659)">
    <path
       style="font-style:normal;font-variant:normal;font-weight:normal;font-stretch:normal;font-size:122.45422363px;line-height:1.25;font-family:'Sansita One';-inkscape-font-specification:'Sansita One';letter-spacing:0px;word-spacing:0px;opacity:1;fill:#a10000;fill-opacity:1;stroke:none;stroke-width:3.06135535"
       d="m 193.04652,54.788454 c -6.20435,0 -12.04094,1.714124 -17.51056,5.142838 -3.68613,2.310702 -7.0365,5.069401 -10.05469,8.270811 0.75713,2.057956 1.13637,4.321596 1.13637,6.791317 0,4.571627 -1.14292,8.939115 -3.42873,13.102561 -2.20418,4.163438 -6.28581,8.367586 -12.24525,12.612669 l -13.22503,9.30641 -7.95973,5.26582 -10.1632,6.2451 4.28553,0.48989 c 1.95926,0.24491 4.65348,0.36742 8.08219,0.36742 3.42872,0 6.57162,-0.16334 9.42888,-0.48989 2.85727,-0.40818 5.51064,-0.9799 7.95973,-1.71462 5.38798,-1.46945 8.93873,-3.22441 10.65309,-5.26532 0.898,0.65309 1.6739,1.83685 2.32699,3.55121 0.73473,1.63272 1.10174,3.46936 1.10174,5.51026 0,6.12271 -2.32616,10.44936 -6.97942,12.98008 -4.65326,2.53072 -11.75579,3.79615 -21.30722,3.79615 l 39.77638,0.12248 c 3.91853,0 7.91849,-0.73455 12.0003,-2.204 4.16344,-1.38782 7.91889,-3.51031 11.26598,-6.36757 3.34708,-2.85727 6.08161,-6.40854 8.20415,-10.65362 2.20417,-4.24508 3.30626,-9.38796 3.30626,-15.42903 0,-6.04107 -1.4691,-11.184466 -4.408,-15.429547 -1.55109,-2.285814 -3.59191,-4.122443 -6.12262,-5.510257 -2.44909,-1.387814 -5.63334,-2.082043 -9.55188,-2.082043 -3.91853,0 -7.30645,0.939255 -10.16372,2.816881 -2.77562,1.795999 -5.2243,4.448849 -7.34684,7.959204 1.30619,-6.612525 3.42867,-11.755406 6.36758,-15.429032 4.16343,-5.306353 10.04138,-7.959722 17.63354,-7.959722 5.79617,0 9.91864,1.592125 12.36772,4.775938 2.9389,-2.285815 4.408,-5.387877 4.408,-9.306409 0,-3.591994 -1.75495,-6.367875 -5.26531,-8.327141 -3.51035,-1.959269 -8.36789,-2.938838 -14.57223,-2.938838 z M 100.77411,55.0334 c -8.245254,0 -15.429464,1.714121 -21.552176,5.142838 -2.857265,1.632728 -5.102265,3.551547 -6.73499,5.755722 -1.632723,2.12254 -2.448946,4.326702 -2.448946,6.612514 0,2.285815 0.326181,3.999934 0.97927,5.142839 0.653087,1.061267 1.755169,1.795819 3.306257,2.204 4.816534,-5.061439 9.959928,-7.591785 15.42955,-7.591785 3.102174,0 5.469684,0.652875 7.102409,1.959055 1.632723,1.306179 2.448946,3.143329 2.448946,5.510776 0,5.877795 -5.959617,9.796086 -17.878496,11.755352 l -2.081527,11.021039 c 9.95961,0 14.939658,3.63242 14.939658,10.89804 0,3.8369 -1.183757,6.73529 -3.551206,8.69456 -2.367449,1.95926 -5.429189,2.93883 -9.184452,2.93883 -3.673626,0 -6.979872,-0.69371 -9.918774,-2.08152 -2.857264,-1.38781 -5.102267,-3.59198 -6.73499,-6.61252 -3.183808,2.61236 -4.775419,6.0406 -4.775419,10.28568 0,4.24508 1.99998,7.67384 6.000152,10.28619 4.000172,2.53072 9.347234,3.79615 16.041396,3.79615 9.106596,0 16.772467,-1.70731 22.998598,-5.12113 -0.49275,-0.13544 -0.9562,-0.26657 -1.36064,-0.38913 l -0.73484,-15.06212 15.30708,-11.75536 9.55135,-7.83725 c 3.26545,-2.775628 6.08216,-5.387648 8.44962,-7.836726 4.32671,-4.326721 6.49004,-8.572217 6.49004,-12.735658 0,-2.449087 -0.81674,-4.326551 -2.44946,-5.63273 -1.55109,-1.306174 -3.51023,-1.959055 -5.87768,-1.959055 -2.28581,0 -4.2858,0.285351 -6.00015,0.856795 -1.63273,0.489821 -3.18402,1.184045 -4.65346,2.082046 -3.10218,2.040898 -5.38802,4.6126 -6.85747,7.714774 -2.0409,-0.08163 -3.75502,-0.980049 -5.14283,-2.694408 -1.30618,-1.714363 -1.95957,-3.796012 -1.95957,-6.245098 0,-2.530721 0.7759,-4.939075 2.32699,-7.224882 1.55108,-2.367455 3.7144,-4.449104 6.49004,-6.245098 6.04107,-3.755263 13.18393,-5.63273 21.42918,-5.63273 z m 81.00694,41.38972 c 1.71436,0 3.18346,1.020405 4.408,3.061313 1.30618,2.040897 1.95957,4.857107 1.95957,8.449097 0,3.59199 -0.65339,7.34744 -1.95957,11.26598 -0.73472,2.20417 -1.79596,4.12248 -3.18378,5.7552 -1.30617,1.55109 -3.10197,2.32647 -5.38779,2.32647 -2.28581,0 -4.16328,-1.0204 -5.63273,-3.06131 -1.38781,-2.12254 -2.08204,-4.7754 -2.08204,-7.9592 0,-3.26545 0.32669,-6.04132 0.97978,-8.32714 0.65309,-2.28581 1.51016,-4.28579 2.57142,-6.00015 1.14291,-1.71436 2.3675,-3.061465 3.67368,-4.041098 1.38781,-0.979633 2.9391,-1.469162 4.65346,-1.469162 z"
       id="path819"
       inkscape:connector-curvature="0" />
    <rect
       style="opacity:1;fill:#a10000;fill-opacity:1;stroke-width:0.26458332"
       id="rect833"
       width="198.05951"
       height="114.1488"
       x="37.766148"
       y="162.33302" />
    <path
       inkscape:connector-curvature="0"
       id="path835"
       d="m 189.27844,177.5677 c -6.20435,0 -12.04094,1.71412 -17.51056,5.14284 -3.68613,2.3107 -7.0365,5.0694 -10.05469,8.27081 0.75713,2.05796 1.13637,4.3216 1.13637,6.79132 0,4.57162 -1.14292,8.93911 -3.42873,13.10256 -2.20418,4.16344 -6.28581,8.36758 -12.24525,12.61266 l -13.22503,9.30641 -7.95973,5.26583 -10.1632,6.2451 4.28553,0.48989 c 1.95926,0.24491 4.65348,0.36742 8.08219,0.36742 3.42872,0 6.57161,-0.16334 9.42888,-0.48989 2.85727,-0.40818 5.51064,-0.9799 7.95973,-1.71462 5.38798,-1.46945 8.93873,-3.22441 10.65309,-5.26532 0.898,0.65309 1.6739,1.83685 2.32699,3.55121 0.73473,1.63272 1.10174,3.46936 1.10174,5.51026 0,6.12271 -2.32616,10.44936 -6.97942,12.98008 -4.65326,2.53072 -11.75579,3.79615 -21.30722,3.79615 l 39.77638,0.12248 c 3.91853,0 7.91849,-0.73455 12.0003,-2.204 4.16344,-1.38782 7.91889,-3.51031 11.26598,-6.36757 3.34708,-2.85727 6.08161,-6.40854 8.20415,-10.65362 2.20417,-4.24508 3.30626,-9.38796 3.30626,-15.42903 0,-6.04107 -1.4691,-11.18447 -4.408,-15.42955 -1.55109,-2.28581 -3.59191,-4.12244 -6.12262,-5.51026 -2.44909,-1.38781 -5.63334,-2.08204 -9.55188,-2.08204 -3.91853,0 -7.30645,0.93925 -10.16372,2.81688 -2.77562,1.796 -5.2243,4.44885 -7.34684,7.9592 1.30619,-6.61252 3.42867,-11.7554 6.36758,-15.42903 4.16343,-5.30635 10.04138,-7.95972 17.63354,-7.95972 5.79617,0 9.91864,1.59213 12.36772,4.77594 2.9389,-2.28582 4.408,-5.38788 4.408,-9.30641 0,-3.59199 -1.75495,-6.36788 -5.26531,-8.32714 -3.51035,-1.95927 -8.36789,-2.93884 -14.57223,-2.93884 z m -92.272408,0.24495 c -8.24525,0 -15.429463,1.71412 -21.552174,5.14283 -2.857265,1.63273 -5.102265,3.55155 -6.73499,5.75573 -1.632723,2.12254 -2.448946,4.3267 -2.448946,6.61251 0,2.28582 0.326181,3.99993 0.97927,5.14284 0.653087,1.06127 1.755169,1.79582 3.306257,2.204 4.816534,-5.06144 9.95993,-7.59179 15.429553,-7.59179 3.10217,0 5.46968,0.65288 7.10241,1.95906 1.63272,1.30618 2.44894,3.14333 2.44894,5.51078 0,5.87779 -5.95961,9.79608 -17.87849,11.75535 l -2.08153,11.02103 c 9.95961,0 14.93966,3.63242 14.93966,10.89805 0,3.8369 -1.18376,6.73529 -3.55121,8.69456 -2.36745,1.95926 -5.429193,2.93883 -9.18445,2.93883 -3.673627,0 -6.979873,-0.69371 -9.918775,-2.08152 -2.857264,-1.38781 -5.102267,-3.59198 -6.73499,-6.61252 -3.183808,2.61236 -4.775419,6.0406 -4.775419,10.28568 0,4.24508 1.99998,7.67384 6.000152,10.28619 4.000172,2.53072 9.347234,3.79615 16.041389,3.79615 9.106603,0 16.772473,-1.70731 22.998601,-5.12113 -0.49275,-0.13544 -0.9562,-0.26657 -1.36064,-0.38913 l -0.734838,-15.06212 15.307078,-11.75536 9.55135,-7.83725 c 3.26545,-2.77563 6.08216,-5.38765 8.44962,-7.83673 4.32671,-4.32672 6.49004,-8.57222 6.49004,-12.73566 0,-2.44908 -0.81674,-4.32655 -2.44946,-5.63273 -1.5511,-1.30617 -3.51023,-1.95905 -5.87768,-1.95905 -2.28581,0 -4.2858,0.28535 -6.00015,0.85679 -1.63273,0.48982 -3.18402,1.18405 -4.65346,2.08205 -3.10218,2.0409 -5.38802,4.6126 -6.85747,7.71477 -2.0409,-0.0816 -3.75502,-0.98005 -5.14283,-2.69441 -1.30618,-1.71436 -1.95958,-3.79601 -1.95958,-6.24509 0,-2.53072 0.77591,-4.93908 2.32699,-7.22489 1.55109,-2.36745 3.71441,-4.4491 6.49005,-6.24509 6.04107,-3.75527 13.18393,-5.63273 21.42918,-5.63273 z m 81.006938,41.38972 c 1.71436,0 3.18346,1.0204 4.408,3.06131 1.30618,2.0409 1.95957,4.8571 1.95957,8.4491 0,3.59199 -0.65339,7.34744 -1.95957,11.26598 -0.73472,2.20417 -1.79596,4.12248 -3.18378,5.7552 -1.30617,1.55109 -3.10197,2.32647 -5.38779,2.32647 -2.28581,0 -4.16328,-1.0204 -5.63273,-3.06131 -1.38781,-2.12254 -2.08204,-4.7754 -2.08204,-7.9592 0,-3.26545 0.32669,-6.04133 0.97978,-8.32714 0.65309,-2.28582 1.51016,-4.28579 2.57142,-6.00015 1.14291,-1.71436 2.3675,-3.06147 3.67368,-4.0411 1.38781,-0.97963 2.9391,-1.46916 4.65346,-1.46916 z"
       style="font-style:normal;font-variant:normal;font-weight:normal;font-stretch:normal;font-size:122.45422363px;line-height:1.25;font-family:'Sansita One';-inkscape-font-specification:'Sansita One';letter-spacing:0px;word-spacing:0px;opacity:1;fill:#ffffff;fill-opacity:1;stroke:none;stroke-width:3.06135535" />
  </g>
</svg>
